# WaveFront *.obj file (generated by CINEMA 4D)

mtllib ./Streetside_Sign.mtl

v -1850.65771484375 1969.3172607421875 -73.26216125488281
v 1850.65771484375 1969.3172607421875 -73.26216125488281
v 1850.65771484375 1969.3172607421875 73.26216125488281
v -1850.65771484375 1969.3172607421875 73.26216125488281
v -1850.65771484375 2003.93994140625 -82.41992950439453
v 1850.65771484375 2003.93994140625 -82.41992950439453
v 1966.3238525390625 2003.93994140625 -81.19302368164062
v 2050.997314453125 2003.93994140625 -77.84104156494141
v 2081.989990234375 2003.93994140625 -73.26216125488281
v 2081.989990234375 2003.93994140625 73.26216125488281
v 2050.997314453125 2003.93994140625 77.84104156494141
v 1966.3238525390625 2003.93994140625 81.19302368164062
v 1850.65771484375 2003.93994140625 82.41992950439453
v -1850.65771484375 2003.93994140625 82.41992950439453
v -1966.3238525390625 2003.93994140625 81.19302368164062
v -2050.997314453125 2003.93994140625 77.84104156494141
v -2081.989990234375 2003.93994140625 73.26216125488281
v -2081.989990234375 2003.93994140625 -73.26216125488281
v -2050.997314453125 2003.93994140625 -77.84104156494141
v -1966.3238525390625 2003.93994140625 -81.19302368164062
v -1850.65771484375 2098.530517578125 -89.12387847900391
v 1850.65771484375 2098.530517578125 -89.12387847900391
v 2050.997314453125 2098.530517578125 -86.99880981445312
v 2197.656005859375 2098.530517578125 -81.19302368164062
v 2251.3369140625 2098.530517578125 -73.26216125488281
v 2251.3369140625 2098.530517578125 73.26216125488281
v 2197.656005859375 2098.530517578125 81.19302368164062
v 2050.997314453125 2098.530517578125 86.99880981445312
v 1850.65771484375 2098.530517578125 89.12387847900391
v -1850.65771484375 2098.530517578125 89.12387847900391
v -2050.997314453125 2098.530517578125 86.99880981445312
v -2197.656005859375 2098.530517578125 81.19302368164062
v -2251.3369140625 2098.530517578125 73.26216125488281
v -2251.3369140625 2098.530517578125 -73.26216125488281
v -2197.656005859375 2098.530517578125 -81.19302368164062
v -2050.997314453125 2098.530517578125 -86.99880981445312
v -1850.65771484375 2227.743896484375 -91.57769775390625
v 1850.65771484375 2227.743896484375 -91.57769775390625
v 2081.989990234375 2227.743896484375 -89.12387847900391
v 2251.3369140625 2227.743896484375 -82.41992950439453
v 2313.322265625 2227.743896484375 -73.26216125488281
v 2313.322265625 2227.743896484375 73.26216125488281
v 2251.3369140625 2227.743896484375 82.41992950439453
v 2081.989990234375 2227.743896484375 89.12387847900391
v 1850.65771484375 2227.743896484375 91.57769775390625
v -1850.65771484375 2227.743896484375 91.57769775390625
v -2081.989990234375 2227.743896484375 89.12387847900391
v -2251.3369140625 2227.743896484375 82.41992950439453
v -2313.322265625 2227.743896484375 73.26216125488281
v -2313.322265625 2227.743896484375 -73.26216125488281
v -2251.3369140625 2227.743896484375 -82.41992950439453
v -2081.989990234375 2227.743896484375 -89.12387847900391
v -1850.65771484375 4295.15771484375 -91.57769775390625
v 1850.65771484375 4295.15771484375 -91.57769775390625
v 2081.989990234375 4295.15771484375 -89.12387847900391
v 2251.3369140625 4295.15771484375 -82.41992950439453
v 2313.322265625 4295.15771484375 -73.26216125488281
v 2313.322265625 4295.15771484375 73.26216125488281
v 2251.3369140625 4295.15771484375 82.41992950439453
v 2081.989990234375 4295.15771484375 89.12387847900391
v 1850.65771484375 4295.15771484375 91.57769775390625
v -1850.65771484375 4295.15771484375 91.57769775390625
v -2081.989990234375 4295.15771484375 89.12387847900391
v -2251.3369140625 4295.15771484375 82.41992950439453
v -2313.322265625 4295.15771484375 73.26216125488281
v -2313.322265625 4295.15771484375 -73.26216125488281
v -2251.3369140625 4295.15771484375 -82.41992950439453
v -2081.989990234375 4295.15771484375 -89.12387847900391
v -1850.65771484375 4424.37109375 -89.12387847900391
v 1850.65771484375 4424.37109375 -89.12387847900391
v 2050.997314453125 4424.37109375 -86.99880981445312
v 2197.656005859375 4424.37109375 -81.19302368164062
v 2251.3369140625 4424.37109375 -73.26216125488281
v 2251.3369140625 4424.37109375 73.26216125488281
v 2197.656005859375 4424.37109375 81.19302368164062
v 2050.997314453125 4424.37109375 86.99880981445312
v 1850.65771484375 4424.37109375 89.12387847900391
v -1850.65771484375 4424.37109375 89.12387847900391
v -2050.997314453125 4424.37109375 86.99880981445312
v -2197.656005859375 4424.37109375 81.19302368164062
v -2251.3369140625 4424.37109375 73.26216125488281
v -2251.3369140625 4424.37109375 -73.26216125488281
v -2197.656005859375 4424.37109375 -81.19302368164062
v -2050.997314453125 4424.37109375 -86.99880981445312
v -1850.65771484375 4518.96142578125 -82.41992950439453
v 1850.65771484375 4518.96142578125 -82.41992950439453
v 1966.3238525390625 4518.96142578125 -81.19302368164062
v 2050.997314453125 4518.96142578125 -77.84104156494141
v 2081.989990234375 4518.96142578125 -73.26216125488281
v 2081.989990234375 4518.96142578125 73.26216125488281
v 2050.997314453125 4518.96142578125 77.84104156494141
v 1966.3238525390625 4518.96142578125 81.19302368164062
v 1850.65771484375 4518.96142578125 82.41992950439453
v -1850.65771484375 4518.96142578125 82.41992950439453
v -1966.3238525390625 4518.96142578125 81.19302368164062
v -2050.997314453125 4518.96142578125 77.84104156494141
v -2081.989990234375 4518.96142578125 73.26216125488281
v -2081.989990234375 4518.96142578125 -73.26216125488281
v -2050.997314453125 4518.96142578125 -77.84104156494141
v -1966.3238525390625 4518.96142578125 -81.19302368164062
v -1850.65771484375 4553.58447265625 -73.26216125488281
v 1850.65771484375 4553.58447265625 -73.26216125488281
v 1850.65771484375 4553.58447265625 73.26216125488281
v -1850.65771484375 4553.58447265625 73.26216125488281
v -1452.7342529296875 1969.3172607421875 73.26216125488281
v -1452.7342529296875 1969.3172607421875 -73.26216125488281
v -1452.7342529296875 2003.93994140625 -82.41992950439453
v -1452.7342529296875 2098.530517578125 -89.12387847900391
v -1452.7342529296875 2227.743896484375 -91.57769775390625
v -1452.7342529296875 4295.15771484375 -91.57769775390625
v -1452.7342529296875 4424.37109375 -89.12387847900391
v -1452.7342529296875 4518.96142578125 -82.41992950439453
v -1452.7342529296875 4553.58447265625 -73.26216125488281
v -1452.7342529296875 4553.58447265625 73.26216125488281
v -1452.7342529296875 4518.96142578125 82.41992950439453
v -1452.7342529296875 4424.37109375 89.12387847900391
v -1452.7342529296875 4295.15771484375 91.57769775390625
v -1452.7342529296875 2227.743896484375 91.57769775390625
v -1452.7342529296875 2098.530517578125 89.12387847900391
v -1452.7342529296875 2003.93994140625 82.41992950439453
v 1430.1650390625 1969.3172607421875 73.26216125488281
v 1430.1650390625 1969.3172607421875 -73.26216125488281
v 1430.1650390625 2003.93994140625 -82.41992950439453
v 1430.1650390625 2098.530517578125 -89.12387847900391
v 1430.1650390625 2227.743896484375 -91.57769775390625
v 1430.1650390625 4295.15771484375 -91.57769775390625
v 1430.1650390625 4424.37109375 -89.12387847900391
v 1430.1650390625 4518.96142578125 -82.41992950439453
v 1430.1650390625 4553.58447265625 -73.26216125488281
v 1430.1650390625 4553.58447265625 73.26216125488281
v 1430.1650390625 4518.96142578125 82.41992950439453
v 1430.1650390625 4424.37109375 89.12387847900391
v 1430.1650390625 4295.15771484375 91.57769775390625
v 1430.1650390625 2227.743896484375 91.57769775390625
v 1430.1650390625 2098.530517578125 89.12387847900391
v 1430.1650390625 2003.93994140625 82.41992950439453
v 1762.7747802734375 -12.47175407409668 -42.63857650756836
v 1762.7747802734375 -12.47175407409668 42.63857650756836
v 1518.048095703125 -12.47175407409668 42.63857650756836
v 1518.048095703125 -12.47175407409668 -42.63857650756836
v -1767.690673828125 -12.47175407409668 -42.71183776855469
v -1767.690673828125 -12.47175407409668 42.71183776855469
v -1535.7012939453125 -12.47175407409668 42.71183776855469
v -1535.7012939453125 -12.47175407409668 -42.71183776855469
# 144 vertices

vn 0 -0.16392450034618 -0.98647290468216
vn 0.00523169944063 -0.16392233967781 -0.9864593744278
vn 0.03138883039355 -0.32314556837082 -0.94582855701447
vn 0 -0.17678162455559 -0.98425006866455
vn 0 -0.04485652968287 -0.99899345636368
vn 0.00529810134321 -0.04485589638352 -0.99897938966751
vn 0 -0.00949393678457 -0.99995493888855
vn 0.00530320545658 -0.00949380360544 -0.99994087219238
vn 0 0.00949393678457 -0.99995493888855
vn 0.00530320545658 0.00949380360544 -0.99994087219238
vn 0 0.04485661908984 -0.99899345636368
vn 0.00529810134321 0.04485598579049 -0.99897938966751
vn 0 0.16392330825329 -0.98647308349609
vn 0.00523169944063 0.16392116248608 -0.98645955324173
vn 0 0.25570586323738 -0.96675461530685
vn 0.03893186897039 0.39683929085732 -0.91706210374832
vn 0.02451501786709 -0.19183148443699 -0.98112165927887
vn 0 0 0
vn 0.02504045888782 -0.05300262570381 -0.99828034639359
vn 0.02508190087974 -0.0112265041098 -0.9996223449707
vn 0.02508190087974 0.0112265041098 -0.9996223449707
vn 0.02504045888782 0.05300273001194 -0.99828034639359
vn 0.02451502531767 0.19183011353016 -0.98112189769745
vn 0.08332323282957 -0.35848557949066 -0.92980927228928
vn 0.09200222045183 -0.11189928650856 -0.98945140838623
vn 0.09293355047703 -0.02400742471218 -0.99538284540176
vn 0.09293354302645 0.02400742471218 -0.99538284540176
vn 0.09200220555067 0.1118995025754 -0.98945140838623
vn 0.08332332223654 0.35848373174667 -0.92980998754501
vn 0.12721678614616 -0.49229574203491 -0.8610811829567
vn 0.14421798288822 -0.16224071383476 -0.97615528106689
vn 0.14606487751007 -0.03499166667461 -0.9886559844017
vn 0.14606486260891 0.03499166667461 -0.9886559844017
vn 0.14421796798706 0.16224104166031 -0.97615522146225
vn 0.1272169649601 0.49229365587234 -0.86108237504959
vn 0.1480178385973 -0.98898470401764 0
vn 0.32307595014572 -0.94637304544449 0
vn 0.72871994972229 -0.68481183052063 0
vn 0.97509586811066 -0.22178374230862 0
vn 0.97509586811066 0.22178374230862 0
vn 0.72871953248978 0.68481230735779 0
vn 0.32307615876198 0.94637298583984 0
vn 0.07421434670687 0.99724233150482 0
vn 0.03138883039355 -0.32314556837082 0.94582855701447
vn 0.12721678614616 -0.49229577183723 0.8610811829567
vn 0.08332323282957 -0.35848557949066 0.92980927228928
vn 0.14421798288822 -0.16224072873592 0.97615528106689
vn 0.09200222045183 -0.11189928650856 0.98945140838623
vn 0.14606486260891 -0.03499166667461 0.9886559844017
vn 0.09293354302645 -0.02400742098689 0.99538284540176
vn 0.14606487751007 0.03499166667461 0.9886559844017
vn 0.09293355792761 0.02400742471218 0.99538284540176
vn 0.14421798288822 0.16224102675915 0.97615522146225
vn 0.09200222045183 0.11189951002598 0.98945140838623
vn 0.12721695005894 0.49229365587234 0.86108237504959
vn 0.08332332223654 0.35848373174667 0.92980998754501
vn 0.03893187269568 0.39683929085732 0.91706210374832
vn 0.02451501786709 -0.19183146953583 0.98112165927887
vn 0.02504045888782 -0.05300261452794 0.99828034639359
vn 0.0250818990171 -0.0112265041098 0.9996223449707
vn 0.0250818990171 0.01122650317848 0.9996223449707
vn 0.02504045888782 0.05300273373723 0.99828034639359
vn 0.02451502531767 0.19183012843132 0.98112189769745
vn 0.00523169990629 -0.16392235457897 0.9864593744278
vn 0.00529810134321 -0.04485590010881 0.99897938966751
vn 0.00530320545658 -0.00949380453676 0.99994087219238
vn 0.00530320545658 0.00949380360544 0.99994087219238
vn 0.00529810227454 0.04485598951578 0.99897938966751
vn 0.00523169990629 0.16392114758492 0.98645955324173
vn 0 -0.16392450034618 0.98647290468216
vn 0 -0.17678162455559 0.98425006866455
vn 0 -0.04485652968287 0.99899345636368
vn 0 -0.00949393678457 0.99995493888855
vn 0 0.00949393678457 0.99995493888855
vn 0 0.04485661908984 0.99899345636368
vn 0 0.16392332315445 0.98647308349609
vn 0 0.25570586323738 0.96675461530685
vn -0.03138890489936 -0.32313871383667 0.94583094120026
vn -0.00523169944063 -0.16392233967781 0.9864593744278
vn -0.02451501786709 -0.19183148443699 0.98112165927887
vn -0.00529810134321 -0.04485590010881 0.99897938966751
vn -0.02504045888782 -0.05300262570381 0.99828034639359
vn -0.00530320545658 -0.00949380267411 0.99994087219238
vn -0.02508190087974 -0.0112265041098 0.9996223449707
vn -0.00530320545658 0.00949380267411 0.99994087219238
vn -0.02508190087974 0.0112265041098 0.9996223449707
vn -0.00529810134321 0.04485599324107 0.99897938966751
vn -0.02504045888782 0.05300273001194 0.99828034639359
vn -0.00523169944063 0.16392116248608 0.98645955324173
vn -0.02451502531767 0.19183011353016 0.98112189769745
vn -0.03893187269568 0.39683929085732 0.91706210374832
vn -0.08332323282957 -0.35848557949066 0.92980927228928
vn -0.09200222045183 -0.11189928650856 0.98945140838623
vn -0.09293355047703 -0.02400742471218 0.99538284540176
vn -0.09293354302645 0.02400742471218 0.99538284540176
vn -0.09200220555067 0.1118995025754 0.98945140838623
vn -0.08332332223654 0.35848373174667 0.92980998754501
vn -0.12721678614616 -0.49229574203491 0.8610811829567
vn -0.14421798288822 -0.16224071383476 0.97615528106689
vn -0.14606487751007 -0.03499166667461 0.9886559844017
vn -0.14606486260891 0.03499166667461 0.9886559844017
vn -0.14421796798706 0.16224104166031 0.97615522146225
vn -0.1272169649601 0.49229365587234 0.86108237504959
vn -0.1480178385973 -0.98898470401764 0
vn -0.32307595014572 -0.94637304544449 0
vn -0.72871994972229 -0.68481183052063 0
vn -0.97509586811066 -0.22178374230862 0
vn -0.97509586811066 0.22178374230862 0
vn -0.72871953248978 0.68481230735779 0
vn -0.32307615876198 0.94637298583984 0
vn -0.07421434670687 0.99724233150482 0
vn -0.03138890489936 -0.32313871383667 -0.94583094120026
vn -0.12721678614616 -0.49229577183723 -0.8610811829567
vn -0.08332323282957 -0.35848557949066 -0.92980927228928
vn -0.14421798288822 -0.16224072873592 -0.97615528106689
vn -0.09200222045183 -0.11189928650856 -0.98945140838623
vn -0.14606486260891 -0.03499166667461 -0.9886559844017
vn -0.09293354302645 -0.02400742098689 -0.99538284540176
vn -0.14606487751007 0.03499166667461 -0.9886559844017
vn -0.09293355792761 0.02400742471218 -0.99538284540176
vn -0.14421798288822 0.16224102675915 -0.97615522146225
vn -0.09200222045183 0.11189951002598 -0.98945140838623
vn -0.12721695005894 0.49229365587234 -0.86108237504959
vn -0.08332332223654 0.35848373174667 -0.92980998754501
vn -0.03893187269568 0.39683929085732 -0.91706210374832
vn -0.02451501786709 -0.19183146953583 -0.98112165927887
vn -0.02504045888782 -0.05300261452794 -0.99828034639359
vn -0.0250818990171 -0.0112265041098 -0.9996223449707
vn -0.0250818990171 0.01122650317848 -0.9996223449707
vn -0.02504045888782 0.05300273373723 -0.99828034639359
vn -0.02451502531767 0.19183012843132 -0.98112189769745
vn -0.00523169944063 -0.16392235457897 -0.9864593744278
vn -0.00529810134321 -0.04485590010881 -0.99897938966751
vn -0.00530320545658 -0.00949380360544 -0.99994087219238
vn -0.00530320545658 0.00949380267411 -0.99994087219238
vn -0.00529810227454 0.04485598951578 -0.99897938966751
vn -0.00523169990629 0.16392114758492 -0.98645955324173
vn 0 1 0
vn 0 -1 0
vn 0 -0.1767695993185 -0.98425227403641
vn 0 -0.16392450034618 -0.98647290468216
vn 0 -0.04485653340816 -0.99899345636368
vn 0 0.04485662281513 -0.99899345636368
vn 0 0.16392332315445 -0.98647308349609
vn 0 0.16392330825329 0.98647308349609
vn 0 0.04485662281513 0.99899345636368
vn 0 -0.04485652968287 0.99899345636368
vn 0 -0.16392450034618 0.98647290468216
vn 0 -0.1767695993185 0.98425227403641
vn -0.99901819229126 -0.04430177435279 0
vn 0 -0.01545064896345 0.99988061189651
vn 0.99901819229126 -0.04430171102285 0
vn 0 -0.01545064896345 -0.99988061189651
vn 0.99912482500076 -0.04182808101177 0
vn 0 -0.01541369594634 -0.99988120794296
vn -0.99912482500076 -0.04182808473706 0
vn 0 -0.01541369501501 0.99988120794296
# 157 normals

vt 0.74091535806656 0.04699504375458 0
vt 0.83587610721588 0.04699504375458 0
vt 0.83587610721588 0 0
vt 0.74091535806656 0 0
vt 0.74091535806656 0.09398996829987 0
vt 0.83587610721588 0.09398996829987 0
vt 0.74091535806656 0.14098489284515 0
vt 0.83587610721588 0.14098489284515 0
vt 0.74091535806656 0.85901510715485 0
vt 0.83587610721588 0.85901510715485 0
vt 0.74091535806656 0.90601009130478 0
vt 0.83587610721588 0.90601009130478 0
vt 0.74091535806656 0.95300501585007 0
vt 0.83587610721588 0.95300501585007 0
vt 0.74091535806656 1 0
vt 0.83587610721588 1 0
vt 0.86323010921478 0 0
vt 0.89058405160904 0.04699504375458 0
vt 0.89058405160904 0 0
vt 0.89058405160904 0.09398996829987 0
vt 0.89058405160904 0.14098489284515 0
vt 0.89058405160904 0.85901510715485 0
vt 0.89058405160904 0.90601009130478 0
vt 0.89058405160904 0.95300501585007 0
vt 0.86323010921478 1 0
vt 0.91793805360794 0 0
vt 0.94529205560684 0.04699504375458 0
vt 0.94529205560684 0 0
vt 0.94529205560684 0.09398996829987 0
vt 0.94529205560684 0.14098489284515 0
vt 0.94529205560684 0.85901510715485 0
vt 0.94529205560684 0.90601009130478 0
vt 0.94529205560684 0.95300501585007 0
vt 0.91793805360794 1 0
vt 0.9726459980011 0 0
vt 1 0.04699504375458 0
vt 1 0 0
vt 1 0.09398996829987 0
vt 1 0.14098489284515 0
vt 1 0.85901510715485 0
vt 1 0.90601009130478 0
vt 1 0.95300501585007 0
vt 0.9726459980011 1 0
vt 0 0 0
vt 0 0.04699504375458 0
vt 0 0.09398996829987 0
vt 0 0.14098489284515 0
vt 0 0.85901510715485 0
vt 0 0.90601009130478 0
vt 0 0.95300501585007 0
vt 0 1 0
vt 0.09496077150106 0.04699504375458 0
vt 0.09496077150106 0 0
vt 0.09496077150106 0.09398996829987 0
vt 0.09496077150106 0.14098489284515 0
vt 0.09496077150106 0.85901510715485 0
vt 0.09496077150106 0.90601009130478 0
vt 0.09496077150106 0.95300501585007 0
vt 0.09496077150106 1 0
vt 0.88639372587204 1 0
vt 1 1 0
vt 0.88639372587204 0 0
vt 0.10750867426395 0 0
vt 0.10750867426395 1 0
vt 0.08986393362284 0 0
vt 0.08986393362284 0.04699504375458 0
vt 0.08986393362284 0.09398996829987 0
vt 0.08986393362284 0.14098489284515 0
vt 0.08986393362284 0.85901510715485 0
vt 0.08986393362284 0.90601009130478 0
vt 0.08986393362284 0.95300501585007 0
vt 0.08986393362284 1 0
vt 0.7460121512413 1 0
vt 0.7460121512413 0.95300501585007 0
vt 0.7460121512413 0.90601009130478 0
vt 0.7460121512413 0.85901510715485 0
vt 0.7460121512413 0.14098489284515 0
vt 0.7460121512413 0.09398996829987 0
vt 0.7460121512413 0.04699504375458 0
vt 0.7460121512413 0 0
# 80 texture coordinates

o Cube
usemtl default
f 123/1/1 6/2/2 2/3/3 122/4/4
f 124/5/5 22/6/6 6/2/2 123/1/1
f 125/7/7 38/8/8 22/6/6 124/5/5
f 126/9/9 54/10/10 38/8/8 125/7/7
f 127/11/11 70/12/12 54/10/10 126/9/9
f 128/13/13 86/14/14 70/12/12 127/11/11
f 129/15/15 102/16/16 86/14/14 128/13/13
f 2/17/3 6/2/2 7/18/17
f 6/2/2 22/6/6 23/20/19 7/18/17
f 22/6/6 38/8/8 39/21/20 23/20/19
f 38/8/8 54/10/10 55/22/21 39/21/20
f 54/10/10 70/12/12 71/23/22 55/22/21
f 70/12/12 86/14/14 87/24/23 71/23/22
f 86/14/14 102/25/16 87/24/23
f 2/26/3 7/18/17 8/27/24
f 7/18/17 23/20/19 24/29/25 8/27/24
f 23/20/19 39/21/20 40/30/26 24/29/25
f 39/21/20 55/22/21 56/31/27 40/30/26
f 55/22/21 71/23/22 72/32/28 56/31/27
f 71/23/22 87/24/23 88/33/29 72/32/28
f 87/24/23 102/34/16 88/33/29
f 2/35/3 8/27/24 9/36/30
f 8/27/24 24/29/25 25/38/31 9/36/30
f 24/29/25 40/30/26 41/39/32 25/38/31
f 40/30/26 56/31/27 57/40/33 41/39/32
f 56/31/27 72/32/28 73/41/34 57/40/33
f 72/32/28 88/33/29 89/42/35 73/41/34
f 88/33/29 102/43/16 89/42/35
f 2/44/36 9/45/37 10/2/37 3/3/36
f 9/45/37 25/46/38 26/6/38 10/2/37
f 25/46/38 41/47/39 42/8/39 26/6/38
f 41/47/39 57/48/40 58/10/40 42/8/39
f 57/48/40 73/49/41 74/12/41 58/10/40
f 73/49/41 89/50/42 90/14/42 74/12/41
f 89/50/42 102/51/43 103/16/43 90/14/42
f 3/17/44 10/2/45 11/18/46
f 10/2/45 26/6/47 27/20/48 11/18/46
f 26/6/47 42/8/49 43/21/50 27/20/48
f 42/8/49 58/10/51 59/22/52 43/21/50
f 58/10/51 74/12/53 75/23/54 59/22/52
f 74/12/53 90/14/55 91/24/56 75/23/54
f 90/14/55 103/25/57 91/24/56
f 3/26/44 11/18/46 12/27/58
f 11/18/46 27/20/48 28/29/59 12/27/58
f 27/20/48 43/21/50 44/30/60 28/29/59
f 43/21/50 59/22/52 60/31/61 44/30/60
f 59/22/52 75/23/54 76/32/62 60/31/61
f 75/23/54 91/24/56 92/33/63 76/32/62
f 91/24/56 103/34/57 92/33/63
f 3/35/44 12/27/58 13/36/64
f 12/27/58 28/29/59 29/38/65 13/36/64
f 28/29/59 44/30/60 45/39/66 29/38/65
f 44/30/60 60/31/61 61/40/67 45/39/66
f 60/31/61 76/32/62 77/41/68 61/40/67
f 76/32/62 92/33/63 93/42/69 77/41/68
f 92/33/63 103/43/57 93/42/69
f 3/44/44 13/45/64 136/52/70 121/53/71
f 13/45/64 29/46/65 135/54/72 136/52/70
f 29/46/65 45/47/66 134/55/73 135/54/72
f 45/47/66 61/48/67 133/56/74 134/55/73
f 61/48/67 77/49/68 132/57/75 133/56/74
f 77/49/68 93/50/69 131/58/76 132/57/75
f 93/50/69 103/51/57 130/59/77 131/58/76
f 4/17/78 14/2/79 15/18/80
f 14/2/79 30/6/81 31/20/82 15/18/80
f 30/6/81 46/8/83 47/21/84 31/20/82
f 46/8/83 62/10/85 63/22/86 47/21/84
f 62/10/85 78/12/87 79/23/88 63/22/86
f 78/12/87 94/14/89 95/24/90 79/23/88
f 94/14/89 104/25/91 95/24/90
f 4/26/78 15/18/80 16/27/92
f 15/18/80 31/20/82 32/29/93 16/27/92
f 31/20/82 47/21/84 48/30/94 32/29/93
f 47/21/84 63/22/86 64/31/95 48/30/94
f 63/22/86 79/23/88 80/32/96 64/31/95
f 79/23/88 95/24/90 96/33/97 80/32/96
f 95/24/90 104/34/91 96/33/97
f 4/35/78 16/27/92 17/36/98
f 16/27/92 32/29/93 33/38/99 17/36/98
f 32/29/93 48/30/94 49/39/100 33/38/99
f 48/30/94 64/31/95 65/40/101 49/39/100
f 64/31/95 80/32/96 81/41/102 65/40/101
f 80/32/96 96/33/97 97/42/103 81/41/102
f 96/33/97 104/43/91 97/42/103
f 4/44/104 17/45/105 18/2/105 1/3/104
f 17/45/105 33/46/106 34/6/106 18/2/105
f 33/46/106 49/47/107 50/8/107 34/6/106
f 49/47/107 65/48/108 66/10/108 50/8/107
f 65/48/108 81/49/109 82/12/109 66/10/108
f 81/49/109 97/50/110 98/14/110 82/12/109
f 97/50/110 104/51/111 101/16/111 98/14/110
f 1/17/112 18/2/113 19/18/114
f 18/2/113 34/6/115 35/20/116 19/18/114
f 34/6/115 50/8/117 51/21/118 35/20/116
f 50/8/117 66/10/119 67/22/120 51/21/118
f 66/10/119 82/12/121 83/23/122 67/22/120
f 82/12/121 98/14/123 99/24/124 83/23/122
f 98/14/123 101/25/125 99/24/124
f 1/26/112 19/18/114 20/27/126
f 19/18/114 35/20/116 36/29/127 20/27/126
f 35/20/116 51/21/118 52/30/128 36/29/127
f 51/21/118 67/22/120 68/31/129 52/30/128
f 67/22/120 83/23/122 84/32/130 68/31/129
f 83/23/122 99/24/124 100/33/131 84/32/130
f 99/24/124 101/34/125 100/33/131
f 1/35/112 20/27/126 5/36/132
f 20/27/126 36/29/127 21/38/133 5/36/132
f 36/29/127 52/30/128 37/39/134 21/38/133
f 52/30/128 68/31/129 53/40/135 37/39/134
f 68/31/129 84/32/130 69/41/136 53/40/135
f 84/32/130 100/33/131 85/42/137 69/41/136
f 100/33/131 101/43/125 85/42/137
f 130/60/138 103/61/43 102/37/43 129/62/138
f 140/60/139 137/61/139 138/37/139 139/62/139
f 143/63/139 142/44/139 141/51/139 144/64/139
f 106/65/140 1/44/112 5/45/132 107/66/141
f 107/66/141 5/45/132 21/46/133 108/67/142
f 108/67/142 21/46/133 37/47/134 109/68/7
f 109/68/7 37/47/134 53/48/135 110/69/9
f 110/69/9 53/48/135 69/49/136 111/70/143
f 111/70/143 69/49/136 85/50/137 112/71/144
f 112/71/144 85/50/137 101/51/125 113/72/15
f 113/63/138 101/44/111 104/51/111 114/64/138
f 114/73/77 104/16/91 94/14/89 115/74/145
f 115/74/145 94/14/89 78/12/87 116/75/146
f 116/75/146 78/12/87 62/10/85 117/76/74
f 117/76/74 62/10/85 46/8/83 118/77/73
f 118/77/73 46/8/83 30/6/81 119/78/147
f 119/78/147 30/6/81 14/2/79 120/79/148
f 120/79/148 14/2/79 4/3/78 105/80/149
f 121/62/139 105/63/139 106/64/139 122/60/139
f 122/4/4 106/65/140 107/66/141 123/1/1
f 123/1/1 107/66/141 108/67/142 124/5/5
f 124/5/5 108/67/142 109/68/7 125/7/7
f 125/7/7 109/68/7 110/69/9 126/9/9
f 126/9/9 110/69/9 111/70/143 127/11/11
f 127/11/11 111/70/143 112/71/144 128/13/13
f 128/13/13 112/71/144 113/72/15 129/15/15
f 129/62/138 113/63/138 114/64/138 130/60/138
f 130/59/77 114/73/77 115/74/145 131/58/76
f 131/58/76 115/74/145 116/75/146 132/57/75
f 132/57/75 116/75/146 117/76/74 133/56/74
f 133/56/74 117/76/74 118/77/73 134/55/73
f 134/55/73 118/77/73 119/78/147 135/54/72
f 135/54/72 119/78/147 120/79/148 136/52/70
f 136/52/70 120/79/148 105/80/149 121/53/71
f 122/60/150 140/60/150 139/62/150 121/62/150
f 121/62/71 139/62/151 138/37/151 3/37/44
f 3/37/152 138/37/152 137/61/152 2/61/152
f 2/61/3 137/61/153 140/60/153 122/60/4
f 105/63/154 143/63/154 144/64/154 106/64/154
f 106/64/140 144/64/155 141/51/155 1/51/112
f 1/51/156 141/51/156 142/44/156 4/44/156
f 4/44/78 142/44/157 143/63/157 105/63/149

