# This file uses centimeters as units for non-parametric coordinates.

mtllib Section 1 Wall Right.mtl
g default
v -105.999923 123.001822 -334.629121
v -209.389923 123.001822 -322.218189
v -307.624063 123.001822 -301.873231
v -398.283482 123.001822 -274.095225
v -479.135833 123.001822 -239.568033
v -548.190250 123.001822 -199.141874
v -603.746462 123.001822 -153.812165
v -644.436378 123.001822 -104.695103
v -669.258041 123.001822 -53.000107
v 669.257841 123.001822 -52.999986
v 644.436111 123.001822 -104.694961
v 603.746195 123.001822 -153.811998
v 548.190150 123.001822 -199.141707
v 479.135766 123.001822 -239.567800
v 398.283448 123.001822 -274.095008
v 307.624063 123.001822 -301.873064
v 209.389956 123.001822 -322.217956
v 106.000006 123.001822 -334.628887
v 0.000000 123.001822 -338.800011
v -105.999923 193.001827 -334.629121
v -209.389923 193.001827 -322.218189
v -307.624063 193.001827 -301.873231
v -398.283482 193.001827 -274.095225
v -479.135833 193.001827 -239.568033
v -548.190250 193.001827 -199.141874
v -603.746462 193.001827 -153.812165
v -644.436378 193.001827 -104.695103
v -669.258041 193.001827 -53.000107
v 669.257841 193.001827 -52.999986
v 644.436111 193.001827 -104.694961
v 603.746195 193.001827 -153.811998
v 548.190150 193.001827 -199.141707
v 479.135766 193.001827 -239.567800
v 398.283448 193.001827 -274.095008
v 307.624063 193.001827 -301.873064
v 209.389956 193.001827 -322.217956
v 106.000006 193.001827 -334.628887
v 0.000000 193.001827 -338.800011
v -121.659544 123.001822 -384.068470
v -240.325961 123.001822 -369.822750
v -240.325961 193.001827 -369.822750
v -121.659544 193.001827 -384.068470
v -353.072300 123.001822 -346.471682
v -353.072300 193.001827 -346.471682
v -457.125416 123.001822 -314.589977
v -457.125416 193.001827 -314.589977
v -549.923701 123.001822 -274.961884
v -549.923701 193.001827 -274.961884
v -629.179688 123.001822 -228.562708
v -629.179688 193.001827 -228.562708
v -692.943897 123.001822 -176.536801
v -692.943897 193.001827 -176.536801
v -739.644699 123.001822 -120.163064
v -739.644699 193.001827 -120.163064
v -768.134804 123.001822 -60.830506
v -768.134804 193.001827 -60.830506
v 768.134336 123.001822 -60.830072
v 768.134336 193.001827 -60.830072
v 739.645500 123.001822 -120.162513
v 739.645500 193.001827 -120.162513
v 692.943764 123.001822 -176.536167
v 692.943764 193.001827 -176.536167
v 629.179888 123.001822 -228.562808
v 629.179888 193.001827 -228.562808
v 549.923334 123.001822 -274.961116
v 549.923334 193.001827 -274.961116
v 457.126184 123.001822 -314.589944
v 457.126184 193.001827 -314.589944
v 353.072867 123.001822 -346.471648
v 353.072867 193.001827 -346.471648
v 240.325294 123.001822 -369.822283
v 240.325294 193.001827 -369.822283
v 121.660345 123.001822 -384.066868
v 121.660345 193.001827 -384.066868
v -0.000534 123.001822 -388.852892
v -0.000534 193.001827 -388.852892
vt 0.375000 0.312500
vt 0.381250 0.312500
vt 0.381250 0.688440
vt 0.375000 0.688440
vt 0.387500 0.312500
vt 0.387500 0.688440
vt 0.393750 0.312500
vt 0.393750 0.688440
vt 0.400000 0.312500
vt 0.400000 0.688440
vt 0.406250 0.312500
vt 0.406250 0.688440
vt 0.412500 0.312500
vt 0.412500 0.688440
vt 0.418750 0.312500
vt 0.418750 0.688440
vt 0.425000 0.312500
vt 0.425000 0.688440
vt 0.562500 0.312500
vt 0.568750 0.312500
vt 0.568750 0.688440
vt 0.562500 0.688440
vt 0.575000 0.312500
vt 0.575000 0.688440
vt 0.581250 0.312500
vt 0.581250 0.688440
vt 0.587500 0.312500
vt 0.587500 0.688440
vt 0.593750 0.312500
vt 0.593750 0.688440
vt 0.600000 0.312500
vt 0.600000 0.688440
vt 0.606250 0.312500
vt 0.606250 0.688440
vt 0.612500 0.312500
vt 0.612500 0.688440
vt 0.618750 0.312500
vt 0.618750 0.688440
vt 0.625000 0.312500
vt 0.625000 0.688440
vt 0.375000 0.312500
vt 0.375000 0.688440
vt 0.381250 0.688440
vt 0.381250 0.312500
vt 0.387500 0.688440
vt 0.387500 0.312500
vt 0.393750 0.688440
vt 0.393750 0.312500
vt 0.400000 0.688440
vt 0.400000 0.312500
vt 0.406250 0.688440
vt 0.406250 0.312500
vt 0.412500 0.688440
vt 0.412500 0.312500
vt 0.418750 0.688440
vt 0.418750 0.312500
vt 0.425000 0.688440
vt 0.425000 0.312500
vt 0.562500 0.312500
vt 0.562500 0.688440
vt 0.568750 0.688440
vt 0.568750 0.312500
vt 0.575000 0.688440
vt 0.575000 0.312500
vt 0.581250 0.688440
vt 0.581250 0.312500
vt 0.587500 0.688440
vt 0.587500 0.312500
vt 0.593750 0.688440
vt 0.593750 0.312500
vt 0.600000 0.688440
vt 0.600000 0.312500
vt 0.606250 0.688440
vt 0.606250 0.312500
vt 0.612500 0.688440
vt 0.612500 0.312500
vt 0.618750 0.688440
vt 0.618750 0.312500
vt 0.625000 0.688440
vt 0.625000 0.312500
vt 0.375000 0.312500
vt 0.381250 0.312500
vt 0.381250 0.688440
vt 0.375000 0.688440
vt 0.387500 0.312500
vt 0.387500 0.688440
vt 0.393750 0.312500
vt 0.393750 0.688440
vt 0.400000 0.312500
vt 0.400000 0.688440
vt 0.406250 0.312500
vt 0.406250 0.688440
vt 0.412500 0.312500
vt 0.412500 0.688440
vt 0.418750 0.312500
vt 0.418750 0.688440
vt 0.425000 0.312500
vt 0.425000 0.688440
vt 0.562500 0.312500
vt 0.568750 0.312500
vt 0.575000 0.312500
vt 0.575000 0.688440
vt 0.568750 0.688440
vt 0.581250 0.312500
vt 0.581250 0.688440
vt 0.587500 0.312500
vt 0.587500 0.688440
vt 0.593750 0.312500
vt 0.593750 0.688440
vt 0.600000 0.312500
vt 0.600000 0.688440
vt 0.606250 0.312500
vt 0.606250 0.688440
vt 0.612500 0.312500
vt 0.612500 0.688440
vt 0.618750 0.312500
vt 0.618750 0.688440
vt 0.625000 0.312500
vt 0.625000 0.688440
vn -0.078938 0.000000 -0.996880
vn -0.160364 0.000000 -0.987058
vn -0.160364 0.000000 -0.987058
vn -0.078938 0.000000 -0.996880
vn -0.246879 0.000000 -0.969046
vn -0.246879 0.000000 -0.969046
vn -0.341437 0.000000 -0.939905
vn -0.341437 0.000000 -0.939905
vn -0.447214 0.000000 -0.894427
vn -0.447214 0.000000 -0.894427
vn -0.566915 0.000000 -0.823776
vn -0.566915 0.000000 -0.823776
vn -0.700403 0.000000 -0.713748
vn -0.700403 0.000000 -0.713748
vn -0.838504 0.000000 -0.544895
vn -0.838504 0.000000 -0.544895
vn -0.901461 0.000000 -0.432860
vn -0.901461 0.000000 -0.432860
vn 0.901468 0.000000 -0.432846
vn 0.838504 0.000000 -0.544895
vn 0.838504 0.000000 -0.544895
vn 0.901468 0.000000 -0.432846
vn 0.700403 0.000000 -0.713748
vn 0.700403 0.000000 -0.713748
vn 0.566914 0.000000 -0.823777
vn 0.566914 0.000000 -0.823777
vn 0.447215 0.000000 -0.894427
vn 0.447215 0.000000 -0.894427
vn 0.341442 0.000000 -0.939903
vn 0.341442 0.000000 -0.939903
vn 0.246875 0.000000 -0.969047
vn 0.246875 0.000000 -0.969047
vn 0.160357 0.000000 -0.987059
vn 0.160357 0.000000 -0.987059
vn 0.078940 0.000000 -0.996879
vn 0.078940 0.000000 -0.996879
vn 0.000007 0.000000 -1.000000
vn 0.000007 0.000000 -1.000000
vn 0.078944 0.000000 0.996879
vn 0.078944 0.000000 0.996879
vn 0.160358 0.000000 0.987059
vn 0.160358 0.000000 0.987059
vn 0.246877 0.000000 0.969047
vn 0.246877 0.000000 0.969047
vn 0.341439 0.000000 0.939904
vn 0.341439 0.000000 0.939904
vn 0.447213 0.000000 0.894427
vn 0.447213 0.000000 0.894427
vn 0.566915 0.000000 0.823776
vn 0.566915 0.000000 0.823776
vn 0.700404 0.000000 0.713747
vn 0.700404 0.000000 0.713747
vn 0.838506 0.000000 0.544893
vn 0.838506 0.000000 0.544893
vn 0.901468 0.000000 0.432845
vn 0.901468 0.000000 0.432845
vn -0.901468 0.000000 0.432846
vn -0.901468 0.000000 0.432846
vn -0.838505 0.000000 0.544894
vn -0.838505 0.000000 0.544894
vn -0.700404 0.000000 0.713747
vn -0.700404 0.000000 0.713747
vn -0.566915 0.000000 0.823776
vn -0.566915 0.000000 0.823776
vn -0.447213 0.000000 0.894427
vn -0.447213 0.000000 0.894427
vn -0.341440 0.000000 0.939904
vn -0.341440 0.000000 0.939904
vn -0.246877 0.000000 0.969047
vn -0.246877 0.000000 0.969047
vn -0.160358 0.000000 0.987059
vn -0.160358 0.000000 0.987059
vn -0.078945 0.000000 0.996879
vn -0.078945 0.000000 0.996879
vn -0.000001 0.000000 1.000000
vn -0.000001 0.000000 1.000000
vn 0.000000 -1.000000 0.000000
vn -0.000000 -1.000000 -0.000000
vn -0.000000 -1.000000 -0.000000
vn 0.000000 -1.000000 0.000000
vn -0.000000 1.000000 -0.000000
vn 0.000000 1.000000 0.000000
vn 0.000000 1.000000 0.000000
vn -0.000000 1.000000 -0.000000
vn -0.000000 -1.000000 -0.000000
vn -0.000000 -1.000000 -0.000000
vn -0.000000 1.000000 -0.000000
vn -0.000000 1.000000 -0.000000
vn 0.000000 -1.000000 0.000000
vn 0.000000 -1.000000 0.000000
vn -0.000000 1.000000 -0.000000
vn -0.000000 1.000000 -0.000000
vn 0.000000 -1.000000 0.000000
vn 0.000000 -1.000000 0.000000
vn -0.000000 1.000000 -0.000000
vn -0.000000 1.000000 -0.000000
vn -0.000000 -1.000000 -0.000000
vn -0.000000 -1.000000 -0.000000
vn 0.000000 1.000000 0.000000
vn 0.000000 1.000000 0.000000
vn -0.000000 -1.000000 -0.000000
vn -0.000000 -1.000000 -0.000000
vn 0.000000 1.000000 0.000000
vn 0.000000 1.000000 0.000000
vn 0.000000 -1.000000 0.000000
vn 0.000000 -1.000000 0.000000
vn 0.000000 1.000000 0.000000
vn 0.000000 1.000000 0.000000
vn 0.000000 -1.000000 0.000000
vn 0.000000 -1.000000 0.000000
vn 0.000000 1.000000 0.000000
vn 0.000000 1.000000 0.000000
vn 0.000000 -1.000000 0.000000
vn 0.000000 -1.000000 0.000000
vn 0.000000 -1.000000 0.000000
vn 0.000000 -1.000000 0.000000
vn 0.000000 -1.000000 0.000000
vn 0.000000 -1.000000 0.000000
vn -0.000000 1.000000 -0.000000
vn -0.000000 1.000000 -0.000000
vn -0.000000 1.000000 -0.000000
vn -0.000000 1.000000 -0.000000
vn 0.000000 -1.000000 0.000000
vn 0.000000 -1.000000 0.000000
vn 0.000000 1.000000 0.000000
vn 0.000000 1.000000 0.000000
vn 0.000000 -1.000000 0.000000
vn 0.000000 -1.000000 0.000000
vn 0.000000 1.000000 0.000000
vn 0.000000 1.000000 0.000000
vn -0.000000 -1.000000 -0.000000
vn -0.000000 -1.000000 -0.000000
vn 0.000000 1.000000 0.000000
vn 0.000000 1.000000 0.000000
vn 0.000000 -1.000000 0.000000
vn -0.000000 -1.000000 -0.000000
vn 0.000000 1.000000 0.000000
vn 0.000000 1.000000 0.000000
vn 0.000000 -1.000000 0.000000
vn 0.000000 -1.000000 0.000000
vn 0.000000 1.000000 0.000000
vn 0.000000 1.000000 0.000000
vn 0.000000 -1.000000 0.000000
vn 0.000000 -1.000000 0.000000
vn 0.000000 1.000000 0.000000
vn 0.000000 1.000000 0.000000
vn 0.000000 -1.000000 0.000000
vn 0.000000 -1.000000 0.000000
vn -0.000000 1.000000 -0.000000
vn 0.000000 1.000000 0.000000
vn 0.078943 0.000000 0.996879
vn 0.078943 0.000000 0.996879
vn 0.078943 0.000000 0.996879
vn 0.078943 0.000000 0.996879
vn -0.078946 0.000000 0.996879
vn -0.078946 0.000000 0.996879
vn -0.078946 0.000000 0.996879
vn -0.078946 0.000000 0.996879
vn 0.000000 1.000000 0.000000
vn 0.000000 1.000000 0.000000
vn 0.000000 1.000000 0.000000
vn 0.000000 1.000000 0.000000
s 1
g polySurface1 pCylinder1
usemtl initialShadingGroup
f 39/1/1 40/2/2 41/3/3 42/4/4
f 40/2/2 43/5/5 44/6/6 41/3/3
f 43/5/5 45/7/7 46/8/8 44/6/6
f 45/7/7 47/9/9 48/10/10 46/8/8
f 47/9/9 49/11/11 50/12/12 48/10/10
f 49/11/11 51/13/13 52/14/14 50/12/12
f 51/13/13 53/15/15 54/16/16 52/14/14
f 53/15/15 55/17/17 56/18/18 54/16/16
f 57/19/19 59/20/20 60/21/21 58/22/22
f 59/20/20 61/23/23 62/24/24 60/21/21
f 61/23/23 63/25/25 64/26/26 62/24/24
f 63/25/25 65/27/27 66/28/28 64/26/26
f 65/27/27 67/29/29 68/30/30 66/28/28
f 67/29/29 69/31/31 70/32/32 68/30/30
f 69/31/31 71/33/33 72/34/34 70/32/32
f 71/33/33 73/35/35 74/36/36 72/34/34
f 73/35/35 75/37/37 76/38/38 74/36/36
f 75/37/37 39/39/1 42/40/4 76/38/38
s 3
f 1/41/39 20/42/40 21/43/41 2/44/42
f 2/44/42 21/43/41 22/45/43 3/46/44
f 3/46/44 22/45/43 23/47/45 4/48/46
f 4/48/46 23/47/45 24/49/47 5/50/48
f 5/50/48 24/49/47 25/51/49 6/52/50
f 6/52/50 25/51/49 26/53/51 7/54/52
f 7/54/52 26/53/51 27/55/53 8/56/54
f 8/56/54 27/55/53 28/57/55 9/58/56
f 10/59/57 29/60/58 30/61/59 11/62/60
f 11/62/60 30/61/59 31/63/61 12/64/62
f 12/64/62 31/63/61 32/65/63 13/66/64
f 13/66/64 32/65/63 33/67/65 14/68/66
f 14/68/66 33/67/65 34/69/67 15/70/68
f 15/70/68 34/69/67 35/71/69 16/72/70
f 16/72/70 35/71/69 36/73/71 17/74/72
f 17/74/72 36/73/71 37/75/73 18/76/74
f 18/76/74 37/75/73 38/77/75 19/78/76
f 19/78/76 38/77/75 20/79/40 1/80/39
s 5
f 1/81/77 2/82/78 40/2/79 39/1/80
s 6
f 21/83/81 20/84/82 42/4/83 41/3/84
s 5
f 2/82/78 3/85/85 43/5/86 40/2/79
s 6
f 22/86/87 21/83/81 41/3/84 44/6/88
s 5
f 3/85/85 4/87/89 45/7/90 43/5/86
s 6
f 23/88/91 22/86/87 44/6/88 46/8/92
s 5
f 4/87/89 5/89/93 47/9/94 45/7/90
s 6
f 24/90/95 23/88/91 46/8/92 48/10/96
s 5
f 5/89/93 6/91/97 49/11/98 47/9/94
s 6
f 25/92/99 24/90/95 48/10/96 50/12/100
s 5
f 6/91/97 7/93/101 51/13/102 49/11/98
s 6
f 26/94/103 25/92/99 50/12/100 52/14/104
s 5
f 7/93/101 8/95/105 53/15/106 51/13/102
s 6
f 27/96/107 26/94/103 52/14/104 54/16/108
s 5
f 8/95/105 9/97/109 55/17/110 53/15/106
s 6
f 28/98/111 27/96/107 54/16/108 56/18/112
s 5
f 10/99/113 11/100/114 59/20/115 57/19/116
f 11/100/114 12/101/117 61/23/118 59/20/115
s 6
f 31/102/119 30/103/120 60/21/121 62/24/122
s 5
f 12/101/117 13/104/123 63/25/124 61/23/118
s 6
f 32/105/125 31/102/119 62/24/122 64/26/126
s 5
f 13/104/123 14/106/127 65/27/128 63/25/124
s 6
f 33/107/129 32/105/125 64/26/126 66/28/130
s 5
f 14/106/127 15/108/131 67/29/132 65/27/128
s 6
f 34/109/133 33/107/129 66/28/130 68/30/134
s 5
f 15/108/131 16/110/135 69/31/136 67/29/132
s 6
f 35/111/137 34/109/133 68/30/134 70/32/138
s 5
f 16/110/135 17/112/139 71/33/140 69/31/136
s 6
f 36/113/141 35/111/137 70/32/138 72/34/142
s 5
f 17/112/139 18/114/143 73/35/144 71/33/140
s 6
f 37/115/145 36/113/141 72/34/142 74/36/146
s 5
f 18/114/143 19/116/147 75/37/148 73/35/144
s 6
f 38/117/149 37/115/145 74/36/146 76/38/150
s 5
f 19/116/147 1/118/77 39/39/80 75/37/148
s 6
f 20/119/82 38/117/149 76/38/150 42/40/83
s off
f 29/60/151 10/99/152 57/19/153 58/22/154
f 28/98/155 56/18/156 55/17/157 9/58/158
f 30/61/159 29/60/160 58/22/161 60/21/162
