# This file uses centimeters as units for non-parametric coordinates.

mtllib WallRoadMesh.mtl
g default
v -3.500000 -0.500000 2.500000
v 3.500000 -0.500000 2.500000
v -3.500000 0.500000 2.500000
v 3.500000 0.500000 2.500000
v -3.500000 0.500000 -2.500000
v 3.500000 0.500000 -2.500000
v -3.500000 -0.500000 -2.500000
v 3.500000 -0.500000 -2.500000
v -3.500000 -0.500000 3.555449
v 3.500000 -0.500000 3.555449
v 3.500000 0.500000 3.555449
v -3.500000 0.500000 3.555449
v -3.500000 0.500000 -3.555449
v 3.500000 0.500000 -3.555449
v 3.500000 -0.500000 -3.555449
v -3.500000 -0.500000 -3.555449
v -3.500000 2.458281 2.500000
v 3.500000 2.458281 2.500000
v -3.500000 2.458281 3.555449
v 3.500000 2.458281 3.555449
v -3.500000 2.458281 -2.500000
v 3.500000 2.458281 -2.500000
v 3.500000 2.458281 -3.555449
v -3.500000 2.458281 -3.555449
vt 0.375000 0.000000
vt 0.625000 0.000000
vt 0.625000 0.250000
vt 0.375000 0.250000
vt 0.375000 0.250000
vt 0.625000 0.250000
vt 0.625000 0.500000
vt 0.375000 0.500000
vt 0.375000 0.500000
vt 0.625000 0.500000
vt 0.625000 0.750000
vt 0.375000 0.750000
vt 0.375000 0.750000
vt 0.625000 0.750000
vt 0.625000 1.000000
vt 0.375000 1.000000
vt 0.625000 0.000000
vt 0.875000 0.000000
vt 0.875000 0.250000
vt 0.125000 0.000000
vt 0.375000 0.000000
vt 0.125000 0.250000
vt 0.625000 0.250000
vt 0.375000 0.250000
vt 0.375000 0.250000
vt 0.625000 0.250000
vt 0.375000 0.500000
vt 0.625000 0.500000
vt 0.625000 0.500000
vt 0.375000 0.500000
vn 0.000000 0.000000 1.000000
vn 0.000000 0.000000 1.000000
vn 0.000000 0.000000 1.000000
vn 0.000000 0.000000 1.000000
vn 0.000000 1.000000 0.000000
vn 0.000000 1.000000 0.000000
vn 0.000000 1.000000 0.000000
vn 0.000000 1.000000 0.000000
vn 0.000000 0.000000 -1.000000
vn 0.000000 0.000000 -1.000000
vn 0.000000 0.000000 -1.000000
vn 0.000000 0.000000 -1.000000
vn 0.000000 -1.000000 0.000000
vn 0.000000 -1.000000 0.000000
vn 0.000000 -1.000000 0.000000
vn 0.000000 -1.000000 0.000000
vn 1.000000 0.000000 0.000000
vn 1.000000 0.000000 0.000000
vn 1.000000 0.000000 0.000000
vn 1.000000 0.000000 0.000000
vn -1.000000 0.000000 0.000000
vn -1.000000 0.000000 0.000000
vn -1.000000 0.000000 0.000000
vn -1.000000 0.000000 0.000000
vn 0.000000 -1.000000 0.000000
vn 0.000000 -1.000000 0.000000
vn 0.000000 -1.000000 0.000000
vn 0.000000 -1.000000 0.000000
vn 1.000000 0.000000 0.000000
vn 1.000000 0.000000 0.000000
vn 1.000000 0.000000 0.000000
vn 1.000000 0.000000 0.000000
vn 0.000000 1.000000 0.000000
vn 0.000000 1.000000 0.000000
vn 0.000000 1.000000 0.000000
vn 0.000000 1.000000 0.000000
vn -1.000000 0.000000 0.000000
vn -1.000000 0.000000 0.000000
vn -1.000000 0.000000 0.000000
vn -1.000000 0.000000 0.000000
vn 0.000000 1.000000 0.000000
vn 0.000000 1.000000 0.000000
vn 0.000000 1.000000 0.000000
vn 0.000000 1.000000 0.000000
vn 1.000000 0.000000 0.000000
vn 1.000000 0.000000 0.000000
vn 1.000000 0.000000 0.000000
vn 1.000000 0.000000 0.000000
vn 0.000000 -1.000000 0.000000
vn 0.000000 -1.000000 0.000000
vn 0.000000 -1.000000 0.000000
vn 0.000000 -1.000000 0.000000
vn -1.000000 0.000000 0.000000
vn -1.000000 0.000000 0.000000
vn -1.000000 0.000000 0.000000
vn -1.000000 0.000000 0.000000
vn 0.000000 0.000000 -1.000000
vn 0.000000 0.000000 -1.000000
vn 0.000000 0.000000 -1.000000
vn 0.000000 0.000000 -1.000000
vn -1.000000 0.000000 0.000000
vn -1.000000 0.000000 0.000000
vn -1.000000 0.000000 0.000000
vn -1.000000 0.000000 0.000000
vn 0.000000 0.000000 1.000000
vn 0.000000 0.000000 1.000000
vn 0.000000 0.000000 1.000000
vn 0.000000 0.000000 1.000000
vn 1.000000 0.000000 0.000000
vn 1.000000 0.000000 0.000000
vn 1.000000 0.000000 0.000000
vn 1.000000 0.000000 0.000000
vn 0.000000 0.000000 1.000000
vn 0.000000 0.000000 1.000000
vn 0.000000 0.000000 1.000000
vn 0.000000 0.000000 1.000000
vn 1.000000 0.000000 0.000000
vn 1.000000 0.000000 0.000000
vn 1.000000 0.000000 0.000000
vn 1.000000 0.000000 0.000000
vn 0.000000 0.000000 -1.000000
vn 0.000000 0.000000 -1.000000
vn 0.000000 0.000000 -1.000000
vn 0.000000 0.000000 -1.000000
vn -1.000000 0.000000 0.000000
vn -1.000000 0.000000 0.000000
vn -1.000000 0.000000 0.000000
vn -1.000000 0.000000 0.000000
s off
g WallRoadPieceMesh:pCube1
usemtl WallRoadPieceMesh:initialShadingGroup
f 9/1/1 10/2/2 11/3/3 12/4/4
f 3/5/5 4/6/6 6/7/7 5/8/8
f 13/9/9 14/10/10 15/11/11 16/12/12
f 7/13/13 8/14/14 2/15/15 1/16/16
f 2/17/17 8/18/18 6/19/19 4/6/20
f 7/20/21 1/21/22 3/5/23 5/22/24
f 1/21/25 2/17/26 10/2/27 9/1/28
f 2/17/29 4/6/30 11/3/31 10/2/32
f 18/23/33 17/24/34 19/25/35 20/26/36
f 3/5/37 1/21/38 9/1/39 12/4/40
f 21/27/41 22/28/42 23/29/43 24/30/44
f 6/7/45 8/14/46 15/11/47 14/10/48
f 8/14/49 7/13/50 16/12/51 15/11/52
f 7/13/53 5/8/54 13/9/55 16/12/56
f 4/6/57 3/5/58 17/24/59 18/23/60
f 3/5/61 12/4/62 19/25/63 17/24/64
f 12/4/65 11/3/66 20/26/67 19/25/68
f 11/3/69 4/6/70 18/23/71 20/26/72
f 5/8/73 6/7/74 22/28/75 21/27/76
f 6/7/77 14/10/78 23/29/79 22/28/80
f 14/10/81 13/9/82 24/30/83 23/29/84
f 13/9/85 5/8/86 21/27/87 24/30/88
