# This file uses centimeters as units for non-parametric coordinates.

mtllib Diamond.mtl
g default
v 0.000000 -10.773384 0.000000
v 0.000000 -0.781901 0.000000
v 2.806305 -5.777642 -0.911824
v 2.387185 -5.777642 -1.734392
v 1.734392 -5.777642 -2.387185
v 0.911824 -5.777642 -2.806304
v 0.000000 -5.777642 -2.950723
v -0.911824 -5.777642 -2.806304
v -1.734391 -5.777642 -2.387185
v -2.387185 -5.777642 -1.734391
v -2.806304 -5.777642 -0.911823
v -2.950722 -5.777642 0.000000
v -2.806304 -5.777642 0.911823
v -2.387184 -5.777642 1.734391
v -1.734391 -5.777642 2.387184
v -0.911823 -5.777642 2.806303
v -0.000000 -5.777642 2.950722
v 0.911823 -5.777642 2.806303
v 1.734391 -5.777642 2.387184
v 2.387184 -5.777642 1.734391
v 2.806303 -5.777642 0.911823
v 2.950721 -5.777642 0.000000
v 2.806305 -5.713710 -0.911824
v 2.950721 -5.713710 0.000000
v 2.806303 -5.713710 0.911823
v 2.387184 -5.713710 1.734391
v 1.734391 -5.713710 2.387184
v 0.911823 -5.713710 2.806303
v -0.000000 -5.713710 2.950722
v -0.911823 -5.713710 2.806304
v -1.734391 -5.713710 2.387184
v -2.387184 -5.713710 1.734391
v -2.806304 -5.713710 0.911823
v -2.950722 -5.713710 0.000000
v -2.806304 -5.713710 -0.911823
v -2.387185 -5.713710 -1.734391
v -1.734391 -5.713710 -2.387185
v -0.911824 -5.713710 -2.806304
v 0.000000 -5.713710 -2.950723
v 0.911824 -5.713710 -2.806304
v 1.734392 -5.713710 -2.387185
v 2.387185 -5.713710 -1.734392
v 2.806305 -5.841574 -0.911824
v 2.387185 -5.841574 -1.734392
v 1.734392 -5.841574 -2.387185
v 0.911824 -5.841574 -2.806304
v 0.000000 -5.841574 -2.950723
v -0.911824 -5.841574 -2.806304
v -1.734391 -5.841574 -2.387185
v -2.387185 -5.841574 -1.734391
v -2.806304 -5.841574 -0.911823
v -2.950722 -5.841574 0.000000
v -2.806304 -5.841574 0.911823
v -2.387184 -5.841574 1.734391
v -1.734391 -5.841574 2.387184
v -0.911823 -5.841574 2.806303
v -0.000000 -5.841574 2.950722
v 0.911823 -5.841574 2.806303
v 1.734391 -5.841574 2.387184
v 2.387184 -5.841574 1.734391
v 2.806303 -5.841574 0.911823
v 2.950721 -5.841574 0.000000
vt 0.458789 0.500001
vt 0.417564 0.499995
vt 0.417572 0.497067
vt 0.458895 0.497098
vt 0.375766 0.499995
vt 0.375776 0.497025
vt 0.333130 0.499994
vt 0.333143 0.496967
vt 0.289137 0.499994
vt 0.289152 0.496898
vt 0.243052 0.499994
vt 0.243070 0.496820
vt 0.193869 0.499997
vt 0.193887 0.496736
vt 0.140239 0.500002
vt 0.140257 0.496632
vt 0.080476 0.500008
vt 0.080513 0.496122
vt 0.014298 0.499985
vt 0.014427 0.488329
vt 0.919532 0.499990
vt 0.919411 0.496107
vt 0.859770 0.499996
vt 0.859728 0.496626
vt 0.806140 0.500001
vt 0.806115 0.496741
vt 0.756957 0.500004
vt 0.756938 0.496830
vt 0.710873 0.500005
vt 0.710858 0.496909
vt 0.666880 0.500004
vt 0.666867 0.496977
vt 0.624244 0.500003
vt 0.624235 0.497033
vt 0.582446 0.500002
vt 0.582440 0.497074
vt 0.541120 0.500002
vt 0.541117 0.497097
vt 0.500110 0.499996
vt 0.500005 0.497108
vt 0.458894 0.502897
vt 0.417571 0.502926
vt 0.375775 0.502966
vt 0.333143 0.503021
vt 0.289152 0.503089
vt 0.243071 0.503169
vt 0.193894 0.503257
vt 0.140280 0.503372
vt 0.080597 0.503891
vt 0.985581 0.511669
vt 0.919495 0.503876
vt 0.859752 0.503366
vt 0.806122 0.503262
vt 0.756939 0.503179
vt 0.710857 0.503101
vt 0.666867 0.503031
vt 0.624234 0.502973
vt 0.582439 0.502930
vt 0.541116 0.502904
vt 0.500004 0.502890
vt 0.500003 0.132540
vt 0.500004 0.867458
vt 0.014354 0.511644
vt 0.985711 0.500013
vt 0.985654 0.488355
vn 0.951057 0.000000 -0.309016
vn 0.809017 0.000000 -0.587785
vn 0.699199 0.503050 -0.507998
vn 0.821958 0.503050 -0.267069
vn 0.587785 0.000000 -0.809017
vn 0.507998 0.503050 -0.699199
vn 0.309017 0.000000 -0.951057
vn 0.267070 0.503050 -0.821958
vn -0.000000 -0.000000 -1.000000
vn 0.000000 0.503050 -0.864258
vn -0.309017 -0.000000 -0.951056
vn -0.267070 0.503050 -0.821958
vn -0.587786 -0.000000 -0.809017
vn -0.507998 0.503050 -0.699199
vn -0.809017 0.000000 -0.587785
vn -0.699199 0.503050 -0.507998
vn -0.951056 -0.000001 -0.309017
vn -0.821958 0.503050 -0.267070
vn -1.000000 -0.000002 0.000000
vn -0.864258 0.503050 0.000000
vn -0.951056 -0.000001 0.309017
vn -0.821958 0.503050 0.267070
vn -0.809017 0.000000 0.587785
vn -0.699199 0.503050 0.507998
vn -0.587785 -0.000001 0.809017
vn -0.507998 0.503050 0.699199
vn -0.309017 -0.000001 0.951056
vn -0.267070 0.503050 0.821958
vn 0.000000 -0.000001 1.000000
vn 0.000000 0.503050 0.864258
vn 0.309017 0.000000 0.951056
vn 0.267070 0.503050 0.821958
vn 0.587785 0.000000 0.809017
vn 0.507998 0.503050 0.699199
vn 0.809017 0.000000 0.587785
vn 0.699199 0.503050 0.507998
vn 0.951056 0.000000 0.309017
vn 0.821958 0.503050 0.267070
vn 1.000000 0.000000 0.000001
vn 0.864258 0.503050 0.000001
vn 0.821958 -0.503050 -0.267070
vn 0.699199 -0.503050 -0.507998
vn 0.507998 -0.503050 -0.699199
vn 0.267070 -0.503050 -0.821958
vn -0.000000 -0.503050 -0.864258
vn -0.267070 -0.503050 -0.821958
vn -0.507998 -0.503050 -0.699199
vn -0.699199 -0.503050 -0.507998
vn -0.821958 -0.503050 -0.267070
vn -0.864258 -0.503050 -0.000000
vn -0.821958 -0.503050 0.267070
vn -0.699199 -0.503050 0.507998
vn -0.507998 -0.503050 0.699199
vn -0.267070 -0.503049 0.821958
vn 0.000000 -0.503050 0.864258
vn 0.267070 -0.503050 0.821958
vn 0.507998 -0.503050 0.699199
vn 0.699199 -0.503050 0.507998
vn 0.821958 -0.503050 0.267070
vn 0.864258 -0.503050 0.000001
vn -0.000000 1.000000 -0.000000
vn 0.000000 -1.000000 -0.000000
s 1
g pCylinder1
usemtl initialShadingGroup
f 3/1/1 4/2/2 42/3/3 23/4/4
f 4/2/2 5/5/5 41/6/6 42/3/3
f 5/5/5 6/7/7 40/8/8 41/6/6
f 6/7/7 7/9/9 39/10/10 40/8/8
f 7/9/9 8/11/11 38/12/12 39/10/10
f 8/11/11 9/13/13 37/14/14 38/12/12
f 9/13/13 10/15/15 36/16/16 37/14/14
f 10/15/15 11/17/17 35/18/18 36/16/16
f 11/17/17 12/19/19 34/20/20 35/18/18
f 12/64/19 13/21/21 33/22/22 34/65/20
f 13/21/21 14/23/23 32/24/24 33/22/22
f 14/23/23 15/25/25 31/26/26 32/24/24
f 15/25/25 16/27/27 30/28/28 31/26/26
f 16/27/27 17/29/29 29/30/30 30/28/28
f 17/29/29 18/31/31 28/32/32 29/30/30
f 18/31/31 19/33/33 27/34/34 28/32/32
f 19/33/33 20/35/35 26/36/36 27/34/34
f 20/35/35 21/37/37 25/38/38 26/36/36
f 21/37/37 22/39/39 24/40/40 25/38/38
f 22/39/39 3/1/1 23/4/4 24/40/40
f 43/41/41 44/42/42 4/2/2 3/1/1
f 44/42/42 45/43/43 5/5/5 4/2/2
f 45/43/43 46/44/44 6/7/7 5/5/5
f 46/44/44 47/45/45 7/9/9 6/7/7
f 47/45/45 48/46/46 8/11/11 7/9/9
f 48/46/46 49/47/47 9/13/13 8/11/11
f 49/47/47 50/48/48 10/15/15 9/13/13
f 50/48/48 51/49/49 11/17/17 10/15/15
f 51/49/49 52/63/50 12/19/19 11/17/17
f 52/50/50 53/51/51 13/21/21 12/64/19
f 53/51/51 54/52/52 14/23/23 13/21/21
f 54/52/52 55/53/53 15/25/25 14/23/23
f 55/53/53 56/54/54 16/27/27 15/25/25
f 56/54/54 57/55/55 17/29/29 16/27/27
f 57/55/55 58/56/56 18/31/31 17/29/29
f 58/56/56 59/57/57 19/33/33 18/31/31
f 59/57/57 60/58/58 20/35/35 19/33/33
f 60/58/58 61/59/59 21/37/37 20/35/35
f 61/59/59 62/60/60 22/39/39 21/37/37
f 62/60/60 43/41/41 3/1/1 22/39/39
f 24/40/40 23/4/4 2/61/61
f 25/38/38 24/40/40 2/61/61
f 26/36/36 25/38/38 2/61/61
f 27/34/34 26/36/36 2/61/61
f 28/32/32 27/34/34 2/61/61
f 29/30/30 28/32/32 2/61/61
f 30/28/28 29/30/30 2/61/61
f 31/26/26 30/28/28 2/61/61
f 32/24/24 31/26/26 2/61/61
f 33/22/22 32/24/24 2/61/61
f 34/65/20 33/22/22 2/61/61
f 35/18/18 34/20/20 2/61/61
f 36/16/16 35/18/18 2/61/61
f 37/14/14 36/16/16 2/61/61
f 38/12/12 37/14/14 2/61/61
f 39/10/10 38/12/12 2/61/61
f 40/8/8 39/10/10 2/61/61
f 41/6/6 40/8/8 2/61/61
f 42/3/3 41/6/6 2/61/61
f 23/4/4 42/3/3 2/61/61
f 1/62/62 44/42/42 43/41/41
f 1/62/62 45/43/43 44/42/42
f 1/62/62 46/44/44 45/43/43
f 1/62/62 47/45/45 46/44/44
f 1/62/62 48/46/46 47/45/45
f 1/62/62 49/47/47 48/46/46
f 1/62/62 50/48/48 49/47/47
f 1/62/62 51/49/49 50/48/48
f 1/62/62 52/63/50 51/49/49
f 1/62/62 53/51/51 52/50/50
f 1/62/62 54/52/52 53/51/51
f 1/62/62 55/53/53 54/52/52
f 1/62/62 56/54/54 55/53/53
f 1/62/62 57/55/55 56/54/54
f 1/62/62 58/56/56 57/55/55
f 1/62/62 59/57/57 58/56/56
f 1/62/62 60/58/58 59/57/57
f 1/62/62 61/59/59 60/58/58
f 1/62/62 62/60/60 61/59/59
f 1/62/62 43/41/41 62/60/60
