# WaveFront *.obj file (generated by CINEMA 4D)

mtllib ./turret_small_head_lights.mtl

v 33.33333206176758 574.4766845703125 170
v -33.33333206176758 593.0191650390625 174.58108520507812
v 33.54235076904297 615.64837646484375 -58.99113464355469
v -33.33333206176758 632.42431640625 58.99113464355469
v 33.33333206176758 593.0191650390625 174.58108520507812
v 36.11503601074219 575.414794921875 -186.99447631835938
v -33.33333206176758 602.4766845703125 -56.66666793823242
v 33.33333206176758 602.4766845703125 56.66666793823242
v 33.33333206176758 602.4766845703125 -56.66666793823242
v -33.33333206176758 574.4766845703125 -170
v -33.33333206176758 574.4766845703125 170
v -36.11503601074219 575.414794921875 -186.99447631835938
v 33.33333206176758 574.4766845703125 -170
v -33.12431335449219 615.64837646484375 -58.99113464355469
v 33.33333206176758 632.42431640625 58.99113464355469
v -33.33333206176758 602.4766845703125 56.66666793823242
# 16 vertices

vn 0 0.97526240348816 -0.22105032205582
vn 0 0.95398527383804 -0.29985347390175
vn -0.99608063697815 -0.08247877657413 0.03194664791226
vn -0.64315164089203 -0.7657083272934 0.00683387555182
vn 0.56143760681152 0.39674779772758 0.72620868682861
vn 0.70710676908493 -0.16959773004055 0.68646675348282
vn -0.70710676908493 -0.16959773004055 0.68646675348282
vn -0.56143760681152 0.39674779772758 0.72620868682861
vn 0 0.99561780691147 0.09351590275764
vn 0.61179673671722 -0.79093843698502 0.01100403536111
vn 0.99082750082016 -0.12997151911259 0.03699074685574
vn 0.99999189376831 -0.00400161463767 0.00044786237413
vn -0.99999231100082 0.00379350921139 -0.00098226452246
# 13 normals

vt 0.33333331346512 0.66666668653488 0
vt 0.33333331346512 1 0
vt 0.66666662693024 1 0
vt 0.66666662693024 0.66666668653488 0
vt 0.66666662693024 0 0
vt 0.33333331346512 0 0
vt 0.33333331346512 0.33333337306976 0
vt 0.66666662693024 0.33333337306976 0
vt 0 1 0
vt 1 1 0
vt 1 0 0
vt 0 0 0
# 12 texture coordinates

o Connect
usemtl default
f 3/4/1 6/3/2 12/2/2 14/1/1
f 12/2/4 10/2/4 7/1/3 14/1/3
f 2/6/8 11/6/7 1/5/6 5/5/5
f 15/8/9 3/4/1 14/1/1 4/7/9
f 6/3/10 13/3/10 10/2/4 12/2/4
f 15/12/12 8/11/12 9/10/11 3/9/11
f 5/5/5 1/5/6 8/8/12 15/8/12
f 4/7/13 16/7/13 11/6/7 2/6/8
f 3/4/11 9/4/11 13/3/10 6/3/10
f 14/1/3 7/1/3 16/7/13 4/7/13
f 5/5/5 15/8/9 4/7/9 2/6/8

