# WaveFront *.obj file (generated by CINEMA 4D)

mtllib ./turret_small_base.mtl

v -53.96022033691406 121.55499267578125 89.27960968017578
v -53.96022033691406 265.36611938476562 89.27960968017578
v -53.96022033691406 409.17724609375 89.27960968017578
v -17.98674011230469 121.55499267578125 89.27960968017578
v -25.07351493835449 265.36611938476562 124.45578002929688
v -17.98674011230469 409.17724609375 89.27960968017578
v 17.98674011230469 121.55499267578125 89.27960968017578
v 25.07351493835449 265.36611938476562 124.45578002929688
v 17.98674011230469 409.17724609375 89.27960968017578
v 53.96022033691406 121.55499267578125 89.27960968017578
v 53.96022033691406 265.36611938476562 89.27960968017578
v 53.96022033691406 409.17724609375 89.27960968017578
v 53.96022033691406 121.55499267578125 29.7598705291748
v 75.22055053710938 265.36611938476562 41.48526000976562
v 53.96022033691406 409.17724609375 29.7598705291748
v 53.96022033691406 121.55499267578125 -29.7598705291748
v 75.22055053710938 265.36611938476562 -41.48526000976562
v 53.96022033691406 409.17724609375 -29.7598705291748
v 38.58993530273438 121.55499267578125 -60.95343780517578
v 53.96022033691406 265.36611938476562 -89.27960968017578
v 53.96022033691406 409.17724609375 -89.27960968017578
v 17.98674011230469 121.55499267578125 -89.27960968017578
v 25.07351493835449 265.36611938476562 -124.45578002929688
v 17.98674011230469 409.17724609375 -89.27960968017578
v -17.98674011230469 121.55499267578125 -89.27960968017578
v -25.07351493835449 265.36611938476562 -124.45578002929688
v -17.98674011230469 409.17724609375 -89.27960968017578
v -38.58993530273438 121.55499267578125 -60.95343780517578
v -53.96022033691406 265.36611938476562 -89.27960968017578
v -53.96022033691406 409.17724609375 -89.27960968017578
v -53.96022033691406 121.55499267578125 -29.7598705291748
v -75.22055053710938 265.36611938476562 -41.48526000976562
v -53.96022033691406 409.17724609375 -29.7598705291748
v -53.96022033691406 121.55499267578125 29.7598705291748
v -75.22055053710938 265.36611938476562 41.48526000976562
v -53.96022033691406 409.17724609375 29.7598705291748
v -17.98674011230469 409.17724609375 29.7598705291748
v -17.98674011230469 409.17724609375 -29.7598705291748
v 17.98674011230469 409.17724609375 29.7598705291748
v 17.98674011230469 409.17724609375 -29.7598705291748
v -17.98674011230469 121.55499267578125 -29.7598705291748
v -17.98674011230469 121.55499267578125 29.7598705291748
v 17.98674011230469 121.55499267578125 -29.7598705291748
v 17.98674011230469 121.55499267578125 29.7598705291748
v 48.67837905883789 6.05499076843262 -234.77032470703125
v -48.67837905883789 6.05499076843262 -234.77032470703125
v -48.67837905883789 6.05499076843262 -144.4788818359375
v 48.67837905883789 6.05499076843262 -144.4788818359375
v -278.94387817382812 6.05499076843262 234.77032470703125
v -181.58712768554688 6.05499076843262 234.77032470703125
v -278.94387817382812 6.05499076843262 144.4788818359375
v -181.58712768554688 6.05499076843262 144.4788818359375
v 181.58712768554688 6.05499076843262 234.77032470703125
v 278.94387817382812 6.05499076843262 234.77032470703125
v 278.94387817382812 6.05499076843262 144.4788818359375
v 181.58712768554688 6.05499076843262 144.4788818359375
v -17.98674011230469 134.38514709472656 36.82594680786133
v -25.07351493835449 265.36611938476562 68.86386108398438
v -17.98674011230469 396.34710693359375 36.82594680786133
v 17.98674011230469 134.38514709472656 36.82594680786133
v 25.07351493835449 265.36611938476562 68.86386108398438
v 17.98674011230469 396.34710693359375 36.82594680786133
v 0.54081147909164 129.45225524902344 29.7598705291748
v 20.63364601135254 265.36611938476562 41.48526000976562
v 0.54081147909164 401.27999877929688 29.7598705291748
v 0.54081147909164 129.45225524902344 -29.7598705291748
v 20.63364601135254 265.36611938476562 -41.48526000976562
v 0.54081147909164 401.27999877929688 -29.7598705291748
v 17.98674011230469 134.38514709472656 -36.82594680786133
v 25.07351493835449 265.36611938476562 -68.86386108398438
v 17.98674011230469 396.34710693359375 -36.82594680786133
v -17.98674011230469 134.38514709472656 -36.82594680786133
v -25.07351493835449 265.36611938476562 -68.86386108398438
v -17.98674011230469 396.34710693359375 -36.82594680786133
v -0.54081147909164 129.45225524902344 -29.7598705291748
v -20.63364601135254 265.36611938476562 -41.48526000976562
v -0.54081147909164 401.27999877929688 -29.7598705291748
v -0.54081147909164 129.45225524902344 29.7598705291748
v -20.63364601135254 265.36611938476562 41.48526000976562
v -0.54081147909164 401.27999877929688 29.7598705291748
# 80 vertices

vn -0.42980998754501 -0.13214190304279 0.89319753646851
vn -0.42851069569588 -0.01349465828389 0.90343594551086
vn 0 -0.23759546875954 0.9713642001152
vn 0 -0.00000002301067 1
vn 0.42113348841667 -0.1053439900279 0.90086024999619
vn 0.42851069569588 0.01349465828389 0.90343594551086
vn -0.42113348841667 0.1053439900279 0.90086024999619
vn 0 0.23759540915489 0.9713642001152
vn 0.42980998754501 0.13214190304279 0.89319753646851
vn 0.97519272565842 -0.07494638115168 0.20828396081924
vn 0.9782041311264 0.00507933087647 0.20758336782455
vn 0.98924833536148 -0.14624561369419 0
vn 1 -0.00000001506312 0
vn 0.89188838005066 -0.17294971644878 -0.41787976026535
vn 0.94693040847778 -0.04970451071858 -0.31757244467735
vn 0.8204824924469 -0.04945900663733 -0.5695281624794
vn 0.83908820152283 -0.18359436094761 -0.51207822561264
vn 0.97494167089462 0.08507245779037 0.20555141568184
vn 0.98924833536148 0.14624558389187 0
vn 0.97519272565842 0.07494638115168 -0.20828396081924
vn 0.62299734354019 -0.04512127861381 -0.780921459198
vn 0.77640813589096 -0.19207727909088 -0.60024720430374
vn 0 -0.23759546875954 -0.9713642001152
vn 0 -0.00000002301067 -1
vn -0.77603536844254 -0.19412052631378 -0.6000719666481
vn -0.62792879343033 -0.03227458894253 -0.77760130167007
vn -0.82287240028381 -0.03951591998339 -0.56685048341751
vn -0.83909624814987 -0.18347841501236 -0.51210659742355
vn 0.42113348841667 0.1053439900279 -0.90086024999619
vn 0 0.23759540915489 -0.9713642001152
vn -0.42980998754501 0.13214190304279 -0.89319753646851
vn -0.94759821891785 -0.04343913123012 -0.31649741530418
vn -0.89223247766495 -0.17066614329815 -0.418084025383
vn -0.98924833536148 -0.14624561369419 0
vn -1 -0.00000001506312 0
vn -0.97494167089462 -0.08507245779037 0.20555141568184
vn -0.9782041311264 -0.00507933087647 0.20758336782455
vn -0.97494167089462 0.08507245779037 -0.20555141568184
vn -0.98924833536148 0.14624558389187 0
vn -0.97519272565842 0.07494638115168 0.20828396081924
vn 0 1 0
vn 0 -1 0
vn 0.14940495789051 -0.98877608776093 0
vn -0.14940495789051 -0.98877608776093 0
vn 0.30255001783371 -0.9531335234642 0
vn -0.30255001783371 -0.9531335234642 0
vn -0.96646028757095 0.25681602954864 0
vn 0 -0.70470398664474 0.70950144529343
vn 0.96646028757095 0.25681602954864 0
vn 0 0.78320717811584 -0.62176078557968
vn 0 0.89806789159775 -0.43985685706139
vn -0.45670408010483 0.88961869478226 0
vn 0 0.78320717811584 0.62176084518433
vn 0 -0.7047039270401 -0.70950150489807
vn 0 0.7832071185112 0.62176084518433
vn 0.45670413970947 0.88961863517761 0
vn 0 -0.70470398664474 -0.70950144529343
vn 0.99872124195099 0.0502360239625 0.00568014755845
vn 0.99998217821121 0.00006777386443 0.00596510712057
vn -0.99998217821121 -0.00006777200178 0.0059651080519
vn -0.99872469902039 0.05010064318776 0.00623505236581
vn 0 0.9713642001152 0.2375954836607
vn 0.99872469902039 -0.05010064318776 0.00623504398391
vn 0 -0.97136425971985 0.2375952154398
vn -0.99872124195099 -0.05023602023721 0.00568014103919
vn 0.00587888015434 0.08274319022894 -0.9965535402298
vn 0.00606926064938 0.00002498546746 -0.99998158216476
vn 0.00606926297769 -0.00002498172944 0.99998158216476
vn 0.00621805805713 0.08269338309765 0.99655562639236
vn 0.14624559879303 0.98924833536148 0
vn 0.00621804129332 -0.08269338309765 -0.99655562639236
vn 0.14624533057213 -0.98924833536148 0
vn 0.00587886851281 -0.08274318277836 0.9965535402298
vn -0.99872124195099 0.0502360239625 -0.00568014755845
vn -0.99998217821121 0.00006777386443 -0.00596510712057
vn 0.99998217821121 -0.00006777200178 -0.0059651080519
vn 0.99872469902039 0.05010064318776 -0.00623505236581
vn 0 0.9713642001152 -0.2375954836607
vn -0.99872469902039 -0.05010064318776 -0.00623504398391
vn 0 -0.97136425971985 -0.2375952154398
vn 0.99872124195099 -0.05023602023721 -0.00568014103919
vn -0.00587888015434 0.08274319022894 0.9965535402298
vn -0.00606926064938 0.00002498546746 0.99998158216476
vn -0.00606926856562 -0.0000249779896 -0.99998158216476
vn -0.00621805805713 0.08269338309765 -0.99655562639236
vn -0.14624559879303 0.98924833536148 0
vn -0.00621804129332 -0.08269338309765 0.99655562639236
vn -0.14624558389187 -0.98924833536148 0
vn -0.00587887922302 -0.08274317532778 -0.9965535402298
# 89 normals

vt 0 0 0
vt 0 0.5 0
vt 0.33333331346512 0.5 0
vt 0.33333334326744 0 0
vt 0.33333331346512 0 0
vt 0.66666662693024 0.5 0
vt 0.66666662693024 0 0
vt 0.66666668653488 0 0
vt 1 0.5 0
vt 1 0 0
vt 0 1 0
vt 0.33333334326744 1 0
vt 0.33333331346512 1 0
vt 0.66666662693024 1 0
vt 0.66666668653488 1 0
vt 1 1 0
vt 0 0.33333337306976 0
vt 0.33333331346512 0.33333337306976 0
vt 0.66666662693024 0.33333337306976 0
vt 1 0.33333337306976 0
vt 0 0.66666668653488 0
vt 0.33333331346512 0.66666668653488 0
vt 0.66666662693024 0.66666668653488 0
vt 1 0.66666668653488 0
# 24 texture coordinates

o Cube.1
usemtl default
f 4/4/1 5/3/2 2/2/2 1/1/1
f 60/7/3 61/6/4 58/3/4 57/5/3
f 10/10/5 11/9/6 8/6/6 7/8/5
f 5/3/2 6/12/7 3/11/7 2/2/2
f 61/6/4 62/14/8 59/13/8 58/3/4
f 11/9/6 12/16/9 9/15/9 8/6/6
f 13/4/10 14/3/11 11/2/11 10/1/10
f 66/7/12 67/6/13 64/3/13 63/5/12
f 19/10/17 20/9/16 17/6/15 16/8/14
f 14/3/11 15/12/18 12/11/18 11/2/11
f 67/6/13 68/14/19 65/13/19 64/3/13
f 20/9/16 21/16/20 18/15/20 17/6/15
f 22/4/22 23/3/21 20/2/16 19/1/17
f 72/7/23 73/6/24 70/3/24 69/5/23
f 28/10/28 29/9/27 26/6/26 25/8/25
f 23/3/21 24/12/29 21/11/29 20/2/16
f 73/6/24 74/14/30 71/13/30 70/3/24
f 29/9/27 30/16/31 27/15/31 26/6/26
f 31/4/33 32/3/32 29/2/27 28/1/28
f 78/7/34 79/6/35 76/3/35 75/5/34
f 1/10/36 2/9/37 35/6/37 34/8/36
f 32/3/32 33/12/38 30/11/38 29/2/27
f 79/6/35 80/14/39 77/13/39 76/3/35
f 2/9/37 3/16/40 36/15/40 35/6/37
f 6/4/41 37/18/41 36/17/41 3/1/41
f 9/8/41 39/19/41 37/18/41 6/4/41
f 12/10/41 15/20/41 39/19/41 9/8/41
f 37/18/41 38/22/41 33/21/41 36/17/41
f 39/19/41 40/23/41 38/22/41 37/18/41
f 15/20/41 18/24/41 40/23/41 39/19/41
f 38/22/41 27/12/41 30/11/41 33/21/41
f 40/23/41 24/15/41 27/12/41 38/22/41
f 18/24/41 21/16/41 24/15/41 40/23/41
f 25/4/42 41/18/42 31/17/42 28/1/42
f 45/7/42 48/19/42 47/18/42 46/5/42
f 19/10/42 16/20/42 43/19/42 22/8/42
f 41/18/42 42/22/43 34/21/42 31/17/42
f 43/19/42 44/23/44 42/22/43 41/18/42
f 16/20/42 13/24/42 44/23/44 43/19/42
f 52/22/45 50/13/45 49/11/42 51/21/42
f 44/23/44 7/15/46 4/12/45 42/22/43
f 55/24/42 54/16/42 53/14/46 56/23/46
f 47/18/47 41/18/47 25/4/47 46/5/47
f 48/19/48 43/19/48 41/18/48 47/18/48
f 45/7/49 22/8/49 43/19/49 48/19/49
f 46/5/50 25/4/51 22/8/51 45/7/50
f 49/11/52 1/11/52 34/21/52 51/21/52
f 50/13/53 4/12/53 1/11/53 49/11/53
f 52/22/45 42/22/43 4/12/45 50/13/45
f 51/21/54 34/21/54 42/22/54 52/22/54
f 53/14/46 7/15/46 44/23/44 56/23/46
f 54/16/55 10/16/55 7/15/55 53/14/55
f 55/24/56 13/24/56 10/16/56 54/16/56
f 56/23/57 44/23/57 13/24/57 55/24/57
f 58/3/59 5/3/59 4/4/58 57/5/58
f 60/7/61 7/8/61 8/6/60 61/6/60
f 57/5/62 4/4/62 7/8/62 60/7/62
f 59/13/63 6/12/63 5/3/59 58/3/59
f 62/14/64 9/15/64 6/12/64 59/13/64
f 61/6/60 8/6/60 9/15/65 62/14/65
f 64/3/67 14/3/67 13/4/66 63/5/66
f 66/7/69 16/8/69 17/6/68 67/6/68
f 63/5/70 13/4/70 16/8/70 66/7/70
f 65/13/71 15/12/71 14/3/67 64/3/67
f 68/14/72 18/15/72 15/12/72 65/13/72
f 67/6/68 17/6/68 18/15/73 68/14/73
f 70/3/75 23/3/75 22/4/74 69/5/74
f 72/7/77 25/8/77 26/6/76 73/6/76
f 69/5/78 22/4/51 25/8/51 72/7/78
f 71/13/79 24/12/79 23/3/75 70/3/75
f 74/14/80 27/15/80 24/12/80 71/13/80
f 73/6/76 26/6/76 27/15/81 74/14/81
f 76/3/83 32/3/83 31/4/82 75/5/82
f 78/7/85 34/8/85 35/6/84 79/6/84
f 75/5/86 31/4/86 34/8/86 78/7/86
f 77/13/87 33/12/87 32/3/83 76/3/83
f 80/14/88 36/15/88 33/12/88 77/13/88
f 79/6/84 35/6/84 36/15/89 80/14/89

