# This file uses centimeters as units for non-parametric coordinates.

mtllib Blade.mtl
g default
v -4.054679 0.016826 -0.184496
v 4.054679 0.016826 -0.184496
v -4.054679 -0.016826 -0.184496
v 4.054679 -0.016826 -0.184496
v -3.554730 -0.016826 0.135079
v -3.920719 -0.016826 0.000018
v -3.054780 -0.016826 0.184515
v -3.920719 0.016826 0.000018
v -3.554730 0.016826 0.135079
v -3.054780 0.016826 0.184515
v 3.920719 -0.016826 0.000018
v 3.554730 -0.016826 0.135079
v 3.054780 -0.016826 0.184515
v 3.054780 0.016826 0.184515
v 3.554730 0.016826 0.135079
v 3.920719 0.016826 0.000018
vt 0.374987 0.000000
vt 0.625013 0.000000
vt 0.625008 0.250008
vt 0.374992 0.250008
vt 0.405825 0.750000
vt 0.405825 0.500000
vt 0.594175 0.500000
vt 0.594175 0.750000
vt 0.125000 0.250000
vt 0.125000 0.000000
vt 0.375000 0.500000
vt 0.397154 0.504866
vt 0.399764 0.743487
vt 0.375000 0.750000
vt 0.600236 0.506513
vt 0.602846 0.745134
vt 0.625000 0.500000
vt 0.625000 0.750000
vt 0.875000 0.250000
vt 0.875000 0.000000
vt 0.625000 0.999987
vt 0.375000 0.999987
vn 0.000000 -0.000000 -1.000000
vn 0.000000 -0.000000 -1.000000
vn 0.000000 -0.000000 -1.000000
vn 0.000000 -0.000000 -1.000000
vn -0.007479 0.000000 0.999972
vn -0.007479 0.000000 0.999972
vn 0.007479 0.000000 0.999972
vn 0.007479 0.000000 0.999972
vn -0.809219 0.000000 0.587507
vn -0.809219 0.000000 0.587507
vn -0.809219 0.000000 0.587507
vn -0.809219 0.000000 0.587507
vn -0.346208 0.000000 0.938158
vn -0.346208 0.000000 0.938158
vn -0.346208 0.000000 0.938158
vn -0.346208 0.000000 0.938158
vn -0.098401 0.000000 0.995147
vn -0.007479 0.000000 0.999972
vn -0.007479 0.000000 0.999972
vn -0.098401 0.000000 0.995147
vn 0.007479 0.000000 0.999972
vn 0.098401 0.000000 0.995147
vn 0.098401 0.000000 0.995147
vn 0.007479 0.000000 0.999972
vn 0.346208 0.000000 0.938158
vn 0.346208 0.000000 0.938158
vn 0.346208 0.000000 0.938158
vn 0.346208 0.000000 0.938158
vn 0.809219 0.000000 0.587507
vn 0.809219 0.000000 0.587507
vn 0.809219 0.000000 0.587507
vn 0.809219 0.000000 0.587507
vn 0.000000 -1.000000 0.000000
vn 0.000000 -1.000000 0.000000
vn 0.000000 -1.000000 0.000000
vn 0.000000 -1.000000 0.000000
vn 0.000000 -1.000000 0.000000
vn 0.000000 -1.000000 0.000000
vn 0.000000 -1.000000 0.000000
vn 0.000000 -1.000000 0.000000
vn 0.000000 1.000000 -0.000000
vn 0.000000 1.000000 -0.000000
vn 0.000000 1.000000 -0.000000
vn 0.000000 1.000000 -0.000000
vn 0.000000 1.000000 -0.000000
vn 0.000000 1.000000 -0.000000
vn 0.000000 1.000000 -0.000000
vn 0.000000 1.000000 -0.000000
s off
g Blade:pCube1
usemtl initialShadingGroup
f 1/1/1 2/2/2 4/3/3 3/4/4
f 10/5/5 7/6/6 13/7/7 14/8/8
f 3/4/9 6/9/10 8/10/11 1/1/12
f 6/11/13 5/12/14 9/13/15 8/14/16
f 5/12/17 7/6/18 10/5/19 9/13/20
f 13/7/21 12/15/22 15/16/23 14/8/24
f 12/15/25 11/17/26 16/18/27 15/16/28
f 11/19/29 4/3/30 2/2/31 16/20/32
f 11/17/33 12/15/34 13/7/35 7/6/36 5/12/37 6/11/38 3/4/39 4/3/40
f 2/21/41 1/22/42 8/14/43 9/13/44 10/5/45 14/8/46 15/16/47 16/18/48
