# This file uses centimeters as units for non-parametric coordinates.

mtllib Funnel Quad.mtl
g default
v 0.000000 0.414507 -2.077308
v -0.641923 0.414507 -1.975637
v -1.221011 0.414507 -1.680577
v -1.680577 0.414507 -1.221010
v -1.975637 0.414507 -0.641923
v -2.077307 0.414507 0.000001
v 0.000000 0.653065 -2.499005
v -0.772235 0.653065 -2.376694
v -1.468878 0.653065 -2.021737
v -2.021737 0.653065 -1.468878
v -2.376695 0.653065 -0.772234
v -2.499005 0.653065 0.000001
v 0.002348 1.316405 -3.764032
v -1.183144 1.316405 -3.576269
v -2.252592 1.316405 -3.031357
v -3.101311 1.316405 -2.182639
v -3.646221 1.316405 -1.113191
v -3.833985 1.316405 0.072301
v 0.000001 1.871853 -4.975348
v -1.537467 1.871853 -4.731837
v -2.924436 1.871853 -4.025141
v -4.025141 1.871853 -2.924435
v -4.731837 1.871853 -1.537467
v -4.975348 1.871853 0.000001
v 0.000000 0.398388 -2.508367
v -0.775128 0.398388 -2.385598
v -1.474381 0.398388 -2.029311
v -2.029311 0.398388 -1.474381
v -2.385599 0.398388 -0.775127
v -2.508366 0.398388 0.000001
v 0.002348 1.062769 -3.984687
v -1.251330 1.062769 -3.786123
v -2.382289 1.062769 -3.209871
v -3.279824 1.062769 -2.312336
v -3.856076 1.062769 -1.181377
v -4.054640 1.062769 0.072301
v 0.000001 1.628449 -5.302219
v -1.638476 1.628449 -5.042710
v -3.116566 1.628449 -4.289585
v -4.289585 1.628449 -3.116566
v -5.042709 1.628449 -1.638475
v -5.302219 1.628449 0.000001
v 0.000001 2.169528 -6.007776
v -1.856504 2.169528 -5.713735
v -3.531282 2.169528 -4.860393
v -4.860392 2.169528 -3.531281
v -5.713734 2.169528 -1.856504
v -6.007776 2.169528 0.000001
vt 0.299520 0.086937
vt 0.889689 0.170806
vt 0.485269 0.540091
vt 0.333073 0.107658
vt 0.507346 0.583569
vt 0.371570 0.119646
vt 0.457770 0.603797
vt 0.412098 0.122736
vt 0.444148 0.556725
vt 0.452204 0.116757
vt 0.882062 0.391494
vt 0.405391 0.614026
vt 0.400984 0.565158
vt 0.352065 0.613608
vt 0.357163 0.564842
vt 0.886719 0.582932
vt 0.299846 0.602525
vt 0.314190 0.555768
vt 0.250753 0.581409
vt 0.273475 0.538466
vt 0.321839 0.131010
vt 0.270614 0.252381
vt 0.936140 0.337892
vt 0.928576 0.107711
vt 0.366399 0.145067
vt 0.344290 0.274291
vt 0.413081 0.148689
vt 0.420826 0.280123
vt 0.459544 0.141760
vt 0.496811 0.269812
vt 0.226537 0.357941
vt 0.946978 0.536523
vt 0.321641 0.385316
vt 0.420216 0.392743
vt 0.518413 0.380030
vt 0.571727 0.706294
vt 0.496340 0.738621
vt 0.415583 0.754800
vt 0.333102 0.753960
vt 0.252611 0.736132
vt 0.177425 0.702275
vt 0.503425 0.123981
vt 0.894847 0.092893
vt 0.281881 0.106657
vt 0.632754 0.812198
vt 0.092336 0.390852
vt 0.917054 0.702275
vt 0.535329 0.856446
vt 0.646039 0.432367
vt 0.430082 0.878038
vt 0.613142 0.348500
vt 0.138255 0.312420
vt 0.568624 0.243958
vt 0.203200 0.215210
vt 0.537389 0.467247
vt 0.422646 0.482043
vt 0.306716 0.473549
vt 0.195045 0.442050
vt 0.322534 0.876799
vt 0.217766 0.852988
vt 0.121152 0.807263
vt 0.188508 0.933997
vt 0.073903 0.878466
vt 0.489047 0.101485
vt 0.311778 0.962436
vt 0.438245 0.964055
vt 0.562628 0.938511
vt 0.679053 0.884702
vt 0.805407 0.125854
vt 0.756736 0.070345
vt 0.799067 0.040483
vt 0.808228 0.375830
vt 0.740487 0.336934
vt 0.808446 0.586971
vt 0.732941 0.558569
vt 0.770199 0.732748
vn 0.077750 0.867745 0.490890
vn 0.074158 0.880496 0.468217
vn 0.144519 0.883326 0.445924
vn 0.152154 0.870380 0.468282
vn 0.273626 0.884525 0.377816
vn 0.289414 0.870380 0.398344
vn 0.373902 0.886419 0.272869
vn 0.398344 0.870380 0.289414
vn 0.435531 0.888787 0.142722
vn 0.468281 0.870380 0.152154
vn 0.454501 0.887833 0.071986
vn 0.490890 0.867746 0.077749
vn 0.068917 0.897729 0.435125
vn 0.135279 0.899768 0.414871
vn 0.257606 0.899464 0.352993
vn 0.355120 0.898972 0.256398
vn 0.418284 0.898338 0.134267
vn 0.438930 0.895828 0.069520
vn 0.065857 0.907065 0.415807
vn 0.128575 0.908626 0.397326
vn 0.246253 0.907362 0.340667
vn 0.342842 0.905272 0.250883
vn 0.409082 0.902490 0.134773
vn 0.433041 0.898761 0.068587
vn -0.126280 -0.912203 -0.389794
vn -0.124351 -0.915997 -0.381426
vn -0.063384 -0.914238 -0.400189
vn -0.064875 -0.909953 -0.409605
vn -0.238976 -0.913185 -0.330127
vn -0.236796 -0.915747 -0.324553
vn -0.326310 -0.914734 -0.238292
vn -0.326438 -0.915343 -0.235767
vn -0.379739 -0.916665 -0.124594
vn -0.384511 -0.914821 -0.123505
vn -0.396467 -0.915899 -0.062794
vn -0.403654 -0.912675 -0.063933
vn -0.153248 -0.867935 -0.472445
vn -0.078336 -0.865587 -0.494593
vn -0.292452 -0.867040 -0.403377
vn -0.404713 -0.865581 -0.294920
vn -0.479116 -0.863673 -0.156576
vn -0.502977 -0.860620 -0.079664
vn -0.188049 -0.793524 -0.578754
vn -0.095939 -0.789864 -0.605732
vn -0.357690 -0.793524 -0.492318
vn -0.492318 -0.793524 -0.357690
vn -0.578755 -0.793524 -0.188049
vn -0.605731 -0.789864 -0.095939
vn 0.276773 0.959935 0.043836
vn 0.276773 0.959935 0.043836
vn 0.276773 0.959935 0.043836
vn 0.276773 0.959935 0.043836
vn 0.249681 0.959935 0.127219
vn 0.249681 0.959935 0.127219
vn 0.249681 0.959935 0.127219
vn 0.249681 0.959935 0.127219
vn 0.198148 0.959935 0.198147
vn 0.198148 0.959935 0.198147
vn 0.198148 0.959935 0.198147
vn 0.198148 0.959935 0.198147
vn 0.127218 0.959935 0.249680
vn 0.127218 0.959935 0.249680
vn 0.127218 0.959935 0.249680
vn 0.127218 0.959935 0.249680
vn 0.043837 0.959935 0.276773
vn 0.043837 0.959935 0.276773
vn 0.043837 0.959935 0.276773
vn 0.043837 0.959935 0.276773
vn 0.005919 -0.999284 0.037368
vn 0.005919 -0.999284 0.037368
vn 0.005919 -0.999284 0.037368
vn 0.005919 -0.999284 0.037368
vn 0.017176 -0.999284 0.033710
vn 0.017176 -0.999284 0.033710
vn 0.017176 -0.999284 0.033710
vn 0.017176 -0.999284 0.033710
vn 0.026753 -0.999284 0.026752
vn 0.026753 -0.999284 0.026752
vn 0.026753 -0.999284 0.026752
vn 0.026753 -0.999284 0.026752
vn 0.033710 -0.999284 0.017176
vn 0.033710 -0.999284 0.017176
vn 0.033710 -0.999284 0.017176
vn 0.033710 -0.999284 0.017176
vn 0.037368 -0.999284 0.005919
vn 0.037368 -0.999284 0.005919
vn 0.037368 -0.999284 0.005919
vn 0.037368 -0.999284 0.005919
vn 0.999999 0.000914 -0.000830
vn 0.999999 0.001146 -0.001040
vn 1.000000 -0.000000 -0.000000
vn 0.040166 -0.018176 0.999028
vn 0.033675 -0.015238 0.999317
vn 0.000000 0.000000 1.000000
vn 0.999999 -0.000615 0.001359
vn 1.000000 -0.000000 0.000000
vn 0.999999 -0.000509 0.001124
vn 1.000000 0.000755 -0.000430
vn 1.000000 0.000114 0.000415
vn -0.013202 0.023375 0.999640
vn 0.012864 0.003294 0.999912
vn -0.025969 0.028606 0.999253
vn -0.033096 0.036457 0.998787
vn -0.000000 -0.000000 1.000000
s 1
g pSphere3
usemtl initialShadingGroup
f 1/3/1 7/5/2 8/7/3 2/9/4
f 2/9/4 8/7/3 9/12/5 3/13/6
f 3/13/6 9/12/5 10/14/7 4/15/8
f 4/15/8 10/14/7 11/17/9 5/18/10
f 5/18/10 11/17/9 12/19/11 6/20/12
f 8/7/3 7/5/2 13/36/13 14/37/14
f 9/12/5 8/7/3 14/37/14 15/38/15
f 10/14/7 9/12/5 15/38/15 16/39/16
f 11/17/9 10/14/7 16/39/16 17/40/17
f 12/19/11 11/17/9 17/40/17 18/41/18
f 13/36/13 19/45/19 20/48/20 14/37/14
f 14/37/14 20/48/20 21/50/21 15/38/15
f 15/38/15 21/50/21 22/59/22 16/39/16
f 16/39/16 22/59/22 23/60/23 17/40/17
f 17/40/17 23/60/23 24/61/24 18/41/18
s 2
f 26/21/25 32/22/26 31/54/27 25/44/28
f 27/25/29 33/26/30 32/22/26 26/21/25
f 28/27/31 34/28/32 33/26/30 27/25/29
f 29/29/33 35/30/34 34/28/32 28/27/31
f 30/42/35 36/53/36 35/30/34 29/29/33
f 31/54/27 32/22/26 38/31/37 37/52/38
f 32/22/26 33/26/30 39/33/39 38/31/37
f 33/26/30 34/28/32 40/34/40 39/33/39
f 34/28/32 35/30/34 41/35/41 40/34/40
f 35/30/34 36/53/36 42/51/42 41/35/41
f 37/52/38 38/31/37 44/58/43 43/46/44
f 38/31/37 39/33/39 45/57/45 44/58/43
f 39/33/39 40/34/40 46/56/46 45/57/45
f 40/34/40 41/35/41 47/55/47 46/56/46
f 41/35/41 42/51/42 48/49/48 47/55/47
s off
f 24/61/49 23/60/50 47/62/51 48/63/52
f 23/60/53 22/59/54 46/65/55 47/62/56
f 22/59/57 21/50/58 45/66/59 46/65/60
f 21/50/61 20/48/62 44/67/63 45/66/64
f 20/48/65 19/45/66 43/68/67 44/67/68
f 1/1/69 2/4/70 26/21/71 25/44/72
f 2/4/73 3/6/74 27/25/75 26/21/76
f 3/6/77 4/8/78 28/27/79 27/25/80
f 4/8/81 5/10/82 29/29/83 28/27/84
f 5/10/85 6/64/86 30/42/87 29/29/88
s 3
f 19/16/89 37/32/90 43/47/91
s 4
f 12/69/92 30/70/93 6/71/94
s 3
f 7/2/95 1/43/96 25/24/97
f 13/11/98 31/23/99 37/32/90 19/16/89
f 7/2/95 25/24/97 31/23/99 13/11/98
s 4
f 12/69/92 18/72/100 36/73/101 30/70/93
f 36/73/101 18/72/100 24/74/102 42/75/103
f 42/75/103 24/74/102 48/76/104
