# WaveFront *.obj file (generated by CINEMA 4D)

mtllib ./HypeWeenie_Cylinder.mtl

v 50 -100 0
v 50 100 0
v 49.24038696289062 -100 -8.68240928649902
v 49.24038696289062 100 -8.68240928649902
v 46.9846305847168 -100 -17.10100746154785
v 46.9846305847168 100 -17.10100746154785
v 43.30126953125 -100 -25
v 43.30126953125 100 -25
v 38.30222320556641 -100 -32.13938140869141
v 38.30222320556641 100 -32.13938140869141
v 32.13938140869141 -100 -38.30222320556641
v 32.13938140869141 100 -38.30222320556641
v 25 -100 -43.30126953125
v 25 100 -43.30126953125
v 17.10100746154785 -100 -46.9846305847168
v 17.10100746154785 100 -46.9846305847168
v 8.68240928649902 -100 -49.24038696289062
v 8.68240928649902 100 -49.24038696289062
v 0 -100 -50
v 0 100 -50
v -8.68240928649902 -100 -49.24038696289062
v -8.68240928649902 100 -49.24038696289062
v -17.10100746154785 -100 -46.9846305847168
v -17.10100746154785 100 -46.9846305847168
v -25 -100 -43.30126953125
v -25 100 -43.30126953125
v -32.13938140869141 -100 -38.30222320556641
v -32.13938140869141 100 -38.30222320556641
v -38.30222320556641 -100 -32.13938140869141
v -38.30222320556641 100 -32.13938140869141
v -43.30126953125 -100 -25
v -43.30126953125 100 -25
v -46.9846305847168 -100 -17.10100746154785
v -46.9846305847168 100 -17.10100746154785
v -49.24038696289062 -100 -8.68240928649902
v -49.24038696289062 100 -8.68240928649902
v -50 -100 -0.00000000000001
v -50 100 -0.00000000000001
v -49.24038696289062 -100 8.68240928649902
v -49.24038696289062 100 8.68240928649902
v -46.9846305847168 -100 17.10100746154785
v -46.9846305847168 100 17.10100746154785
v -43.30126953125 -100 25
v -43.30126953125 100 25
v -38.30222320556641 -100 32.13938140869141
v -38.30222320556641 100 32.13938140869141
v -32.13938140869141 -100 38.30222320556641
v -32.13938140869141 100 38.30222320556641
v -25 -100 43.30126953125
v -25 100 43.30126953125
v -17.10100746154785 -100 46.9846305847168
v -17.10100746154785 100 46.9846305847168
v -8.68240928649902 -100 49.24038696289062
v -8.68240928649902 100 49.24038696289062
v -0.00000000000001 -100 50
v -0.00000000000001 100 50
v 8.68240928649902 -100 49.24038696289062
v 8.68240928649902 100 49.24038696289062
v 17.10100746154785 -100 46.9846305847168
v 17.10100746154785 100 46.9846305847168
v 25 -100 43.30126953125
v 25 100 43.30126953125
v 32.13938140869141 -100 38.30222320556641
v 32.13938140869141 100 38.30222320556641
v 38.30222320556641 -100 32.13938140869141
v 38.30222320556641 100 32.13938140869141
v 43.30126953125 -100 25
v 43.30126953125 100 25
v 46.9846305847168 -100 17.10100746154785
v 46.9846305847168 100 17.10100746154785
v 49.24038696289062 -100 8.68240928649902
v 49.24038696289062 100 8.68240928649902
v 43.5 -100 0
v 42.83913803100586 -100 -7.55369567871094
v -27.96126174926758 100 33.32293319702148
v -14.87787628173828 -100 -40.87662887573242
v 43.5 100 0
v 42.83913803100586 100 -7.55369567871094
v 33.32293319702148 -100 -27.96126174926758
v -14.87787628173828 100 -40.87662887573242
v -21.75 100 -37.67210388183594
v 40.87662887573242 -100 -14.87787628173828
v -21.75 -100 -37.67210388183594
v -7.55369567871094 -100 42.83913803100586
v 40.87662887573242 100 -14.87787628173828
v -27.96126174926758 100 -33.32293319702148
v -27.96126174926758 -100 -33.32293319702148
v 37.67210388183594 -100 -21.75
v 37.67210388183594 100 -21.75
v -7.55369567871094 100 42.83913803100586
v -33.32293319702148 -100 -27.96126174926758
v -0.00000000000001 100 43.5
v -33.32293319702148 100 -27.96126174926758
v 33.32293319702148 100 -27.96126174926758
v 7.55369567871094 100 42.83913803100586
v 14.87787628173828 100 -40.87662887573242
v -40.87662887573242 -100 -14.87787628173828
v 27.96126174926758 -100 -33.32293319702148
v -40.87662887573242 100 -14.87787628173828
v 27.96126174926758 100 -33.32293319702148
v -42.83913803100586 100 -7.55369567871094
v 21.75 -100 -37.67210388183594
v -42.83913803100586 -100 -7.55369567871094
v -43.5 -100 -0.00000000000001
v 21.75 100 -37.67210388183594
v -43.5 100 -0.00000000000001
v 14.87787628173828 -100 -40.87662887573242
v -42.83913803100586 100 7.55369567871094
v 7.55369567871094 -100 -42.83913803100586
v 37.67210388183594 -100 21.75
v 7.55369567871094 100 -42.83913803100586
v -37.67210388183594 -100 21.75
v -14.87787628173828 100 40.87662887573242
v 0 -100 -43.5
v -37.67210388183594 100 21.75
v 0 100 -43.5
v -33.32293319702148 100 27.96126174926758
v -7.55369567871094 -100 -42.83913803100586
v -27.96126174926758 -100 33.32293319702148
v -7.55369567871094 100 -42.83913803100586
v -21.75 -100 37.67210388183594
v -40.87662887573242 -100 14.87787628173828
v -21.75 100 37.67210388183594
v -37.67210388183594 -100 -21.75
v -14.87787628173828 -100 40.87662887573242
v -37.67210388183594 100 -21.75
v 21.75 -100 37.67210388183594
v 21.75 100 37.67210388183594
v -0.00000000000001 -100 43.5
v -42.83913803100586 -100 7.55369567871094
v 7.55369567871094 -100 42.83913803100586
v -40.87662887573242 100 14.87787628173828
v 14.87787628173828 100 40.87662887573242
v 14.87787628173828 -100 40.87662887573242
v 37.67210388183594 100 21.75
v 40.87662887573242 -100 14.87787628173828
v 40.87662887573242 100 14.87787628173828
v 27.96126174926758 -100 33.32293319702148
v -33.32293319702148 -100 27.96126174926758
v 27.96126174926758 100 33.32293319702148
v 33.32293319702148 -100 27.96126174926758
v 33.32293319702148 100 27.96126174926758
v 42.83913803100586 100 7.55369567871094
v 42.83913803100586 -100 7.55369567871094
# 144 vertices

vn 0 -1 0
vn 1 0 0
vn 0.98480772972107 0 -0.17364820837975
vn 0 1 0
vn 0.93969261646271 0 -0.34202018380165
vn 0.86602544784546 0 -0.49999994039536
vn 0.76604449748993 0 -0.6427875161171
vn 0.6427875161171 0 -0.76604449748993
vn 0.49999994039536 0 -0.86602544784546
vn 0.34202018380165 0 -0.93969261646271
vn 0.17364820837975 0 -0.98480772972107
vn 0 0 -1
vn -0.17364820837975 0 -0.98480772972107
vn -0.34202018380165 0 -0.93969261646271
vn -0.49999994039536 0 -0.86602544784546
vn -0.6427875161171 0 -0.76604449748993
vn -0.76604449748993 0 -0.6427875161171
vn -0.86602544784546 0 -0.49999994039536
vn -0.93969261646271 0 -0.34202018380165
vn -0.98480772972107 0 -0.17364820837975
vn -1 0 0
vn -0.98480772972107 0 0.17364820837975
vn -0.93969261646271 0 0.34202018380165
vn -0.86602544784546 0 0.49999994039536
vn -0.76604449748993 0 0.6427875161171
vn -0.6427875161171 0 0.76604449748993
vn -0.49999994039536 0 0.86602544784546
vn -0.34202018380165 0 0.93969261646271
vn -0.17364820837975 0 0.98480772972107
vn 0 0 1
vn 0.17364820837975 0 0.98480772972107
vn 0.34202018380165 0 0.93969261646271
vn 0.49999994039536 0 0.86602544784546
vn 0.6427875161171 0 0.76604449748993
vn 0.76604449748993 0 0.6427875161171
vn 0.86602544784546 0 0.49999994039536
vn 0.93969261646271 0 0.34202018380165
vn 0.98480772972107 0 0.17364820837975
# 38 normals

vt 0.06499999761581 0.5 0
vt 0 0.5 0
vt 0.00759612349793 0.58682411909103 0
vt 0.07160862535238 0.5755370259285 0
vt 0 0 0
vt 0 1 0
vt 0.02777777798474 1 0
vt 0.02777777798474 0 0
vt 0.92839133739471 0.5755370259285 0
vt 0.99240386486053 0.58682411909103 0
vt 1 0.5 0
vt 0.93500000238419 0.5 0
vt 0.030153689906 0.67101007699966 0
vt 0.09123370796442 0.64877879619598 0
vt 0.05555555596948 1 0
vt 0.05555555596948 0 0
vt 0.90876626968384 0.64877879619598 0
vt 0.96984630823135 0.67101007699966 0
vt 0.06698729842901 0.75 0
vt 0.12327895313501 0.71750003099442 0
vt 0.08333333581686 1 0
vt 0.08333333581686 0 0
vt 0.87672108411789 0.71750003099442 0
vt 0.93301272392273 0.75 0
vt 0.11697778105736 0.82139384746552 0
vt 0.16677066683769 0.77961266040802 0
vt 0.11111111193895 1 0
vt 0.11111111193895 0 0
vt 0.83322936296463 0.77961266040802 0
vt 0.88302224874496 0.82139384746552 0
vt 0.17860619723797 0.88302218914032 0
vt 0.22038738429546 0.83322930335999 0
vt 0.13888889551163 1 0
vt 0.13888889551163 0 0
vt 0.77961260080338 0.83322930335999 0
vt 0.82139378786087 0.88302218914032 0
vt 0.25 0.93301272392273 0
vt 0.28249999880791 0.87672102451324 0
vt 0.16666667163372 1 0
vt 0.16666667163372 0 0
vt 0.71749997138977 0.87672102451324 0
vt 0.75 0.93301272392273 0
vt 0.32898992300034 0.96984630823135 0
vt 0.35122123360634 0.90876626968384 0
vt 0.19444444775581 1 0
vt 0.19444444775581 0 0
vt 0.64877879619598 0.90876626968384 0
vt 0.67101007699966 0.96984630823135 0
vt 0.42446303367615 0.92839139699936 0
vt 0.41317591071129 0.99240386486053 0
vt 0.22222222387791 1 0
vt 0.22222222387791 0 0
vt 0.57553690671921 0.92839139699936 0
vt 0.58682405948639 0.99240386486053 0
vt 0.5 1 0
vt 0.5 0.93500000238419 0
vt 0.25 1 0
vt 0.25 0 0
vt 0.27777779102325 1 0
vt 0.27777779102325 0 0
vt 0.5 1 0
vt 0.30555555224419 1 0
vt 0.30555555224419 0 0
vt 0.33333334326744 1 0
vt 0.33333334326744 0 0
vt 0.36111110448837 1 0
vt 0.36111110448837 0 0
vt 0.38888889551163 1 0
vt 0.38888889551163 0 0
vt 0.41666665673256 1 0
vt 0.41666665673256 0 0
vt 0.44444444775581 1 0
vt 0.44444444775581 0 0
vt 0.47222220897675 1 0
vt 0.47222220897675 0 0
vt 0.5 0 0
vt 0.99240386486053 0.41317594051361 0
vt 0.92839133739471 0.42446315288544 0
vt 0.52777779102325 1 0
vt 0.52777779102325 0 0
vt 0.07160862535238 0.42446315288544 0
vt 0.00759612349793 0.41317594051361 0
vt 0.90876626968384 0.35122132301331 0
vt 0.96984630823135 0.32898998260498 0
vt 0.55555558204651 1 0
vt 0.55555558204651 0 0
vt 0.030153689906 0.32898998260498 0
vt 0.09123370796442 0.35122132301331 0
vt 0.87672108411789 0.28250002861023 0
vt 0.93301272392273 0.25 0
vt 0.58333331346512 1 0
vt 0.58333331346512 0 0
vt 0.12327895313501 0.28250002861023 0
vt 0.06698729842901 0.25 0
vt 0.88302224874496 0.17860627174377 0
vt 0.83322936296463 0.22038745880127 0
vt 0.61111110448837 1 0
vt 0.61111110448837 0 0
vt 0.16677066683769 0.22038745880127 0
vt 0.11697778105736 0.17860627174377 0
vt 0.82139378786087 0.11697781085968 0
vt 0.77961260080338 0.16677069664001 0
vt 0.63888889551163 1 0
vt 0.63888889551163 0 0
vt 0.22038738429546 0.16677069664001 0
vt 0.17860619723797 0.11697781085968 0
vt 0.71749997138977 0.12327897548676 0
vt 0.75 0.06698727607727 0
vt 0.66666668653488 1 0
vt 0.66666668653488 0 0
vt 0.28249999880791 0.12327897548676 0
vt 0.25 0.06698727607727 0
vt 0.67101007699966 0.03015375137329 0
vt 0.64877879619598 0.09123384952545 0
vt 0.69444441795349 1 0
vt 0.69444441795349 0 0
vt 0.32898992300034 0.03015375137329 0
vt 0.35122123360634 0.09123384952545 0
vt 0.58682405948639 0.00759613513947 0
vt 0.57553690671921 0.07160866260529 0
vt 0.72222220897675 1 0
vt 0.72222220897675 0 0
vt 0.42446303367615 0.07160866260529 0
vt 0.41317591071129 0.00759613513947 0
vt 0.5 0.06500005722046 0
vt 0.75 1 0
vt 0.75 0 0
vt 0.77777779102325 1 0
vt 0.77777779102325 0 0
vt 0.80555558204651 1 0
vt 0.80555558204651 0 0
vt 0.83333331346512 1 0
vt 0.83333331346512 0 0
vt 0.86111110448837 1 0
vt 0.86111110448837 0 0
vt 0.88888889551163 1 0
vt 0.88888889551163 0 0
vt 0.91666668653488 1 0
vt 0.91666668653488 0 0
vt 0.94444441795349 1 0
vt 0.94444441795349 0 0
vt 0.97222220897675 1 0
vt 0.97222220897675 0 0
vt 1 1 0
vt 1 0 0
# 145 texture coordinates

o Cylinder
usemtl Mat
f 74/4/1 3/3/1 1/2/1 73/1/1
f 3/8/3 4/7/3 2/6/2 1/5/2
f 77/12/4 2/11/4 4/10/4 78/9/4
f 82/14/1 5/13/1 3/3/1 74/4/1
f 5/16/5 6/15/5 4/7/3 3/8/3
f 4/10/4 6/18/4 85/17/4 78/9/4
f 88/20/1 7/19/1 5/13/1 82/14/1
f 7/22/6 8/21/6 6/15/5 5/16/5
f 85/17/4 6/18/4 8/24/4 89/23/4
f 79/26/1 9/25/1 7/19/1 88/20/1
f 9/28/7 10/27/7 8/21/6 7/22/6
f 89/23/4 8/24/4 10/30/4 94/29/4
f 98/32/1 11/31/1 9/25/1 79/26/1
f 11/34/8 12/33/8 10/27/7 9/28/7
f 94/29/4 10/30/4 12/36/4 100/35/4
f 98/32/1 102/38/1 13/37/1 11/31/1
f 13/40/9 14/39/9 12/33/8 11/34/8
f 100/35/4 12/36/4 14/42/4 105/41/4
f 102/38/1 107/44/1 15/43/1 13/37/1
f 15/46/10 16/45/10 14/39/9 13/40/9
f 14/42/4 16/48/4 96/47/4 105/41/4
f 17/50/1 15/43/1 107/44/1 109/49/1
f 17/52/11 18/51/11 16/45/10 15/46/10
f 18/54/4 111/53/4 96/47/4 16/48/4
f 17/50/1 109/49/1 114/56/1 19/55/1
f 19/58/12 20/57/12 18/51/11 17/52/11
f 18/54/4 20/55/4 116/56/4 111/53/4
f 19/55/1 114/56/1 118/53/1 21/54/1
f 21/60/13 22/59/13 20/57/12 19/58/12
f 116/56/4 20/61/4 22/50/4 120/49/4
f 76/47/1 23/48/1 21/54/1 118/53/1
f 23/63/14 24/62/14 22/59/13 21/60/13
f 80/44/4 120/49/4 22/50/4 24/43/4
f 83/41/1 25/42/1 23/48/1 76/47/1
f 25/65/15 26/64/15 24/62/14 23/63/14
f 26/37/4 81/38/4 80/44/4 24/43/4
f 87/35/1 27/36/1 25/42/1 83/41/1
f 27/67/16 28/66/16 26/64/15 25/65/15
f 86/32/4 81/38/4 26/37/4 28/31/4
f 91/29/1 29/30/1 27/36/1 87/35/1
f 29/69/17 30/68/17 28/66/16 27/67/16
f 86/32/4 28/31/4 30/25/4 93/26/4
f 124/23/1 31/24/1 29/30/1 91/29/1
f 31/71/18 32/70/18 30/68/17 29/69/17
f 93/26/4 30/25/4 32/19/4 126/20/4
f 97/17/1 33/18/1 31/24/1 124/23/1
f 33/73/19 34/72/19 32/70/18 31/71/18
f 126/20/4 32/19/4 34/13/4 99/14/4
f 97/17/1 103/9/1 35/10/1 33/18/1
f 35/75/20 36/74/20 34/72/19 33/73/19
f 99/14/4 34/13/4 36/3/4 101/4/4
f 104/12/1 37/11/1 35/10/1 103/9/1
f 37/76/21 38/55/21 36/74/20 35/75/20
f 101/4/4 36/3/4 38/2/4 106/1/4
f 130/78/1 39/77/1 37/11/1 104/12/1
f 39/80/22 40/79/22 38/55/21 37/76/21
f 106/1/4 38/2/4 40/82/4 108/81/4
f 41/84/1 39/77/1 130/78/1 122/83/1
f 41/86/23 42/85/23 40/79/22 39/80/22
f 132/88/4 108/81/4 40/82/4 42/87/4
f 43/90/1 41/84/1 122/83/1 112/89/1
f 43/92/24 44/91/24 42/85/23 41/86/23
f 132/88/4 42/87/4 44/94/4 115/93/4
f 139/96/1 45/95/1 43/90/1 112/89/1
f 45/98/25 46/97/25 44/91/24 43/92/24
f 44/94/4 46/100/4 117/99/4 115/93/4
f 119/102/1 47/101/1 45/95/1 139/96/1
f 47/104/26 48/103/26 46/97/25 45/98/25
f 117/99/4 46/100/4 48/106/4 75/105/4
f 49/108/1 47/101/1 119/102/1 121/107/1
f 49/110/27 50/109/27 48/103/26 47/104/26
f 75/105/4 48/106/4 50/112/4 123/111/4
f 125/114/1 51/113/1 49/108/1 121/107/1
f 51/116/28 52/115/28 50/109/27 49/110/27
f 113/118/4 123/111/4 50/112/4 52/117/4
f 125/114/1 84/120/1 53/119/1 51/113/1
f 53/122/29 54/121/29 52/115/28 51/116/28
f 52/117/4 54/124/4 90/123/4 113/118/4
f 129/125/1 55/76/1 53/119/1 84/120/1
f 55/127/30 56/126/30 54/121/29 53/122/29
f 90/123/4 54/124/4 56/76/4 92/125/4
f 55/76/1 129/125/1 131/123/1 57/124/1
f 57/129/31 58/128/31 56/126/30 55/127/30
f 92/125/4 56/76/4 58/119/4 95/120/4
f 131/123/1 134/118/1 59/117/1 57/124/1
f 59/131/32 60/130/32 58/128/31 57/129/31
f 133/114/4 95/120/4 58/119/4 60/113/4
f 61/112/1 59/117/1 134/118/1 127/111/1
f 61/133/33 62/132/33 60/130/32 59/131/32
f 62/108/4 128/107/4 133/114/4 60/113/4
f 138/105/1 63/106/1 61/112/1 127/111/1
f 63/135/34 64/134/34 62/132/33 61/133/33
f 140/102/4 128/107/4 62/108/4 64/101/4
f 141/99/1 65/100/1 63/106/1 138/105/1
f 65/137/35 66/136/35 64/134/34 63/135/34
f 140/102/4 64/101/4 66/95/4 142/96/4
f 67/94/1 65/100/1 141/99/1 110/93/1
f 67/139/36 68/138/36 66/136/35 65/137/35
f 142/96/4 66/95/4 68/90/4 135/89/4
f 136/88/1 69/87/1 67/94/1 110/93/1
f 69/141/37 70/140/37 68/138/36 67/139/36
f 137/83/4 135/89/4 68/90/4 70/84/4
f 136/88/1 144/81/1 71/82/1 69/87/1
f 71/143/38 72/142/38 70/140/37 69/141/37
f 137/83/4 70/84/4 72/77/4 143/78/4
f 73/1/1 1/2/1 71/82/1 144/81/1
f 1/145/2 2/144/2 72/142/38 71/143/38
f 143/78/4 72/77/4 2/11/4 77/12/4

v -14.87787628173828 -100 -40.87662887573242
v -21.75 100 37.67210388183594
v 42.83913803100586 100 -7.55369567871094
v -14.87787628173828 100 -40.87662887573242
v -21.75 100 -37.67210388183594
v -21.75 -100 -37.67210388183594
v -27.96126174926758 -100 -33.32293319702148
v -7.55369567871094 100 42.83913803100586
v -27.96126174926758 100 -33.32293319702148
v 37.67210388183594 100 -21.75
v -0.00000000000001 100 43.5
v -33.32293319702148 100 -27.96126174926758
v 33.32293319702148 100 -27.96126174926758
v -40.87662887573242 -100 -14.87787628173828
v 27.96126174926758 100 -33.32293319702148
v -42.83913803100586 -100 -7.55369567871094
v -42.83913803100586 100 -7.55369567871094
v -43.5 -100 -0.00000000000001
v 21.75 100 -37.67210388183594
v 0 100 -43.5
v 14.87787628173828 100 -40.87662887573242
v -40.87662887573242 100 14.87787628173828
v -37.67210388183594 -100 21.75
v -37.67210388183594 100 21.75
v -33.32293319702148 100 27.96126174926758
v -27.96126174926758 -100 33.32293319702148
v -27.96126174926758 100 33.32293319702148
v -14.87787628173828 100 40.87662887573242
v -7.55369567871094 -100 42.83913803100586
v 21.75 100 37.67210388183594
v 27.96126174926758 100 33.32293319702148
v -37.67210388183594 100 -21.75
v 33.32293319702148 100 27.96126174926758
v 37.67210388183594 100 21.75
v 40.87662887573242 100 14.87787628173828
v -42.83913803100586 100 7.55369567871094
v -43.5 100 -0.00000000000001
# 37 vertices

vn -0.98480772972107 0 0.17364817857742
vn -0.93969255685806 0 0.3420202434063
vn -0.86602538824081 0 0.5
vn -0.76604449748993 0 0.64278757572174
vn -0.64278757572174 0 0.76604449748993
vn -0.5 0 0.86602538824081
vn -0.3420202434063 0 0.93969255685806
vn -0.17364817857742 0 0.98480772972107
vn 0.17364817857742 0 0.98480772972107
vn 0.3420202434063 0 0.93969255685806
vn 0.5 0 0.86602538824081
vn 0.64278757572174 0 0.76604449748993
vn 0.76604449748993 0 0.64278757572174
vn 0.86602538824081 0 0.5
vn 0.93969255685806 0 0.3420202434063
vn 0.98480772972107 0 0.17364817857742
vn 0.98480772972107 0 -0.17364817857742
vn 0.93969255685806 0 -0.3420202434063
vn 0.86602538824081 0 -0.5
vn 0.76604449748993 0 -0.64278757572174
vn 0.64278757572174 0 -0.76604449748993
vn 0.5 0 -0.86602538824081
vn 0.3420202434063 0 -0.93969255685806
vn 0.17364817857742 0 -0.98480772972107
vn -0.17364817857742 0 -0.98480772972107
vn -0.3420202434063 0 -0.93969255685806
vn -0.5 0 -0.86602538824081
vn -0.64278757572174 0 -0.76604449748993
vn -0.76604449748993 0 -0.64278757572174
vn -0.86602538824081 0 -0.5
vn -0.93969255685806 0 -0.3420202434063
vn -0.98480772972107 0 -0.17364817857742
# 32 normals

vt 0 0.70374274253845 0
vt 0 0.16325449943542 0
vt 0.02777777798474 0.16325449943542 0
vt 0.02777777798474 0.70374274253845 0
vt 0.05555555596948 0.16325449943542 0
vt 0.05555555596948 0.70374274253845 0
vt 0.08333333581686 0.16325449943542 0
vt 0.08333333581686 0.70374274253845 0
vt 0.11111111193895 0.16325449943542 0
vt 0.11111111193895 0.70374274253845 0
vt 0.13888889551163 0.16325449943542 0
vt 0.13888889551163 0.70374274253845 0
vt 0.16666667163372 0.16325449943542 0
vt 0.16666667163372 0.70374274253845 0
vt 0.19444444775581 0.16325449943542 0
vt 0.19444444775581 0.70374274253845 0
vt 0.22222222387791 0.16325449943542 0
vt 0.22222222387791 0.70374274253845 0
vt 0.25 0.16325449943542 0
vt 0.25 0.70374274253845 0
vt 0.27777779102325 0.16325449943542 0
vt 0.27777779102325 0.70374274253845 0
vt 0.30555555224419 0.16325449943542 0
vt 0.30555555224419 0.70374274253845 0
vt 0.33333334326744 0.16325449943542 0
vt 0.33333334326744 0.70374274253845 0
vt 0.36111110448837 0.16325449943542 0
vt 0.36111110448837 0.70374274253845 0
vt 0.38888889551163 0.16325449943542 0
vt 0.38888889551163 0.70374274253845 0
vt 0.41666665673256 0.16325449943542 0
vt 0.41666665673256 0.70374274253845 0
vt 0.44444444775581 0.16325449943542 0
vt 0.44444444775581 0.70374274253845 0
vt 0.47222220897675 0.16325449943542 0
vt 0.47222220897675 0.70374274253845 0
vt 0.5 0.16325449943542 0
vt 0.5 0.70374274253845 0
vt 0.52777779102325 0.16325449943542 0
vt 0.52777779102325 0.70374274253845 0
vt 0.55555558204651 0.16325449943542 0
vt 0.55555558204651 0.70374274253845 0
vt 0.58333331346512 0.16325449943542 0
vt 0.58333331346512 0.70374274253845 0
vt 0.61111110448837 0.16325449943542 0
vt 0.61111110448837 0.70374274253845 0
vt 0.63888889551163 0.16325449943542 0
vt 0.63888889551163 0.70374274253845 0
vt 0.66666668653488 0.16325449943542 0
vt 0.66666668653488 0.70374274253845 0
vt 0.69444441795349 0.16325449943542 0
vt 0.69444441795349 0.70374274253845 0
vt 0.72222220897675 0.16325449943542 0
vt 0.72222220897675 0.70374274253845 0
vt 0.75 0.16325449943542 0
vt 0.75 0.70374274253845 0
vt 0.77777779102325 0.16325449943542 0
vt 0.77777779102325 0.70374274253845 0
vt 0.80555558204651 0.16325449943542 0
vt 0.80555558204651 0.70374274253845 0
vt 0.83333331346512 0.16325449943542 0
vt 0.83333331346512 0.70374274253845 0
vt 0.86111110448837 0.16325449943542 0
vt 0.86111110448837 0.70374274253845 0
vt 0.88888889551163 0.16325449943542 0
vt 0.88888889551163 0.70374274253845 0
vt 0.91666668653488 0.16325449943542 0
vt 0.91666668653488 0.70374274253845 0
vt 0.94444441795349 0.16325449943542 0
vt 0.94444441795349 0.70374274253845 0
vt 0.97222220897675 0.16325449943542 0
vt 0.97222220897675 0.70374274253845 0
vt 1 0.16325449943542 0
vt 1 0.70374274253845 0
# 74 texture coordinates

o Cylinder.1
usemtl Mat.1
f 147/149/39 74/148/39 73/147/21 77/146/21
f 85/151/40 82/150/40 74/148/39 147/149/39
f 154/153/41 88/152/41 82/150/40 85/151/40
f 157/155/42 79/154/42 88/152/41 154/153/41
f 159/157/43 98/156/43 79/154/42 157/155/42
f 98/156/43 159/157/43 163/159/44 102/158/44
f 102/158/44 163/159/44 165/161/45 107/160/45
f 107/160/45 165/161/45 111/163/46 109/162/46
f 109/162/46 111/163/46 164/165/30 114/164/30
f 114/164/30 164/165/30 120/167/47 118/166/47
f 118/166/47 120/167/47 148/169/48 145/168/48
f 145/168/48 148/169/48 149/171/49 150/170/49
f 150/170/49 149/171/49 153/173/50 151/172/50
f 151/172/50 153/173/50 156/175/51 91/174/51
f 176/177/52 124/176/52 91/174/51 156/175/51
f 99/179/53 158/178/53 124/176/52 176/177/52
f 161/181/54 160/180/54 158/178/53 99/179/53
f 181/183/2 162/182/2 160/180/54 161/181/54
f 180/185/55 130/184/55 162/182/2 181/183/2
f 166/187/56 122/186/56 130/184/55 180/185/55
f 168/189/57 167/188/57 122/186/56 166/187/56
f 169/191/58 139/190/58 167/188/57 168/189/57
f 171/193/59 170/192/59 139/190/58 169/191/58
f 146/195/60 121/194/60 170/192/59 171/193/59
f 172/197/61 125/196/61 121/194/60 146/195/60
f 152/199/62 173/198/62 125/196/61 172/197/61
f 155/201/12 129/200/12 173/198/62 152/199/62
f 95/203/63 131/202/63 129/200/12 155/201/12
f 133/205/64 134/204/64 131/202/63 95/203/63
f 174/207/65 127/206/65 134/204/64 133/205/64
f 175/209/66 138/208/66 127/206/65 174/207/65
f 177/211/67 141/210/67 138/208/66 175/209/66
f 178/213/68 110/212/68 141/210/67 177/211/67
f 179/215/69 136/214/69 110/212/68 178/213/68
f 143/217/70 144/216/70 136/214/69 179/215/69
f 77/219/21 73/218/21 144/216/70 143/217/70

