# This file uses centimeters as units for non-parametric coordinates.

mtllib Left Pylon.mtl
g default
v -5.516157 -0.343684 3.493291
v -5.246388 -0.343684 3.493291
v -5.516157 -0.343684 1.979533
v -5.246388 -0.343684 1.979533
v -5.246388 0.224866 3.493291
v -5.246388 0.793334 1.979534
v -5.246388 1.361966 3.493291
v -5.130524 0.224866 3.493291
v -4.878018 0.793334 1.979534
v -5.130524 1.361966 3.493291
v -5.321730 1.926029 3.493291
v -5.347545 1.935487 3.493291
v -5.308019 1.914672 3.493291
v -5.321730 1.926029 1.979533
v -5.308019 1.914672 1.979533
v -5.347545 1.935487 1.979533
v -5.440816 1.926029 3.493291
v -5.454528 1.914672 3.493291
v -5.415001 1.935487 3.493291
v -5.440816 1.926029 1.979533
v -5.415001 1.935487 1.979533
v -5.454528 1.914672 1.979533
v -5.381273 1.940574 3.493291
v -5.381273 1.940574 1.979533
v -5.381273 1.935487 3.493291
v -5.381273 1.926029 3.493291
v -5.381273 1.914672 3.493291
v -5.381273 -0.343684 3.493291
v -5.381273 -0.343684 1.979533
v -5.381273 1.914672 1.979533
v -5.381273 1.926029 1.979533
v -5.381273 1.935487 1.979533
v -5.398137 1.938030 3.493291
v -5.398137 1.938030 1.979533
v -5.334638 1.930758 3.493291
v -5.334638 1.930758 1.979533
v -5.314875 1.920351 3.493291
v -5.314875 1.920351 1.979533
v -5.447672 1.920351 3.493291
v -5.447672 1.920351 1.979533
v -5.427909 1.930758 3.493291
v -5.427909 1.930758 1.979533
v -5.364409 1.938030 3.493291
v -5.364409 1.938030 1.979533
v -5.381273 1.920351 1.979533
v -5.381273 1.930758 1.979533
v -5.381273 1.938030 1.979533
v -5.381273 1.920351 3.493291
v -5.381273 1.930758 3.493291
v -5.381273 1.938030 3.493291
v -5.130524 0.793416 3.493291
v -5.246388 0.793416 3.493291
v -5.381273 0.793526 3.493291
v -5.485342 0.793526 3.493291
v -5.485342 0.793526 1.979533
v -5.381273 0.793526 1.979533
v -5.130524 0.224866 1.986166
v -5.246388 0.224825 1.979533
v -5.130524 1.361966 1.986166
v -5.277204 1.354003 1.979533
v -5.381273 0.224921 1.979533
v -5.500749 0.224921 1.979533
v -5.500749 0.224921 3.493291
v -5.381273 0.224921 3.493291
v -5.381273 1.354099 3.493291
v -5.469935 1.354099 3.493291
v -5.469935 1.354099 1.979533
v -5.381273 1.354099 1.979533
v -5.216585 0.787722 1.012444
v -4.850750 0.797697 1.012397
vt 0.960276 0.001845
vt 0.961021 0.080204
vt 0.964334 0.080249
vt 0.963915 0.001807
vt 0.953026 0.001848
vt 0.954405 0.080206
vt 0.957713 0.080153
vt 0.956651 0.001892
vt 0.957724 0.081053
vt 0.942586 0.080636
vt 0.940099 0.080786
vt 0.957727 0.081277
vt 0.957719 0.080605
vt 0.948083 0.080370
vt 0.945073 0.080487
vt 0.957721 0.080812
vt 0.957714 0.080267
vt 0.951094 0.080254
vt 0.957716 0.080386
vt 0.956649 0.001724
vt 0.956647 0.001540
vt 0.956642 0.001189
vt 0.967223 0.001705
vt 0.970551 0.001606
vt 0.956637 0.000847
vt 0.956632 0.000428
vt 0.973299 0.001474
vt 0.976071 0.001344
vt 0.956626 0.000000
vt 0.589975 0.633107
vt 0.332130 0.625523
vt 0.341160 0.744192
vt 0.333114 0.753136
vt 0.319416 0.625272
vt 0.666638 0.202224
vt 0.870681 0.202224
vt 0.870681 0.118983
vt 0.666638 0.118983
vt 0.946076 0.001714
vt 0.942744 0.001617
vt 0.949386 0.001813
vt 0.939993 0.001487
vt 0.937218 0.001359
vt 0.970362 0.080477
vt 0.972853 0.080624
vt 0.975343 0.080772
vt 0.967348 0.080362
vt 0.934134 0.415229
vt 0.962119 0.415226
vt 0.961544 0.372616
vt 0.933559 0.372623
vt 0.958174 0.122768
vt 0.936576 0.122783
vt 0.930755 0.164802
vt 0.958739 0.164776
vt 0.983710 0.415218
vt 0.986331 0.372606
vt 0.346703 0.505970
vt 0.338820 0.496700
vt 0.934709 0.457836
vt 0.962686 0.457235
vt 0.981080 0.457228
vt 0.666638 0.284290
vt 0.870681 0.284290
vt 0.931330 0.207405
vt 0.959314 0.207387
vt 0.976574 0.122760
vt 0.980330 0.164768
vt 0.960969 0.330006
vt 0.959889 0.249997
vt 0.931904 0.250008
vt 0.932984 0.330017
vt 0.988953 0.329995
vt 0.987873 0.249986
vt 0.574877 0.491821
vt 0.572709 0.475948
vt 0.984101 0.207377
vt 0.870681 0.035742
vt 0.666638 0.035742
vt 0.284063 0.815699
vt 0.035903 0.815706
vt 0.035903 0.714477
vt 0.284063 0.714477
vt 0.963253 0.499243
vt 0.978451 0.499237
vt 0.666638 0.366355
vt 0.870681 0.366355
vt 0.635661 0.833108
vt 0.964108 0.831231
vt 0.964108 0.963354
vt 0.635661 0.963354
vt 0.948054 0.499249
vt 0.563346 0.773742
vt 0.000000 0.421341
vt 0.181455 0.409045
vt 0.184326 0.287751
vt 0.178699 0.452923
vt 0.000923 0.443197
vt 0.175403 0.579152
vt 0.360543 0.431904
vt 0.357308 0.459295
vt 0.560891 0.786058
vn -0.149163 0.988813 0.000000
vn -0.149163 0.988813 0.000000
vn -0.237297 0.971437 0.000000
vn -0.237297 0.971437 0.000000
vn 0.149144 0.988816 0.000000
vn 0.149144 0.988816 0.000000
vn 0.000000 1.000000 0.000000
vn 0.000000 1.000000 0.000000
vn 0.000000 0.000000 -1.000000
vn 0.000000 0.000000 -1.000000
vn 0.000000 0.000000 -1.000000
vn 0.000000 0.000000 -1.000000
vn 0.000000 0.000000 -1.000000
vn 0.000000 0.000000 -1.000000
vn 0.000000 0.000000 -1.000000
vn 0.000000 0.000000 -1.000000
vn 0.000000 0.000000 -1.000000
vn 0.000000 0.000000 -1.000000
vn 0.000000 0.000000 -1.000000
vn 0.000000 0.000000 -1.000000
vn 0.000000 0.000000 1.000000
vn 0.000000 0.000000 1.000000
vn 0.000000 0.000000 1.000000
vn 0.000000 0.000000 1.000000
vn 0.000000 0.000000 1.000000
vn 0.000000 0.000000 1.000000
vn 0.000000 0.000000 1.000000
vn 0.000000 0.000000 1.000000
vn 0.000000 0.000000 1.000000
vn 0.000000 0.000000 1.000000
vn 0.000000 0.000000 1.000000
vn -0.000002 0.000000 1.000000
vn 0.000000 0.000000 1.000000
vn 0.000000 0.000000 1.000000
vn 0.000000 0.000000 1.000000
vn -0.149135 0.988817 0.000000
vn -0.149135 0.988817 0.000000
vn 0.986371 0.000000 0.164534
vn 0.986371 0.000000 0.164534
vn 0.986371 0.000000 0.164534
vn 0.000000 0.000000 1.000000
vn 0.000000 0.000000 1.000000
vn 0.000000 0.000000 1.000000
vn 0.000000 0.000000 1.000000
vn -0.999628 0.027279 0.000000
vn -0.999628 0.027279 0.000000
vn -0.999633 0.027087 0.000000
vn -0.999633 0.027087 0.000000
vn 0.344005 0.938968 0.000000
vn 0.344005 0.938968 0.000000
vn 0.344005 0.938968 0.000000
vn 0.344005 0.938968 0.000000
vn 0.343983 0.938976 0.000000
vn 0.343983 0.938976 0.000000
vn 0.237297 0.971437 0.000000
vn 0.237297 0.971437 0.000000
vn 0.637890 0.770128 0.000000
vn 0.995523 0.093962 -0.010246
vn 0.995523 0.093962 -0.010246
vn 0.637890 0.770128 0.000000
vn 0.637901 0.770118 0.000000
vn 0.637901 0.770118 0.000000
vn 0.637901 0.770118 0.000000
vn 0.637901 0.770118 0.000000
vn -0.637901 0.770118 0.000000
vn -0.637901 0.770118 0.000000
vn -0.637901 0.770118 0.000000
vn -0.637901 0.770118 0.000000
vn -0.637864 0.770149 0.000000
vn -0.637864 0.770149 0.000000
vn -0.999228 0.039286 0.000000
vn -0.999228 0.039286 0.000000
vn -0.343972 0.938980 0.000000
vn -0.343972 0.938980 0.000000
vn -0.344005 0.938968 0.000000
vn -0.344005 0.938968 0.000000
vn -0.344005 0.938968 0.000000
vn -0.344005 0.938968 0.000000
vn 0.000000 0.000000 1.000000
vn 0.000000 0.000000 1.000000
vn 0.000001 -0.000000 -1.000000
vn 0.000001 -0.000000 -1.000000
vn 0.000001 0.000000 -1.000000
vn 0.000001 0.000000 -1.000000
vn 0.149159 0.988813 0.000000
vn 0.149159 0.988813 0.000000
vn 0.000000 0.000000 -1.000000
vn 0.000000 0.000000 -1.000000
vn 0.000000 0.000000 -1.000000
vn 0.000000 0.000000 -1.000000
vn 0.000000 0.000000 -1.000000
vn 0.000000 0.000000 -1.000000
vn 0.000000 0.000000 -1.000000
vn -0.000003 0.000000 1.000000
vn 0.000000 0.000000 1.000000
vn 0.000000 0.000000 1.000000
vn 0.000000 0.000000 1.000000
vn 0.000000 0.000000 1.000000
vn 0.000000 0.000000 1.000000
vn 0.000000 0.000000 1.000000
vn 0.000000 0.000000 1.000000
vn 0.000000 0.000000 1.000000
vn 0.000000 0.000000 1.000000
vn 0.000000 0.000000 1.000000
vn 0.000000 0.000000 1.000000
vn 0.000000 0.000000 1.000000
vn 0.000000 0.000000 1.000000
vn 0.000000 0.000000 1.000000
vn 0.000000 0.000000 1.000000
vn -0.000001 0.000000 1.000000
vn -0.000001 0.000000 1.000000
vn 0.000000 0.000000 1.000000
vn -0.999623 0.027474 0.000000
vn -0.999623 0.027474 0.000000
vn 0.986371 0.000000 0.164534
vn 0.000001 0.000000 -1.000000
vn 0.000001 0.000000 -1.000000
vn 0.000000 0.000000 -1.000000
vn 0.000000 0.000000 -1.000000
vn 0.000000 0.000000 -1.000000
vn 0.000000 0.000000 -1.000000
vn 0.000000 -1.000000 0.000000
vn 0.000000 -1.000000 0.000000
vn 0.000000 -1.000000 0.000000
vn 0.000000 -1.000000 0.000000
vn 0.000000 -1.000000 0.000000
vn 0.000000 -1.000000 0.000000
vn -0.030258 0.999539 -0.002326
vn -0.030258 0.999539 -0.002326
vn -0.027309 0.950861 -0.308410
vn -0.027060 0.945295 -0.325094
vn 0.000000 0.000000 -1.000000
vn 0.000000 0.000000 -1.000000
vn 0.000000 0.000000 -1.000000
vn 0.000000 0.000000 -1.000000
vn 0.000000 0.000000 -1.000000
vn 0.000000 0.000000 -1.000000
vn 0.000000 0.000000 -1.000000
vn 0.000000 0.000000 -1.000000
vn 0.000000 0.000000 -1.000000
vn 0.000000 0.000000 -1.000000
vn 0.000000 0.000000 -1.000000
vn 0.000000 0.000000 -1.000000
vn 0.000000 0.000000 -1.000000
vn 0.000000 0.000000 -1.000000
vn 0.000000 0.000000 -1.000000
vn 0.000001 0.000000 -1.000000
vn 0.000001 0.000000 -1.000000
vn 0.000000 0.000000 -1.000000
vn 0.000000 0.000000 -1.000000
vn -0.999633 0.027087 0.000000
vn -0.999633 0.027087 0.000000
vn 0.000000 0.000000 1.000000
vn 0.000000 0.000000 1.000000
vn 0.000000 0.000000 1.000000
vn 1.000000 0.000000 0.000000
vn 1.000000 0.000000 0.000000
vn 1.000000 0.000000 0.000000
vn 1.000000 0.000000 0.000000
vn 0.996517 0.082743 -0.010361
vn 0.996517 0.082743 -0.010361
vn 0.913943 0.405844 0.000000
vn 0.999905 -0.000869 0.013762
vn 0.913950 0.405764 0.007161
vn 0.913899 -0.405942 0.000000
vn 0.913908 -0.405874 0.006172
vn 0.999601 0.001713 0.028191
vn -0.999166 -0.026998 -0.030636
vn -0.999526 0.000001 -0.030803
vn -0.999155 -0.027415 -0.030633
vn -0.023666 0.862039 -0.506289
vn -0.023666 0.862039 -0.506289
vn -0.998030 -0.054854 -0.030439
vn 0.024839 -0.864545 -0.501942
vn 0.024839 -0.864545 -0.501942
vn 0.024839 -0.864545 -0.501942
vn 0.024839 -0.864545 -0.501942
vn 0.000177 -1.000000 0.000014
vn 0.000177 -1.000000 0.000014
vn 0.000177 -1.000000 0.000014
vn 0.000177 -1.000000 0.000014
s 1
g polySurface29 polySurface24
usemtl initialShadingGroup
f 33/1/1 34/2/2 21/3/3 19/4/4
s 2
f 43/5/5 44/6/6 24/7/7 23/8/8
s 3
f 45/9/9 38/10/10 15/11/11 30/12/12
s 4
f 46/13/13 36/14/14 14/15/15 31/16/16
s 5
f 47/17/17 44/6/18 16/18/19 32/19/20
s 6
f 50/20/21 33/1/22 19/4/23 25/21/24
s 7
f 49/22/25 41/23/26 17/24/27 26/25/28
s 8
f 48/26/29 39/27/30 18/28/31 27/29/32
s 9
f 43/5/33 23/8/34 50/20/35
s 2
f 33/1/36 23/8/8 24/7/7 34/2/37
s 10
f 9/30/38 51/31/39 8/32/40
s 8
f 5/33/41 8/32/42 51/31/43 52/34/44
s 12
f 54/35/45 55/36/46 62/37/47 63/38/48
s off
f 35/39/49 11/40/50 14/15/51 36/14/52
s 13
f 35/39/53 36/14/54 16/18/55 12/41/56
s 14
f 37/42/57 13/43/58 15/11/59 38/10/60
s off
f 37/42/61 38/10/62 14/15/63 11/40/64
f 39/27/65 17/24/66 20/44/67 40/45/68
s 12
f 39/27/69 40/45/70 22/46/71 18/28/72
s 1
f 41/23/73 19/4/4 21/3/3 42/47/74
s off
f 41/23/75 42/47/76 20/44/77 17/24/78
s 8
f 52/48/44 53/49/79 64/50/80 5/51/41
s 3
f 68/52/81 60/53/82 6/54/83 56/55/84
s 13
f 43/5/85 12/41/56 16/18/55 44/6/86
s 4
f 45/9/87 31/16/16 14/15/15 38/10/88
s 5
f 46/13/89 32/19/20 16/18/19 36/14/90
s off
f 47/17/91 24/7/92 44/6/93
s 8
f 48/26/29 27/29/32 13/43/94 37/42/95
s 7
f 48/26/96 37/42/97 11/40/98 26/25/28
f 49/22/25 26/25/28 11/40/98 35/39/99
s 6
f 49/22/100 35/39/101 12/41/102 25/21/24
s 9
f 50/20/35 23/8/34 33/1/103
s 6
f 49/22/100 25/21/24 19/4/23 41/23/104
s 7
f 48/26/96 26/25/28 17/24/27 39/27/105
s 8
f 53/49/79 54/56/106 63/57/107 64/50/80
s 6
f 50/20/21 25/21/24 12/41/102 43/5/108
s 8
f 52/34/44 51/31/43 10/58/109 7/59/110
f 7/60/110 65/61/111 53/49/79 52/48/44
f 65/61/111 66/62/112 54/56/106 53/49/79
s 12
f 66/63/113 67/64/114 55/36/46 54/35/45
s 10
f 9/30/38 10/58/115 51/31/39
s 3
f 56/55/84 6/54/83 58/65/116 61/66/117
s 16
f 67/67/118 68/52/119 56/55/120 55/68/121
s 17
f 28/69/122 29/70/123 4/71/124 2/72/125
f 28/69/122 1/73/126 3/74/127 29/70/123
s 18
f 7/59/128 10/58/129 59/75/130 60/76/131
s 16
f 55/68/121 56/55/120 61/66/132 62/77/133
f 40/45/134 45/9/135 30/12/136 22/46/137
f 20/44/138 31/16/139 45/9/135 40/45/134
f 42/47/140 46/13/141 31/16/139 20/44/138
f 21/3/142 32/19/143 46/13/141 42/47/140
f 34/2/144 47/17/145 32/19/143 21/3/142
f 34/2/144 24/7/146 47/17/145
s 3
f 61/66/117 58/65/116 4/71/147 29/70/148
s 16
f 62/77/133 61/66/132 29/70/149 3/74/150
s 12
f 63/38/48 62/37/47 3/78/151 1/79/152
s 8
f 64/50/80 63/57/107 1/73/153 28/69/154
f 5/51/41 64/50/80 28/69/154 2/72/155
s off
f 58/80/156 5/81/157 2/82/158 4/83/159
s 8
f 27/84/32 18/85/31 66/62/112 65/61/111
s 12
f 18/86/72 22/87/71 67/64/114 66/63/113
s 16
f 22/46/137 30/12/136 68/52/119 67/67/118
s 3
f 15/11/11 60/53/82 68/52/81 30/12/12
s 14
f 7/88/160 60/89/161 15/90/59 13/91/58
s 8
f 27/84/32 65/61/111 7/60/110 13/92/94
s 20
f 10/58/162 9/30/163 59/75/164
f 9/30/163 8/32/165 57/93/166
f 57/94/166 70/95/167 9/96/163
s 22
f 69/97/168 58/98/169 6/99/170
s 20
f 9/96/163 70/95/167 59/100/164
s 18
f 59/100/130 70/95/171 69/97/172 60/101/131
s 22
f 60/101/173 69/97/168 6/99/170
s off
f 70/95/174 57/94/175 58/98/176 69/97/177
f 8/32/178 5/33/179 58/102/180 57/93/181
