# This file uses centimeters as units for non-parametric coordinates.

mtllib Left Wall.mtl
g default
v -5.331274 -0.143047 1.689442
v -5.331274 -0.117279 1.825794
v -5.331274 -0.046879 1.925609
v -5.331274 0.049290 1.962144
v -5.397362 -0.143047 1.689442
v -5.397362 0.049290 1.962144
v -5.397362 -0.046879 1.925609
v -5.397362 -0.117279 1.825794
v -5.331274 1.780516 1.689442
v -5.331274 1.588179 1.962144
v -5.331274 1.684347 1.925609
v -5.331274 1.754748 1.825794
v -5.397362 1.780516 1.689442
v -5.397362 1.754748 1.825794
v -5.397362 1.684347 1.925609
v -5.397362 1.588179 1.962144
v -5.331274 1.588179 -6.877529
v -5.331274 1.780516 -6.604827
v -5.331274 1.754748 -6.741179
v -5.331274 1.684347 -6.840994
v -5.397362 1.588179 -6.877529
v -5.397362 1.684347 -6.840994
v -5.397362 1.754748 -6.741179
v -5.397362 1.780516 -6.604827
v -5.331274 -0.143047 -6.604827
v -5.331274 0.049290 -6.877529
v -5.331274 -0.046879 -6.840994
v -5.331274 -0.117279 -6.741179
v -5.397362 -0.143047 -6.604827
v -5.397362 -0.117279 -6.741179
v -5.397362 -0.046879 -6.840994
v -5.397362 0.049290 -6.877529
v -5.397362 1.754748 1.689442
v -5.397362 1.684347 1.689442
v -5.397362 1.588179 1.689440
v -5.397362 0.049290 1.689442
v -5.397362 -0.046879 1.689442
v -5.397362 -0.117279 1.689442
v -5.331274 1.754748 1.689442
v -5.331274 1.684347 1.689445
v -5.331274 1.588179 1.689442
v -5.331274 0.049290 1.689442
v -5.331274 -0.046879 1.689442
v -5.331274 -0.117279 1.689442
v -5.397362 1.684347 1.825794
v -5.397362 1.588179 1.825794
v -5.397362 0.049290 1.825794
v -5.397362 -0.046879 1.825794
v -5.397362 0.049290 1.925609
v -5.397362 1.588179 1.925609
v -5.331274 1.684347 1.825794
v -5.331274 1.588179 1.825794
v -5.331274 0.049290 1.825794
v -5.331274 -0.046879 1.825794
v -5.331274 0.049290 1.925609
v -5.331274 1.588179 1.925609
v -5.331274 -0.117279 -6.604829
v -5.331274 -0.046879 -6.604828
v -5.331274 0.049290 -6.604825
v -5.331274 1.588179 -6.604825
v -5.331274 1.684347 -6.604826
v -5.331274 1.754748 -6.604829
v -5.331274 1.684347 -6.741179
v -5.331274 1.588179 -6.741179
v -5.331274 0.049290 -6.741179
v -5.331274 -0.046879 -6.741179
v -5.331274 0.049290 -6.840994
v -5.331274 1.588179 -6.840994
vt 0.009012 0.090586
vt 0.009012 0.387368
vt 0.009012 0.387368
vt 0.009012 0.090586
vt 0.039306 0.424462
vt 0.960694 0.424462
vt 0.960694 0.424462
vt 0.039306 0.424462
vt 0.990988 0.387368
vt 0.990988 0.090586
vt 0.990988 0.090586
vt 0.990988 0.387368
vt 0.960694 0.053493
vt 0.039306 0.053493
vt 0.039306 0.053493
vt 0.960694 0.053493
vt 0.013071 0.072040
vt 0.013071 0.072040
vt 0.024159 0.058463
vt 0.024159 0.058463
vt 0.024159 0.419492
vt 0.024159 0.419492
vt 0.013071 0.405915
vt 0.013071 0.405915
vt 0.986929 0.405915
vt 0.986929 0.405915
vt 0.975841 0.419492
vt 0.975841 0.419492
vt 0.975841 0.058463
vt 0.975841 0.058463
vt 0.986929 0.072040
vt 0.986929 0.072040
vt 0.039306 0.058463
vt 0.039306 0.090586
vt 0.039306 0.387368
vt 0.024159 0.405915
vt 0.039306 0.419492
vt 0.039306 0.405915
vt 0.013071 0.387368
vt 0.024159 0.387368
vt 0.039306 0.419492
vt 0.013071 0.090586
vt 0.024159 0.090586
vt 0.024159 0.072040
vt 0.039306 0.072040
vt 0.039306 0.058463
vt 0.024159 0.405915
vt 0.024159 0.387368
vt 0.024159 0.090586
vt 0.024159 0.072040
vt 0.960694 0.419492
vt 0.960694 0.405915
vt 0.975841 0.405915
vt 0.960694 0.387368
vt 0.975841 0.387368
vt 0.960694 0.090586
vt 0.975841 0.090586
vt 0.960694 0.072040
vt 0.975841 0.072040
vt 0.960694 0.058463
vt 0.013071 0.387368
vt 0.013071 0.090586
vt 0.039306 0.405915
vt 0.039306 0.387368
vt 0.039306 0.090586
vt 0.039306 0.072040
vt 0.986929 0.387368
vt 0.986929 0.090586
vn 0.000000 -0.022340 0.999750
vn 0.000000 0.022340 0.999750
vn 0.000000 0.022340 0.999750
vn 0.000000 -0.022340 0.999750
vn 0.000000 0.999995 0.003056
vn 0.000000 0.999995 -0.003056
vn 0.000000 0.999995 -0.003056
vn 0.000000 0.999995 0.003056
vn 0.000000 0.022339 -0.999750
vn 0.000000 -0.022339 -0.999750
vn 0.000000 -0.022339 -0.999750
vn 0.000000 0.022339 -0.999750
vn 0.000000 -0.999995 -0.003056
vn 0.000000 -0.999995 0.003056
vn 0.000000 -0.999995 0.003056
vn 0.000000 -0.999995 -0.003056
vn 0.000000 -0.355146 0.934811
vn 0.000000 -0.355146 0.934811
vn 0.000000 -0.817189 0.576369
vn 0.000000 -0.817189 0.576369
vn 0.000000 -0.817189 0.576369
vn 0.000000 -0.817189 0.576369
vn 0.000000 -0.982607 0.185696
vn 0.000000 -0.982607 0.185696
vn 0.000000 0.982607 0.185698
vn 0.000000 0.982607 0.185698
vn 0.000000 0.817189 0.576370
vn 0.000000 0.817189 0.576370
vn 0.000000 0.817189 0.576370
vn 0.000000 0.817189 0.576370
vn 0.000000 0.355147 0.934810
vn 0.000000 0.355147 0.934810
vn 0.000000 0.633424 -0.773805
vn 0.000000 0.633424 -0.773805
vn 0.000000 0.817189 -0.576370
vn 0.000000 0.817189 -0.576370
vn 0.000000 0.982607 -0.185697
vn 0.000000 0.982607 -0.185697
vn 0.000000 -0.982607 -0.185695
vn 0.000000 -0.982607 -0.185695
vn 0.000000 -0.817189 -0.576369
vn 0.000000 -0.817189 -0.576369
vn 0.000000 -0.633424 -0.773805
vn 0.000000 -0.633424 -0.773805
vn 1.000000 -0.000001 0.000000
vn 1.000000 -0.000000 0.000000
vn 1.000000 0.000000 0.000000
vn -1.000000 -0.000000 0.000000
vn -1.000000 0.000000 0.000000
vn -1.000000 0.000000 0.000000
vn -1.000000 -0.000000 0.000000
vn 1.000000 0.000001 0.000000
vn 1.000000 0.000000 0.000000
vn 1.000000 0.000000 0.000000
vn -1.000000 -0.000002 0.000000
vn -1.000000 -0.000000 0.000000
vn -1.000000 -0.000001 0.000000
vn -1.000000 -0.000001 0.000000
vn 1.000000 0.000000 0.000000
vn 1.000000 -0.000000 0.000000
vn 1.000000 0.000006 0.000000
vn 1.000000 0.000004 0.000000
vn -1.000000 -0.000008 0.000000
vn -1.000000 -0.000008 0.000000
vn 1.000000 0.000000 0.000000
vn 1.000000 0.000000 0.000000
vn 1.000000 0.000000 0.000000
vn 1.000000 -0.000000 0.000000
vn -1.000000 0.000001 0.000000
vn -1.000000 0.000002 0.000000
vn -1.000000 0.000005 0.000000
vn -1.000000 0.000007 0.000000
vn -1.000000 0.000013 0.000000
vn -1.000000 0.000013 0.000000
vn -1.000000 0.000000 0.000000
vn -1.000000 -0.000000 0.000000
vn -1.000000 0.000000 0.000000
vn -1.000000 0.000000 0.000000
vn -1.000000 0.000000 0.000000
vn -1.000000 0.000000 0.000000
vn 1.000000 0.000000 0.000000
vn 1.000000 0.000006 0.000000
vn 1.000000 0.000004 0.000000
vn 1.000000 -0.000002 0.000000
vn 1.000000 0.000000 0.000000
vn 1.000000 -0.000000 0.000000
vn 1.000000 0.000000 0.000000
vn 1.000000 0.000000 0.000000
vn 1.000000 0.000000 0.000000
vn 1.000000 0.000002 0.000000
vn 1.000000 0.000000 0.000000
vn 1.000000 -0.000000 0.000000
vn 1.000000 -0.000001 0.000000
vn 1.000000 -0.000000 0.000000
vn -1.000000 0.000000 0.000000
vn -1.000000 0.000000 0.000000
vn -1.000000 0.000000 0.000000
vn -1.000000 0.000000 0.000000
vn -1.000000 0.000000 0.000000
vn -1.000000 0.000000 0.000000
vn 1.000000 -0.000002 0.000000
vn 1.000000 -0.000000 0.000000
vn 1.000000 0.000000 0.000000
vn 1.000000 0.000002 0.000000
vn 1.000000 0.000000 0.000000
vn 1.000000 0.000000 0.000000
vn 1.000000 0.000000 0.000000
vn 1.000000 0.000000 0.000000
vn 1.000000 0.000000 0.000000
vn 1.000000 0.000000 0.000000
vn 1.000000 0.000000 0.000000
vn 1.000000 0.000000 0.000000
s 1
g polySurface26 polySurface23
usemtl initialShadingGroup
f 4/1/1 10/2/2 16/3/3 6/4/4
s 2
f 9/5/5 18/6/6 24/7/7 13/8/8
s 3
f 17/9/9 26/10/10 32/11/11 21/12/12
s 4
f 25/13/13 1/14/14 5/15/15 29/16/16
s 1
f 4/1/1 6/4/4 7/17/17 3/18/18
s off
f 3/18/19 7/17/20 8/19/21 2/20/22
s 4
f 2/20/23 8/19/24 5/15/15 1/14/14
s 2
f 9/5/5 13/8/8 14/21/25 12/22/26
s off
f 12/22/27 14/21/28 15/23/29 11/24/30
s 1
f 11/24/31 15/23/32 16/3/3 10/2/2
s 3
f 17/9/9 21/12/12 22/25/33 20/26/34
f 20/26/34 22/25/33 23/27/35 19/28/36
s 2
f 19/28/37 23/27/38 24/7/7 18/6/6
s 4
f 25/13/13 29/16/16 30/29/39 28/30/40
s 3
f 28/30/41 30/29/42 31/31/43 27/32/44
f 27/32/44 31/31/43 32/11/11 26/10/10
s 5
f 44/33/45 2/20/46 1/14/47
s 6
f 21/12/48 32/11/49 36/34/50 35/35/51
s 5
f 12/22/52 11/24/53 51/36/54
s 6
f 33/37/55 23/27/56 22/25/57 34/38/58
s 5
f 51/36/54 11/24/53 56/39/59 52/40/60
s 6
f 21/12/48 35/35/51 34/38/58 22/25/57
s 5
f 9/5/61 12/22/52 39/41/62
s 6
f 13/8/63 24/7/64 23/27/56 33/37/55
s 5
f 52/40/60 56/39/59 55/42/65 53/43/66
f 53/43/66 55/42/65 3/18/67 54/44/68
f 54/44/68 3/18/67 2/20/46
s 6
f 32/11/49 31/31/69 37/45/70 36/34/50
f 31/31/69 30/29/71 38/46/72 37/45/70
f 30/29/71 29/16/73 5/15/74 38/46/72
f 14/21/75 13/8/63 33/37/55
f 14/21/75 33/37/55 34/38/58 45/47/76
f 35/35/51 46/48/77 45/47/76 34/38/58
f 36/34/50 47/49/78 46/48/77 35/35/51
f 37/45/70 48/50/79 47/49/78 36/34/50
f 38/46/72 8/19/80 48/50/79 37/45/70
f 5/15/74 8/19/80 38/46/72
s 5
f 19/28/81 18/6/82 62/51/83
f 19/28/81 62/51/83 61/52/84 63/53/85
f 63/53/85 61/52/84 60/54/86 64/55/87
f 64/55/87 60/54/86 59/56/88 65/57/89
f 65/57/89 59/56/88 58/58/90 66/59/91
f 28/30/92 66/59/91 58/58/90 57/60/93
f 25/13/94 28/30/92 57/60/93
s 6
f 15/23/95 14/21/75 45/47/76
f 50/61/96 16/3/97 15/23/95
f 49/62/98 6/4/99 16/3/97 50/61/96
f 7/17/100 6/4/99 49/62/98
f 8/19/80 7/17/100 48/50/79
f 48/50/79 7/17/100 49/62/98 47/49/78
f 47/49/78 49/62/98 50/61/96 46/48/77
f 46/48/77 50/61/96 15/23/95 45/47/76
s 5
f 39/41/62 12/22/52 51/36/54 40/63/101
f 40/63/101 51/36/54 52/40/60 41/64/102
f 41/64/102 52/40/60 53/43/66 42/65/103
f 42/65/103 53/43/66 54/44/68 43/66/104
f 43/66/104 54/44/68 2/20/46 44/33/45
f 55/42/65 4/1/105 3/18/67
f 56/39/59 10/2/106 4/1/105 55/42/65
f 11/24/53 10/2/106 56/39/59
f 25/13/94 57/60/93 44/33/45 1/14/47
f 58/58/90 43/66/104 44/33/45 57/60/93
f 59/56/88 42/65/103 43/66/104 58/58/90
f 60/54/86 41/64/102 42/65/103 59/56/88
f 61/52/84 40/63/101 41/64/102 60/54/86
f 62/51/83 39/41/62 40/63/101 61/52/84
f 18/6/82 9/5/61 39/41/62 62/51/83
f 20/26/107 19/28/81 63/53/85
f 17/9/108 20/26/107 68/67/109
f 26/10/110 17/9/108 68/67/109 67/68/111
f 27/32/112 26/10/110 67/68/111
f 28/30/92 27/32/112 66/59/91
f 27/32/112 67/68/111 65/57/89 66/59/91
f 68/67/109 64/55/87 65/57/89 67/68/111
f 20/26/107 63/53/85 64/55/87 68/67/109
