# This file uses centimeters as units for non-parametric coordinates.

mtllib Right Pylon.mtl
g default
v 5.558344 -0.343684 3.493291
v 5.288576 -0.343684 3.493291
v 5.558344 -0.343684 1.979533
v 5.288576 -0.343684 1.979533
v 5.288576 0.224866 3.493291
v 5.288576 0.793334 1.979534
v 5.288576 1.361966 3.493291
v 5.172712 0.224866 3.493291
v 4.920205 0.793334 1.979534
v 5.172712 1.361966 3.493291
v 5.363918 1.926029 3.493291
v 5.389733 1.935487 3.493291
v 5.350207 1.914672 3.493291
v 5.363918 1.926029 1.979533
v 5.350207 1.914672 1.979533
v 5.389733 1.935487 1.979533
v 5.483004 1.926029 3.493291
v 5.496715 1.914672 3.493291
v 5.457188 1.935487 3.493291
v 5.483004 1.926029 1.979533
v 5.457188 1.935487 1.979533
v 5.496715 1.914672 1.979533
v 5.423460 1.940574 3.493291
v 5.423460 1.940574 1.979533
v 5.423460 1.935487 3.493291
v 5.423460 1.926029 3.493291
v 5.423460 1.914672 3.493291
v 5.423460 -0.343684 3.493291
v 5.423460 -0.343684 1.979533
v 5.423460 1.914672 1.979533
v 5.423460 1.926029 1.979533
v 5.423460 1.935487 1.979533
v 5.440325 1.938030 3.493291
v 5.440325 1.938030 1.979533
v 5.376825 1.930758 3.493291
v 5.376825 1.930758 1.979533
v 5.357062 1.920351 3.493291
v 5.357062 1.920351 1.979533
v 5.489859 1.920351 3.493291
v 5.489859 1.920351 1.979533
v 5.470097 1.930758 3.493291
v 5.470097 1.930758 1.979533
v 5.406597 1.938030 3.493291
v 5.406597 1.938030 1.979533
v 5.423460 1.920351 1.979533
v 5.423460 1.930758 1.979533
v 5.423460 1.938030 1.979533
v 5.423460 1.920351 3.493291
v 5.423460 1.930758 3.493291
v 5.423460 1.938030 3.493291
v 5.172712 0.793416 3.493291
v 5.288576 0.793416 3.493291
v 5.423460 0.793526 3.493291
v 5.527529 0.793526 3.493291
v 5.527529 0.793526 1.979533
v 5.423460 0.793526 1.979533
v 5.172712 0.224866 1.986166
v 5.288576 0.224825 1.979533
v 5.172712 1.361966 1.986166
v 5.319392 1.354003 1.979533
v 5.423460 0.224921 1.979533
v 5.542937 0.224921 1.979533
v 5.542937 0.224921 3.493291
v 5.423460 0.224921 3.493291
v 5.423460 1.354099 3.493291
v 5.512122 1.354099 3.493291
v 5.512122 1.354099 1.979533
v 5.423460 1.354099 1.979533
v 5.258772 0.787722 1.012444
v 4.892937 0.797697 1.012397
vt 0.901857 0.264887
vt 0.905496 0.264849
vt 0.905915 0.343291
vt 0.902602 0.343245
vt 0.894606 0.264889
vt 0.898232 0.264934
vt 0.899293 0.343194
vt 0.895986 0.343247
vt 0.899305 0.344094
vt 0.899308 0.344318
vt 0.881680 0.343827
vt 0.884167 0.343677
vt 0.899299 0.343647
vt 0.899302 0.343853
vt 0.886653 0.343529
vt 0.889664 0.343411
vt 0.899295 0.343309
vt 0.899297 0.343427
vt 0.892675 0.343296
vt 0.898230 0.264765
vt 0.898227 0.264582
vt 0.898223 0.264231
vt 0.898218 0.263888
vt 0.912132 0.264647
vt 0.908803 0.264747
vt 0.898212 0.263469
vt 0.898206 0.263041
vt 0.917651 0.264385
vt 0.914880 0.264515
vt 0.632706 0.291798
vt 0.377747 0.405626
vt 0.368494 0.284027
vt 0.369503 0.414791
vt 0.355466 0.283769
vt 0.639637 0.606704
vt 0.639637 0.518963
vt 0.854709 0.518963
vt 0.854709 0.606704
vt 0.887656 0.264755
vt 0.884325 0.264658
vt 0.890966 0.264854
vt 0.881574 0.264528
vt 0.878799 0.264401
vt 0.914433 0.343665
vt 0.911942 0.343519
vt 0.916924 0.343814
vt 0.908929 0.343403
vt 0.875715 0.678271
vt 0.875140 0.635664
vt 0.903124 0.635657
vt 0.903699 0.678268
vt 0.899754 0.385810
vt 0.900319 0.427818
vt 0.872335 0.427843
vt 0.878157 0.385824
vt 0.927912 0.635647
vt 0.925290 0.678259
vt 0.375349 0.152023
vt 0.383427 0.161522
vt 0.876290 0.720877
vt 0.904266 0.720276
vt 0.922661 0.720269
vt 0.639637 0.693205
vt 0.854709 0.693205
vt 0.900895 0.470428
vt 0.872910 0.470446
vt 0.918155 0.385802
vt 0.921911 0.427809
vt 0.902549 0.593047
vt 0.874565 0.593058
vt 0.873485 0.513049
vt 0.901470 0.513038
vt 0.929454 0.513027
vt 0.930534 0.593036
vt 0.615014 0.130759
vt 0.617235 0.147024
vt 0.925682 0.470418
vt 0.639637 0.431222
vt 0.854709 0.431222
vt 0.289051 0.689484
vt 0.289051 0.588262
vt 0.040891 0.588262
vt 0.040891 0.689491
vt 0.904833 0.762285
vt 0.920031 0.762279
vt 0.639637 0.779706
vt 0.854709 0.779706
vt 0.251323 0.839049
vt 0.251323 0.969296
vt 0.579770 0.969296
vt 0.579770 0.837173
vt 0.889635 0.762291
vt 0.605419 0.435906
vt 0.000000 0.133590
vt 0.184326 0.000000
vt 0.181455 0.121295
vt 0.178699 0.165172
vt 0.175403 0.291401
vt 0.000923 0.155446
vt 0.360543 0.144153
vt 0.357308 0.171544
vt 0.602904 0.448526
vn 0.149163 0.988813 0.000000
vn 0.237293 0.971438 0.000000
vn 0.237293 0.971438 0.000000
vn 0.149163 0.988813 0.000000
vn -0.149148 0.988815 0.000000
vn 0.000000 1.000000 0.000000
vn 0.000000 1.000000 0.000000
vn -0.149148 0.988815 0.000000
vn 0.000000 0.000000 -1.000000
vn 0.000000 0.000000 -1.000000
vn 0.000000 0.000000 -1.000000
vn 0.000000 0.000000 -1.000000
vn 0.000000 0.000000 -1.000000
vn 0.000000 0.000000 -1.000000
vn 0.000000 0.000000 -1.000000
vn 0.000000 0.000000 -1.000000
vn 0.000000 0.000000 -1.000000
vn 0.000000 0.000000 -1.000000
vn 0.000000 0.000000 -1.000000
vn 0.000000 0.000000 -1.000000
vn 0.000000 0.000000 1.000000
vn 0.000000 0.000000 1.000000
vn 0.000000 0.000000 1.000000
vn 0.000000 0.000000 1.000000
vn 0.000000 0.000000 1.000000
vn 0.000000 0.000000 1.000000
vn 0.000000 0.000000 1.000000
vn 0.000000 0.000000 1.000000
vn 0.000000 0.000000 1.000000
vn 0.000002 0.000000 1.000000
vn 0.000000 0.000000 1.000000
vn 0.000000 0.000000 1.000000
vn 0.000000 0.000000 1.000000
vn 0.000000 0.000000 1.000000
vn 0.000000 0.000000 1.000000
vn 0.149135 0.988817 0.000000
vn 0.149135 0.988817 0.000000
vn -0.986371 0.000000 0.164534
vn -0.986371 0.000000 0.164534
vn -0.986371 0.000000 0.164534
vn -0.000000 0.000000 1.000000
vn -0.000000 0.000000 1.000000
vn 0.000000 0.000000 1.000000
vn 0.000000 0.000000 1.000000
vn 0.999628 0.027279 0.000000
vn 0.999633 0.027087 0.000000
vn 0.999633 0.027087 0.000000
vn 0.999628 0.027279 0.000000
vn -0.344005 0.938968 0.000000
vn -0.344005 0.938968 0.000000
vn -0.344005 0.938968 0.000000
vn -0.344005 0.938968 0.000000
vn -0.343983 0.938976 0.000000
vn -0.237297 0.971437 0.000000
vn -0.237297 0.971437 0.000000
vn -0.343983 0.938976 0.000000
vn -0.637864 0.770149 0.000000
vn -0.637864 0.770149 0.000000
vn -0.995523 0.093962 -0.010246
vn -0.995523 0.093962 -0.010246
vn -0.637901 0.770118 0.000000
vn -0.637901 0.770118 0.000000
vn -0.637901 0.770118 0.000000
vn -0.637901 0.770118 0.000000
vn 0.637875 0.770140 0.000000
vn 0.637875 0.770140 0.000000
vn 0.637875 0.770140 0.000000
vn 0.637875 0.770140 0.000000
vn 0.637864 0.770149 0.000000
vn 0.999228 0.039286 0.000000
vn 0.999228 0.039286 0.000000
vn 0.637864 0.770149 0.000000
vn 0.343961 0.938984 0.000000
vn 0.343961 0.938984 0.000000
vn 0.344016 0.938964 0.000000
vn 0.344016 0.938964 0.000000
vn 0.344016 0.938964 0.000000
vn 0.344016 0.938964 0.000000
vn -0.000000 0.000000 1.000000
vn -0.000000 0.000000 1.000000
vn -0.000001 -0.000000 -1.000000
vn -0.000001 0.000000 -1.000000
vn -0.000001 0.000000 -1.000000
vn -0.000001 -0.000000 -1.000000
vn -0.149159 0.988813 0.000000
vn -0.149159 0.988813 0.000000
vn 0.000000 0.000000 -1.000000
vn 0.000000 0.000000 -1.000000
vn 0.000000 0.000000 -1.000000
vn 0.000000 0.000000 -1.000000
vn 0.000000 0.000000 -1.000000
vn 0.000000 0.000000 -1.000000
vn 0.000000 0.000000 -1.000000
vn 0.000000 0.000000 1.000000
vn 0.000003 0.000000 1.000000
vn 0.000000 0.000000 1.000000
vn 0.000000 0.000000 1.000000
vn 0.000000 0.000000 1.000000
vn 0.000000 0.000000 1.000000
vn 0.000000 0.000000 1.000000
vn 0.000000 0.000000 1.000000
vn 0.000000 0.000000 1.000000
vn 0.000000 0.000000 1.000000
vn 0.000000 0.000000 1.000000
vn 0.000000 0.000000 1.000000
vn 0.000000 0.000000 1.000000
vn 0.000000 0.000000 1.000000
vn 0.000000 0.000000 1.000000
vn 0.000001 0.000000 1.000000
vn 0.000000 0.000000 1.000000
vn 0.000001 0.000000 1.000000
vn 0.000000 0.000000 1.000000
vn 0.999623 0.027474 0.000000
vn 0.999623 0.027474 0.000000
vn -0.986371 0.000000 0.164534
vn -0.000000 0.000000 -1.000000
vn -0.000000 0.000000 -1.000000
vn 0.000000 0.000000 -1.000000
vn 0.000000 0.000000 -1.000000
vn 0.000000 0.000000 -1.000000
vn 0.000000 0.000000 -1.000000
vn 0.000000 -1.000000 0.000000
vn 0.000000 -1.000000 0.000000
vn 0.000000 -1.000000 0.000000
vn 0.000000 -1.000000 0.000000
vn 0.000000 -1.000000 0.000000
vn 0.000000 -1.000000 0.000000
vn 0.030258 0.999539 -0.002326
vn 0.027060 0.945294 -0.325094
vn 0.027309 0.950861 -0.308411
vn 0.030258 0.999539 -0.002326
vn 0.000000 0.000000 -1.000000
vn 0.000000 0.000000 -1.000000
vn 0.000000 0.000000 -1.000000
vn 0.000000 0.000000 -1.000000
vn 0.000000 0.000000 -1.000000
vn 0.000000 0.000000 -1.000000
vn 0.000000 0.000000 -1.000000
vn 0.000000 0.000000 -1.000000
vn 0.000000 0.000000 -1.000000
vn 0.000000 0.000000 -1.000000
vn 0.000000 0.000000 -1.000000
vn 0.000000 0.000000 -1.000000
vn 0.000000 0.000000 -1.000000
vn 0.000000 0.000000 -1.000000
vn 0.000000 0.000000 -1.000000
vn -0.000001 0.000000 -1.000000
vn -0.000001 0.000000 -1.000000
vn 0.000000 0.000000 -1.000000
vn 0.000000 0.000000 -1.000000
vn 0.999633 0.027087 0.000000
vn 0.999633 0.027087 0.000000
vn -0.000000 0.000000 1.000000
vn 0.000000 0.000000 1.000000
vn -0.000000 0.000000 1.000000
vn -1.000000 0.000000 0.000000
vn -1.000000 0.000000 0.000000
vn -1.000000 0.000000 0.000000
vn -1.000000 0.000000 0.000000
vn -0.996517 0.082743 -0.010361
vn -0.996517 0.082743 -0.010361
vn -0.913943 0.405844 0.000000
vn -0.913950 0.405763 0.007161
vn -0.999905 -0.000869 0.013762
vn -0.913908 -0.405874 0.006172
vn -0.913899 -0.405942 0.000000
vn -0.999601 0.001713 0.028191
vn 0.999166 -0.026998 -0.030636
vn 0.999155 -0.027415 -0.030633
vn 0.999526 0.000001 -0.030803
vn 0.023666 0.862039 -0.506289
vn 0.023666 0.862039 -0.506289
vn 0.998030 -0.054854 -0.030439
vn -0.024839 -0.864545 -0.501942
vn -0.024839 -0.864545 -0.501941
vn -0.024839 -0.864545 -0.501942
vn -0.024839 -0.864545 -0.501941
vn -0.000177 -1.000000 0.000014
vn -0.000177 -1.000000 0.000014
vn -0.000177 -1.000000 0.000014
vn -0.000177 -1.000000 0.000014
s 1
g polySurface28 polySurface24
usemtl initialShadingGroup
f 33/1/1 19/2/2 21/3/3 34/4/4
s 2
f 43/5/5 23/6/6 24/7/7 44/8/8
s 3
f 45/9/9 30/10/10 15/11/11 38/12/12
s 4
f 46/13/13 31/14/14 14/15/15 36/16/16
s 5
f 47/17/17 32/18/18 16/19/19 44/8/20
s 6
f 50/20/21 25/21/22 19/2/23 33/1/24
s 7
f 49/22/25 26/23/26 17/24/27 41/25/28
s 8
f 48/26/29 27/27/30 18/28/31 39/29/32
s 9
f 43/5/33 50/20/34 23/6/35
s 2
f 33/1/36 34/4/37 24/7/7 23/6/6
s 10
f 9/30/38 8/31/39 51/32/40
s 8
f 5/33/41 52/34/42 51/32/43 8/31/44
s 12
f 54/35/45 63/36/46 62/37/47 55/38/48
s off
f 35/39/49 36/16/50 14/15/51 11/40/52
s 13
f 35/39/53 12/41/54 16/19/55 36/16/56
s 14
f 37/42/57 38/12/58 15/11/59 13/43/60
s off
f 37/42/61 11/40/62 14/15/63 38/12/64
f 39/29/65 40/44/66 20/45/67 17/24/68
s 12
f 39/29/69 18/28/70 22/46/71 40/44/72
s 1
f 41/25/73 42/47/74 21/3/3 19/2/2
s off
f 41/25/75 17/24/76 20/45/77 42/47/78
s 8
f 52/48/42 5/49/41 64/50/79 53/51/80
s 3
f 68/52/81 56/53/82 6/54/83 60/55/84
s 13
f 43/5/85 44/8/86 16/19/55 12/41/54
s 4
f 45/9/87 38/12/88 14/15/15 31/14/14
s 5
f 46/13/89 36/16/90 16/19/19 32/18/18
s off
f 47/17/91 44/8/92 24/7/93
s 8
f 48/26/29 37/42/94 13/43/95 27/27/30
s 7
f 48/26/96 26/23/26 11/40/97 37/42/98
f 49/22/25 35/39/99 11/40/97 26/23/26
s 6
f 49/22/100 25/21/22 12/41/101 35/39/102
s 9
f 50/20/34 33/1/103 23/6/35
s 6
f 49/22/100 41/25/104 19/2/23 25/21/22
s 7
f 48/26/96 39/29/105 17/24/27 26/23/26
s 8
f 53/51/80 64/50/79 63/56/106 54/57/107
s 6
f 50/20/21 43/5/108 12/41/101 25/21/22
s 8
f 52/34/42 7/58/109 10/59/110 51/32/43
f 7/60/109 52/48/42 53/51/80 65/61/111
f 65/61/111 53/51/80 54/57/107 66/62/112
s 12
f 66/63/113 54/35/45 55/38/48 67/64/114
s 10
f 9/30/38 51/32/40 10/59/115
s 3
f 56/53/82 61/65/116 58/66/117 6/54/83
s 17
f 67/67/118 55/68/119 56/53/120 68/52/121
s 18
f 28/69/122 2/70/123 4/71/124 29/72/125
f 28/69/122 29/72/125 3/73/126 1/74/127
s 19
f 7/58/128 60/75/129 59/76/130 10/59/131
s 17
f 55/68/119 62/77/132 61/65/133 56/53/120
f 40/44/134 22/46/135 30/10/136 45/9/137
f 20/45/138 40/44/134 45/9/137 31/14/139
f 42/47/140 20/45/138 31/14/139 46/13/141
f 21/3/142 42/47/140 46/13/141 32/18/143
f 34/4/144 21/3/142 32/18/143 47/17/145
f 34/4/144 47/17/145 24/7/146
s 3
f 61/65/116 29/72/147 4/71/148 58/66/117
s 17
f 62/77/132 3/73/149 29/72/150 61/65/133
s 12
f 63/36/46 1/78/151 3/79/152 62/37/47
s 8
f 64/50/79 28/69/153 1/74/154 63/56/106
f 5/49/41 2/70/155 28/69/153 64/50/79
s off
f 58/80/156 4/81/157 2/82/158 5/83/159
s 8
f 27/84/30 65/61/111 66/62/112 18/85/31
s 12
f 18/86/70 66/63/113 67/64/114 22/87/71
s 17
f 22/46/135 67/67/118 68/52/121 30/10/136
s 3
f 15/11/11 30/10/10 68/52/81 60/55/84
s 14
f 7/88/160 13/89/60 15/90/59 60/91/161
s 8
f 27/84/30 13/92/95 7/60/109 65/61/111
s 20
f 10/59/162 59/76/163 9/30/164
f 9/30/164 57/93/165 8/31/166
f 57/94/165 9/95/164 70/96/167
s 22
f 69/97/168 6/98/169 58/99/170
s 20
f 9/95/164 59/100/163 70/96/167
s 19
f 59/100/130 60/101/129 69/97/171 70/96/172
s 22
f 60/101/173 6/98/169 69/97/168
s off
f 70/96/174 69/97/175 58/99/176 57/94/177
f 8/31/178 57/93/179 58/102/180 5/33/181
