# This file uses centimeters as units for non-parametric coordinates.

mtllib ROAD WALL (Left).mtl
g default
v -3.500000 -0.459193 -2.500000
v 3.500000 -0.459193 -2.500000
v -3.500000 -0.459193 -3.555449
v 3.500000 -0.459193 -3.555449
v -3.500000 2.458281 -2.500000
v 3.500000 2.458281 -2.500000
v 3.500000 2.458281 -3.555449
v -3.500000 2.458281 -3.555449
vt 0.678360 0.424315
vt 0.678360 0.180238
vt 0.715161 0.180238
vt 0.715161 0.424315
vt 0.732146 0.424315
vt 0.732146 0.180238
vt 0.800427 0.180238
vt 0.800427 0.424315
vt 0.925361 0.180238
vt 0.962163 0.180238
vt 0.962163 0.248520
vt 0.925361 0.248520
vt 0.883675 0.180238
vt 0.883675 0.424315
vt 0.815394 0.424315
vt 0.815394 0.180238
vt 0.940842 0.249444
vt 0.977643 0.249444
vt 0.977643 0.317725
vt 0.940842 0.317725
vn 0.000000 1.000000 0.000000
vn 0.000000 1.000000 0.000000
vn 0.000000 1.000000 0.000000
vn 0.000000 1.000000 0.000000
vn 0.000000 0.000000 1.000000
vn 0.000000 0.000000 1.000000
vn 0.000000 0.000000 1.000000
vn 0.000000 0.000000 1.000000
vn 1.000000 0.000000 0.000000
vn 1.000000 0.000000 0.000000
vn 1.000000 0.000000 0.000000
vn 1.000000 0.000000 0.000000
vn 0.000000 0.000000 -1.000000
vn 0.000000 0.000000 -1.000000
vn 0.000000 0.000000 -1.000000
vn 0.000000 0.000000 -1.000000
vn -1.000000 0.000000 0.000000
vn -1.000000 0.000000 0.000000
vn -1.000000 0.000000 0.000000
vn -1.000000 0.000000 0.000000
vn 0.000000 -1.000000 0.000000
vn 0.000000 -1.000000 0.000000
vn 0.000000 -1.000000 0.000000
vn 0.000000 -1.000000 0.000000
s off
g polySurface4 polySurface1
usemtl initialShadingGroup
f 5/1/1 6/2/2 7/3/3 8/4/4
f 1/5/5 2/6/6 6/7/7 5/8/8
f 2/9/9 4/10/10 7/11/11 6/12/12
f 4/13/13 3/14/14 8/15/15 7/16/16
f 3/17/17 1/18/18 5/19/19 8/20/20
f 1/18/21 3/14/22 4/10/23 2/6/24
