# This file uses centimeters as units for non-parametric coordinates.

mtllib Wall Left.mtl
g default
v -3.500000 -0.500000 2.500000
v 3.500000 -0.500000 2.500000
v -3.500000 0.500000 2.500000
v 3.500000 0.500000 2.500000
v -3.500000 0.500000 -2.500000
v 3.500000 0.500000 -2.500000
v -3.500000 -0.500000 -2.500000
v 3.500000 -0.500000 -2.500000
v -3.500000 -0.500000 3.555449
v 3.500000 -0.500000 3.555449
v 3.500000 0.500000 3.555449
v -3.500000 0.500000 3.555449
v -3.500000 0.500000 -3.555449
v 3.500000 0.500000 -3.555449
v 3.500000 -0.500000 -3.555449
v -3.500000 -0.500000 -3.555449
v -3.500000 2.458281 2.500000
v 3.500000 2.458281 2.500000
v -3.500000 2.458281 3.555449
v 3.500000 2.458281 3.555449
vt 0.500037 0.427782
vt 0.500037 0.076206
vt 0.570352 0.076206
vt 0.570352 0.427782
vt 0.500037 0.001992
vt 0.570352 0.001992
vt 0.570352 0.501996
vt 0.500037 0.501996
vt 0.708049 0.427782
vt 0.708049 0.501996
vt 0.715569 0.427782
vt 0.715569 0.076206
vt 0.785884 0.076206
vt 0.785884 0.427782
vt 0.715569 0.001992
vt 0.785884 0.001992
vt 0.785884 0.501996
vt 0.715569 0.501996
vt 0.923581 0.001992
vt 0.923581 0.076206
vt 0.311798 0.998008
vt 0.311798 0.505801
vt 0.663374 0.505801
vt 0.663374 0.998008
vt 0.737588 0.505801
vt 0.737588 0.998008
vt 0.001899 0.076206
vt 0.494106 0.076206
vt 0.494106 0.427782
vt 0.001899 0.427782
vt 0.001899 0.001992
vt 0.494106 0.001992
vt 0.494106 0.501996
vt 0.001899 0.501996
vt 0.229785 0.505801
vt 0.229785 0.998008
vt 0.155571 0.998008
vt 0.155571 0.505801
vt 0.743438 0.998008
vt 0.743438 0.505802
vt 0.813753 0.505802
vt 0.813753 0.998008
vt 0.951450 0.505802
vt 0.951450 0.998008
vt 0.235634 0.998008
vt 0.235634 0.505801
vt 0.305949 0.505801
vt 0.305949 0.998008
vt 0.149722 0.505801
vt 0.149722 0.998008
vt 0.012025 0.998008
vt 0.012025 0.505801
vn 0.000000 0.000000 1.000000
vn 0.000000 0.000000 1.000000
vn 0.000000 0.000000 1.000000
vn 0.000000 0.000000 1.000000
vn 0.000000 1.000000 0.000000
vn 0.000000 1.000000 0.000000
vn 0.000000 1.000000 0.000000
vn 0.000000 1.000000 0.000000
vn 0.000000 0.000000 -1.000000
vn 0.000000 0.000000 -1.000000
vn 0.000000 0.000000 -1.000000
vn 0.000000 0.000000 -1.000000
vn 0.000000 -1.000000 0.000000
vn 0.000000 -1.000000 0.000000
vn 0.000000 -1.000000 0.000000
vn 0.000000 -1.000000 0.000000
vn 1.000000 0.000000 0.000000
vn 1.000000 0.000000 0.000000
vn 1.000000 0.000000 0.000000
vn 1.000000 0.000000 0.000000
vn -1.000000 0.000000 0.000000
vn -1.000000 0.000000 0.000000
vn -1.000000 0.000000 0.000000
vn -1.000000 0.000000 0.000000
vn 0.000000 -1.000000 0.000000
vn 0.000000 -1.000000 0.000000
vn 0.000000 -1.000000 0.000000
vn 0.000000 -1.000000 0.000000
vn 1.000000 0.000000 0.000000
vn 1.000000 0.000000 0.000000
vn 1.000000 0.000000 0.000000
vn 1.000000 0.000000 0.000000
vn 0.000000 1.000000 0.000000
vn 0.000000 1.000000 0.000000
vn 0.000000 1.000000 0.000000
vn 0.000000 1.000000 0.000000
vn -1.000000 0.000000 0.000000
vn -1.000000 0.000000 0.000000
vn -1.000000 0.000000 0.000000
vn -1.000000 0.000000 0.000000
vn 1.000000 0.000000 0.000000
vn 1.000000 0.000000 0.000000
vn 1.000000 0.000000 0.000000
vn 1.000000 0.000000 0.000000
vn 0.000000 -1.000000 0.000000
vn 0.000000 -1.000000 0.000000
vn 0.000000 -1.000000 0.000000
vn 0.000000 -1.000000 0.000000
vn -1.000000 0.000000 0.000000
vn -1.000000 0.000000 0.000000
vn -1.000000 0.000000 0.000000
vn -1.000000 0.000000 0.000000
vn 0.000000 0.000000 -1.000000
vn 0.000000 0.000000 -1.000000
vn 0.000000 0.000000 -1.000000
vn 0.000000 0.000000 -1.000000
vn -1.000000 0.000000 0.000000
vn -1.000000 0.000000 0.000000
vn -1.000000 0.000000 0.000000
vn -1.000000 0.000000 0.000000
vn 0.000000 0.000000 1.000000
vn 0.000000 0.000000 1.000000
vn 0.000000 0.000000 1.000000
vn 0.000000 0.000000 1.000000
vn 1.000000 0.000000 0.000000
vn 1.000000 0.000000 0.000000
vn 1.000000 0.000000 0.000000
vn 1.000000 0.000000 0.000000
vn 0.000000 1.000000 0.000000
vn 0.000000 1.000000 0.000000
vn 0.000000 1.000000 0.000000
vn 0.000000 1.000000 0.000000
s off
g Left_Wall_Road_Prefab:pCube1
usemtl initialShadingGroup
f 9/39/1 10/40/2 11/41/3 12/42/4
f 3/21/5 4/22/6 6/23/7 5/24/8
f 13/45/9 14/46/10 15/47/11 16/48/12
f 7/27/13 8/28/14 2/29/15 1/30/16
f 2/1/17 8/2/18 6/3/19 4/4/20
f 7/11/21 1/12/22 3/13/23 5/14/24
f 1/30/25 2/29/26 10/33/27 9/34/28
f 2/1/29 4/4/30 11/7/31 10/8/32
f 18/35/33 17/36/34 19/37/35 20/38/36
f 3/13/37 1/12/38 9/15/39 12/16/40
f 6/3/41 8/2/42 15/5/43 14/6/44
f 8/28/45 7/27/46 16/31/47 15/32/48
f 7/11/49 5/14/50 13/17/51 16/18/52
f 4/49/53 3/50/54 17/51/55 18/52/56
f 3/13/57 12/16/58 19/19/59 17/20/60
f 12/42/61 11/41/62 20/43/63 19/44/64
f 11/7/65 4/4/66 18/9/67 20/10/68
f 5/24/69 6/23/70 14/25/71 13/26/72
