# This file uses centimeters as units for non-parametric coordinates.

mtllib Volt_FRONT2.mtl
g default
v 1.538288 0.664136 -0.048503
v 1.468632 0.634167 -0.048503
v 1.511356 0.634167 -0.048503
v 1.517858 0.634167 -0.048503
v 1.516374 0.634167 -0.048503
v 1.521967 0.637494 -0.048503
v 1.538833 0.669966 -0.048503
v 1.537724 0.661678 -0.048503
v 1.538038 0.662679 -0.048503
v 1.537749 0.661758 -0.048503
v 1.534737 0.647837 -0.048503
v 1.462104 0.885779 -0.048503
v 1.462124 0.876040 -0.048503
v 1.462262 0.868307 -0.048503
v 1.465549 0.872180 -0.048503
v 1.537596 0.866782 -0.048503
v 1.545287 0.866782 -0.048503
v 1.547008 0.866782 -0.048503
v 1.550208 0.864120 -0.048503
v 1.560970 0.853296 -0.048503
v 1.561153 0.853110 -0.048503
v 1.561150 0.844458 -0.048503
v 1.538438 0.666129 -0.048503
v 1.534737 0.647837 -0.048503
v 1.535816 0.648712 -0.048503
v 1.522342 0.637798 -0.048503
v 1.522360 0.637813 -0.048503
v 1.522375 0.637825 -0.048503
v 1.552611 0.702320 -0.290177
v 1.535846 0.648735 -0.298664
v 1.562131 0.844352 -0.148263
v 1.562131 0.764070 -0.257219
v 1.562131 0.813013 -0.209768
v 1.538044 0.707018 -0.304182
v 1.517859 0.634167 -0.315720
v 1.547563 0.858379 -0.152821
v 1.547563 0.772738 -0.269106
v 1.462131 0.779869 -0.528393
v 1.462131 0.779869 -0.528393
v 1.468633 0.634166 -0.315720
v 1.511357 0.634167 -0.315720
v 1.462131 0.858379 -0.152821
v 1.472098 0.858379 -0.152821
v 1.462131 0.707018 -0.304182
v 1.470987 0.707018 -0.304182
v 1.529187 0.707018 -0.304182
v 1.537596 0.858379 -0.152821
v 1.462131 0.772737 -0.269106
v 1.472098 0.772737 -0.269106
v 1.462131 0.824893 -0.218540
v 1.472098 0.824893 -0.218540
v 1.537596 0.772738 -0.269106
v 1.537596 0.824893 -0.218540
v 1.547563 0.824893 -0.218540
v 1.516374 0.634167 -0.315720
v 1.536021 0.707018 -0.304182
v 1.545287 0.772738 -0.269106
v 1.545287 0.824893 -0.218540
v 1.545287 0.858379 -0.152821
v 1.550891 0.855175 -0.151780
v 1.550891 0.822180 -0.216537
v 1.550891 0.770758 -0.266391
v 1.541370 0.705945 -0.300983
v 1.521967 0.637494 -0.311824
v 1.535240 0.648244 -0.299238
v 1.552120 0.702478 -0.290649
v 1.561639 0.764362 -0.257620
v 1.561639 0.813414 -0.210064
v 1.561639 0.844824 -0.148417
v 1.560983 0.835810 -0.144591
v 1.560983 0.805840 -0.203410
v 1.560983 0.759033 -0.248790
v 1.551879 0.699980 -0.280308
v 1.535846 0.648735 -0.288424
v 1.537163 0.652945 -0.287757
v 1.535846 0.648735 -0.289265
v 1.462131 0.708851 -0.309822
v 1.462131 0.776224 -0.273864
v 1.462131 0.829691 -0.222027
v 1.462131 0.864020 -0.154654
v 1.462381 0.858379 -0.152821
v 1.462381 0.824893 -0.218540
v 1.462381 0.772737 -0.269106
v 1.462353 0.707018 -0.304182
v 1.462131 0.634167 -0.048503
v 1.460564 1.101334 -0.048503
v 1.486409 0.713704 -0.784111
v 1.489763 0.819919 -0.739073
v 1.487810 0.931885 -0.596409
v 1.462131 0.911308 -0.458241
v 1.490704 0.869133 -0.701759
v 1.462131 0.634166 -0.315720
v 1.462131 1.082591 -0.225672
v 1.462131 0.634166 -0.321651
v 1.462131 0.634166 -0.551470
v 1.462131 1.015619 -0.357111
v 1.482750 0.634164 -0.760226
v 1.485587 0.656893 -0.785192
vt 0.644467 0.342085
vt 0.500000 0.306974
vt 0.500000 0.306108
vt 0.649110 0.297812
vt 0.624824 0.397670
vt 0.500000 0.308346
vt 0.559885 0.469937
vt 0.500000 0.313834
vt 0.500000 0.310222
vt 0.596543 0.441727
vt 0.657353 0.347699
vt 0.650912 0.344436
vt 0.656265 0.293388
vt 0.664110 0.283269
vt 0.562269 0.478422
vt 0.564365 0.488164
vt 0.500000 0.496584
vt 0.500000 0.486396
vt 0.635794 0.408705
vt 0.630328 0.402685
vt 0.813464 0.280136
vt 0.799082 0.417281
vt 0.799082 0.417281
vt 0.755361 0.541000
vt 0.958453 0.355003
vt 0.930384 0.454979
vt 0.841471 0.560369
vt 0.907129 0.501302
vt 0.666537 0.280136
vt 0.666537 0.280136
vt 0.500000 0.280137
vt 0.500000 0.280137
vt 0.666537 0.280137
vt 0.500000 0.280137
vt 0.666537 0.280137
vt 0.500000 0.280137
vt 0.650050 0.293850
vt 0.649526 0.293850
vt 0.500000 0.293004
vt 0.500000 0.293004
vt 0.565014 0.491180
vt 0.565014 0.491180
vt 0.500000 0.500526
vt 0.500000 0.504170
vt 0.659346 0.348709
vt 0.659346 0.348709
vt 0.659346 0.348709
vt 0.565014 0.491180
vt 0.500000 0.499090
vt 0.637486 0.410569
vt 0.637486 0.410569
vt 0.605972 0.459661
vt 0.605972 0.459661
vt 0.659346 0.348709
vt 0.565014 0.491180
vt 0.500000 0.499090
vt 0.637486 0.410569
vt 0.605972 0.459661
vt 0.637486 0.410569
vt 0.566156 0.496490
vt 0.610417 0.702223
vt 0.500000 0.719865
vt 0.500000 0.516971
vt 0.605972 0.459661
vt 0.600689 0.448856
vt 0.604724 0.457107
vt 0.662862 0.350434
vt 0.670234 0.280136
vt 0.640452 0.413850
vt 0.608145 0.464178
vt 0.692334 0.639185
vt 0.943567 0.280135
vt 0.959126 0.301528
vt 0.666537 0.280137
vt 0.500000 0.280137
vt 0.659346 0.348709
vt 0.637486 0.410569
vt 0.605972 0.459661
vt 0.565014 0.491180
vt 0.650618 0.344287
vt 0.655907 0.293850
vt 0.630078 0.402410
vt 0.600505 0.448479
vt 0.562173 0.477977
vt 0.500000 0.306033
vt 0.500000 0.283555
vt 0.500000 0.283269
vt 0.500000 0.283569
vt 0.500000 0.283580
vt 0.659346 0.348709
vt 0.637486 0.410569
vt 0.605972 0.459661
vt 0.565014 0.491180
vt 0.500000 0.478077
vt 0.500000 0.293828
vt 0.500000 0.499089
vt 0.500000 0.486221
vt 0.500000 0.507804
vn 0.972710 -0.231092 0.020792
vn 0.972112 -0.233623 0.020450
vn 0.953953 -0.299831 0.008710
vn 0.953959 -0.299814 0.008603
vn 0.990237 -0.129524 0.051529
vn 0.989411 -0.137299 0.047060
vn 0.993391 -0.110318 0.031680
vn 0.993261 -0.107379 0.043627
vn 0.994122 -0.081871 0.070844
vn 0.993908 -0.087396 0.067148
vn 0.714060 0.081079 -0.695374
vn 0.714234 0.105008 -0.691985
vn 0.702219 -0.096083 -0.705447
vn 0.701644 -0.089679 -0.706862
vn 0.712342 0.682058 -0.165427
vn 0.707564 0.686148 -0.168982
vn 0.697071 0.714783 -0.056357
vn 0.704821 0.707179 -0.055906
vn 0.713352 0.371045 -0.594520
vn 0.713416 0.375910 -0.591380
vn 0.993704 -0.039980 0.104660
vn 0.991804 -0.058368 0.113660
vn 0.000000 0.000000 0.000000
vn 0.000000 0.000000 0.000000
vn 0.000000 0.000000 0.000000
vn 0.000000 0.000000 0.000000
vn 0.993933 -0.036536 0.103737
vn 0.993220 -0.048409 0.105691
vn 0.985787 -0.109529 0.127385
vn 0.981484 -0.090191 0.168982
vn 0.988109 -0.112286 0.105038
vn -0.000000 -1.000000 0.000002
vn 0.000007 -1.000000 0.000001
vn 0.000007 -1.000000 0.000001
vn -0.000000 -1.000000 0.000002
vn 0.000009 -1.000000 0.000001
vn 0.000009 -1.000000 0.000001
vn 0.000018 -1.000000 0.000000
vn 0.000018 -1.000000 0.000000
vn 0.629276 -0.777182 0.000001
vn 0.985703 -0.168493 0.000102
vn 0.629488 -0.777010 0.000002
vn 0.629379 -0.777098 0.000002
vn 0.007321 0.967981 -0.250918
vn 0.140328 0.945685 -0.293236
vn 0.282182 0.952166 -0.117273
vn 0.009862 0.994301 -0.106156
vn 0.000004 0.334772 -0.942299
vn 0.000000 0.333104 -0.942890
vn 0.000001 0.156432 -0.987689
vn 0.000007 0.156431 -0.987689
vn -0.000000 0.348968 -0.937135
vn -0.000000 0.156432 -0.987689
vn 0.021328 0.968598 -0.247717
vn 0.035104 0.994152 -0.102123
vn 0.000002 0.591029 -0.806650
vn 0.000000 0.590645 -0.806931
vn 0.000001 0.805196 -0.593009
vn 0.000001 0.805195 -0.593010
vn -0.000001 0.345490 -0.938423
vn -0.000004 0.156434 -0.987688
vn 0.000004 0.970317 -0.241839
vn 0.000006 0.996771 -0.080295
vn -0.000000 0.594338 -0.804216
vn 0.000001 0.805196 -0.593009
vn 0.000000 0.593523 -0.804817
vn 0.999994 0.002361 0.002686
vn 0.999993 0.002378 0.002725
vn 0.999978 0.004364 0.005001
vn 0.999979 0.004303 0.004900
vn 0.000000 0.805197 -0.593008
vn 0.711917 0.565406 -0.416522
vn 0.711926 0.565411 -0.416500
vn 1.000000 0.000000 0.000000
vn 1.000000 0.000000 0.000000
vn 1.000000 -0.000000 0.000000
vn 1.000000 0.000000 0.000000
vn 1.000000 0.000000 0.000000
vn 1.000000 -0.000000 0.000000
vn 1.000000 -0.000000 0.000000
vn 1.000000 0.000000 0.000000
vn 0.995026 -0.016261 0.098280
vn 0.995026 -0.016261 0.098280
vn 0.000020 -1.000000 0.000000
vn 0.000020 -1.000000 0.000000
vn 0.000000 0.355131 -0.934817
vn 0.000000 0.156419 -0.987691
vn 0.000000 0.595834 -0.803107
vn 0.000000 0.805197 -0.593008
vn 0.000017 0.967794 -0.251744
vn 0.711903 0.565462 -0.416471
vn 0.694594 0.697903 -0.174559
vn 0.713270 0.370259 -0.595109
vn 0.713055 0.071298 -0.697474
vn 0.701134 -0.084294 -0.708029
vn 0.714669 0.109271 -0.690875
vn 0.703014 -0.108077 -0.702916
vn 0.713096 0.375490 -0.592032
vn 0.711472 0.565758 -0.416805
vn 0.711898 0.676393 -0.188929
vn 0.995827 -0.085697 0.031394
vn 0.992859 -0.095293 0.071762
vn 0.989847 -0.130203 0.057005
vn 0.978027 -0.207157 0.023438
vn 0.954381 -0.298590 0.000004
vn 0.954382 -0.298590 0.000003
vn 0.953998 -0.299699 0.008252
vn 0.953975 -0.299760 0.008708
vn 0.629377 -0.777100 0.000001
vn 0.629373 -0.777103 0.000001
vn 0.629377 -0.777100 0.000001
vn 0.629374 -0.777103 0.000001
vn 0.629573 -0.776942 -0.000009
vn 0.629431 -0.777057 -0.000005
vn 0.629377 -0.777100 0.000002
vn 1.000000 -0.000003 0.000000
vn 1.000000 0.000002 0.000000
vn 1.000000 -0.000013 0.000000
vn 1.000000 -0.000012 0.000000
vn 1.000000 0.000856 -0.000057
vn 0.995537 0.090515 -0.026693
vn 0.000000 0.805183 -0.593027
vn 0.000000 0.591059 -0.806628
vn 0.000000 0.375461 -0.926838
vn 0.992664 -0.120516 0.009711
vn 0.977499 -0.210939 0.000101
vn 0.989352 -0.145541 0.000109
vn 0.000030 0.996771 -0.080296
vn 0.672347 0.737987 -0.057663
vn 0.629382 -0.777096 0.000002
vn 0.629382 -0.777096 0.000002
vn 0.703451 0.708585 -0.055346
vn 0.997857 -0.064690 0.009878
vn 0.999999 0.001315 -0.000087
vn 0.998728 0.050071 -0.006022
s 1
g polySurface22 polySurface6 polySurface4
usemtl lambert2SG
f 73/1/1 9/2/2 10/3/3 75/4/4
f 72/5/5 1/6/6 9/2/2 73/1/1
f 70/7/7 7/8/8 23/9/9 71/10/10
f 71/10/10 23/9/9 1/6/6 72/5/5
s 3
f 63/11/11 66/12/12 65/13/13 64/14/14
f 69/15/15 60/16/16 19/17/17 20/18/18
f 62/19/19 67/20/20 66/12/12 63/11/11
s 5
f 95/21/21 39/22/22 38/23/23
s off
f 38/23/24 39/22/25 90/24/26
s 5
f 87/25/27 88/26/28 39/22/22 95/21/21
f 39/22/22 89/27/29 90/24/30
f 91/28/31 89/27/29 39/22/22
f 88/26/28 91/28/31 39/22/22
s 7
f 92/29/32 40/30/33 2/31/34 85/32/35
f 40/30/33 41/33/36 3/34/37 2/31/34
f 41/33/36 55/35/38 5/36/39 3/34/37
s 8
f 76/37/40 74/38/41 24/39/42 11/40/43
s 9
f 43/41/44 81/42/45 14/43/46 15/44/47
f 84/45/48 45/46/49 40/30/50 92/29/51
f 45/46/49 46/47/52 41/33/53 40/30/50
f 47/48/54 43/41/44 15/44/47 16/49/55
f 83/50/56 49/51/57 45/46/49 84/45/48
f 81/42/45 43/41/44 51/52/58 82/53/59
f 46/47/52 56/54/60 55/35/61 41/33/53
f 82/53/59 51/52/58 49/51/57 83/50/56
f 59/55/62 47/48/54 16/49/55 17/56/63
f 49/51/57 52/57/64 46/47/52 45/46/49
f 51/52/58 43/41/44 47/48/54 53/58/65
f 51/52/58 53/58/65 52/57/64 49/51/57
f 52/57/64 57/59/66 56/54/60 46/47/52
s 11
f 80/60/67 93/61/68 86/62/69 12/63/70
s 9
f 53/58/65 47/48/54 59/55/62 58/64/71
s 3
f 60/16/16 69/15/15 68/65/72 61/66/73
s 11
f 95/21/74 38/23/75 77/67/76 94/68/77
s 9
f 53/58/65 58/64/71 57/59/66 52/57/64
s 3
f 68/65/72 67/20/20 62/19/19 61/66/73
s 11
f 38/23/75 90/24/78 78/69/79 77/67/76
f 93/61/68 80/60/67 79/70/80 96/71/81
f 90/24/78 96/71/81 79/70/80 78/69/79
s 5
f 87/25/27 95/21/21 97/72/82 98/73/83
s 7
f 55/35/38 35/74/84 4/75/85 5/36/39
s 9
f 56/54/60 34/76/86 35/74/87 55/35/61
f 57/59/66 37/77/88 34/76/86 56/54/60
f 58/64/71 54/78/89 37/77/88 57/59/66
f 58/64/71 59/55/62 36/79/90 54/78/89
s 3
f 54/78/91 36/79/92 60/16/16 61/66/73
f 62/19/19 37/77/93 54/78/91 61/66/73
f 37/77/93 62/19/19 63/11/11 34/76/94
f 34/76/94 63/11/11 64/14/14 35/74/95
f 66/12/12 29/80/96 30/81/97 65/13/13
f 67/20/20 32/82/98 29/80/96 66/12/12
f 33/83/99 32/82/98 67/20/20 68/65/72
f 68/65/72 69/15/15 31/84/100 33/83/99
s 1
f 31/84/101 70/7/7 71/10/10 33/83/102
f 33/83/102 71/10/10 72/5/5 32/82/103
f 32/82/103 72/5/5 73/1/1 29/80/104
f 30/81/105 29/80/104 76/37/106
f 76/37/106 29/80/104 74/38/107
f 74/38/107 29/80/104 75/4/4
f 29/80/104 73/1/1 75/4/4
f 75/4/4 10/3/3 8/85/108 74/38/107
s 8
f 64/14/109 65/13/110 26/86/111 6/87/112
f 65/13/110 30/81/113 27/88/114 26/86/111
f 30/81/113 76/37/40 28/89/115 27/88/114
s 11
f 94/68/77 77/67/76 44/90/116 92/29/117
f 78/69/79 48/91/118 44/90/116 77/67/76
f 79/70/80 50/92/119 48/91/118 78/69/79
f 79/70/80 80/60/67 42/93/120 50/92/119
s 9
f 42/93/121 81/42/45 82/53/59 50/92/122
f 50/92/122 82/53/59 83/50/56 48/91/123
f 48/91/123 83/50/56 84/45/48 44/90/124
f 44/90/124 84/45/48 92/29/51
s 1
f 7/8/8 70/7/7 22/94/125
s 8
f 25/95/126 74/38/41 8/85/127
f 24/39/42 74/38/41 25/95/126
s 9
f 18/96/128 36/79/90 59/55/62 17/56/63
s 3
f 19/17/17 60/16/16 36/79/92 18/96/129
s 8
f 4/75/130 35/74/131 64/14/109 6/87/112
s 3
f 21/97/132 31/84/100 69/15/15 20/18/18
s 1
f 22/94/125 70/7/7 31/84/101 21/97/133
s 8
f 28/89/115 76/37/40 11/40/43
s 11
f 13/98/134 42/93/120 80/60/67 12/63/70
s 9
f 14/43/46 81/42/45 42/93/121 13/98/135
