# This file uses centimeters as units for non-parametric coordinates.

mtllib Volt_BACK2.mtl
g default
v -1.726848 0.651988 -0.048503
v -1.705627 0.405503 -0.048503
v -1.729301 0.957554 -0.048503
v -1.727375 1.266748 -0.048503
v -1.703759 0.888356 -0.701051
v -1.687717 0.715878 -1.045018
v -1.686830 1.022100 -0.974095
v -1.600165 0.692818 -1.131010
v -1.690564 1.154045 -0.735792
v -1.593156 1.052941 -1.044127
v -1.569715 1.184496 -0.859449
v -1.703759 0.686555 -0.733014
v -1.727477 1.057067 -0.358062
v -1.727477 1.142891 -0.314333
v -1.727477 0.864968 -0.359390
v -1.727477 1.211519 -0.245205
v -1.727477 1.255249 -0.159381
v -1.727477 0.961123 -0.373939
v -1.726796 0.778121 -0.315694
v -1.726769 0.709099 -0.246490
v -1.726847 0.665229 -0.158264
v -1.702679 1.333529 -0.048503
v -1.702454 0.382442 -0.048503
v -1.615074 0.383252 -1.028385
v -1.686999 0.378028 -0.945403
v -1.703759 1.214878 -0.463819
v -1.703759 1.070404 -0.608293
v -1.703759 1.307636 -0.281771
v -1.679881 0.379907 -0.731630
vt 0.289694 0.448644
vt 0.260619 0.464017
vt 0.250536 0.446085
vt 0.272569 0.427640
vt 0.238466 0.427978
vt 0.250528 0.420857
vt 0.281033 0.421278
vt 0.301726 0.442928
vt 0.264160 0.410984
vt 0.310699 0.472409
vt 0.297488 0.481319
vt 0.217240 0.447829
vt 0.214753 0.439841
vt 0.220874 0.422047
vt 0.209428 0.434057
vt 0.202045 0.430563
vt 0.203619 0.421962
vt 0.270316 0.493366
vt 0.217162 0.457040
vt 0.194026 0.428340
vt 0.184260 0.428274
vt 0.184296 0.422597
vt 0.213802 0.466405
vt 0.206537 0.474055
vt 0.183672 0.508834
vt 0.183690 0.506523
vt 0.196484 0.479347
vt 0.183886 0.481234
vt 0.184073 0.455203
vn -0.999235 -0.012736 -0.036985
vn -0.999259 -0.015499 -0.035246
vn -0.998357 0.023015 -0.052468
vn -0.998381 0.021871 -0.052505
vn -0.997740 0.042773 -0.051823
vn -0.997740 0.042773 -0.051823
vn -0.693610 0.017536 -0.720137
vn -0.645910 0.183167 -0.741114
vn -0.645910 0.183167 -0.741114
vn -0.701166 -0.018283 -0.712764
vn -0.574853 0.706268 -0.413195
vn -0.574853 0.706268 -0.413195
vn -0.574853 0.706268 -0.413195
vn -0.574853 0.706268 -0.413195
vn -0.723821 -0.191229 -0.662959
vn -0.723821 -0.191229 -0.662959
vn -0.995988 0.035650 -0.082086
vn -0.996117 0.033631 -0.081366
vn -0.993639 0.061055 -0.094623
vn -0.991420 0.087791 -0.096844
vn -0.984546 0.136351 -0.109899
vn -0.980220 0.168533 -0.103757
vn -0.975703 0.198912 -0.091855
vn -0.998972 -0.041117 -0.019101
vn -0.998972 -0.041117 -0.019101
vn -0.997785 0.003999 -0.066406
vn -0.997760 0.004543 -0.066736
vn -0.943617 0.328251 -0.042879
vn -0.937718 0.345697 -0.034340
vn -0.937718 0.345697 -0.034340
vn -0.998123 -0.004836 -0.061053
vn -0.998123 -0.004836 -0.061053
vn -0.996251 -0.077746 -0.037937
vn -0.995778 -0.084130 -0.036728
vn -0.996595 -0.066508 -0.048735
vn -0.995581 -0.085509 -0.038810
vn -0.990152 -0.136242 -0.032212
vn -0.994864 -0.095641 -0.033143
vn -0.994700 -0.096394 -0.035789
vn -0.996261 -0.085773 -0.010349
vn -0.999983 0.005147 -0.002623
vn -0.999983 0.005147 -0.002623
vn -0.999983 0.005147 -0.002623
vn -0.999984 -0.000853 -0.005613
vn -0.999984 -0.000853 -0.005613
vn -0.999984 -0.000853 -0.005613
vn -0.999967 -0.008028 -0.000971
vn -0.999967 -0.008028 -0.000971
vn -0.999967 -0.008028 -0.000971
vn -0.999981 0.006228 0.000272
vn -0.999981 0.006228 0.000272
vn -0.999981 0.006228 0.000272
vn -0.999984 0.004059 -0.004030
vn -0.999984 0.004059 -0.004030
vn -0.999984 0.004059 -0.004030
vn -0.999984 0.002579 -0.005062
vn -0.999984 0.002579 -0.005062
vn -0.999984 0.002579 -0.005062
vn -0.999984 0.000930 -0.005594
vn -0.999984 0.000930 -0.005594
vn -0.999984 0.000930 -0.005594
vn -0.999951 -0.009384 -0.003071
vn -0.999951 -0.009384 -0.003071
vn -0.999951 -0.009384 -0.003071
vn -0.999968 -0.005850 -0.005444
vn -0.999968 -0.005850 -0.005444
vn -0.999968 -0.005850 -0.005444
vn -0.999968 -0.006794 -0.004264
vn -0.999968 -0.006794 -0.004264
vn -0.999968 -0.006794 -0.004264
s 1
g polySurface18 polySurface13 polySurface11 polySurface9 polySurface5 polySurface4
usemtl lambert2SG
f 6/1/1 12/2/2 5/3/3 7/4/4
f 5/3/3 27/5/5 9/6/6 7/4/4
s 2
f 6/1/7 7/4/8 10/7/9 8/8/10
s off
f 11/9/11 10/7/12 7/4/13 9/6/14
s 2
f 24/10/15 25/11/16 6/1/7 8/8/10
s 3
f 27/5/17 18/12/18 13/13/19 26/14/20
f 14/15/21 16/16/22 28/17/23 26/14/20
s 1
f 25/11/24 29/18/25 12/2/2 6/1/1
s 3
f 26/14/20 13/13/19 14/15/21
f 15/19/26 18/12/18 27/5/17 5/3/27
f 28/17/23 16/16/22 17/20/28
f 17/20/28 4/21/29 22/22/30 28/17/23
f 19/23/31 15/19/26 5/3/27 12/2/32
s 5
f 12/2/33 29/18/34 19/23/35
f 29/18/34 20/24/36 19/23/35
f 23/25/37 2/26/38 29/18/34
f 29/18/34 2/26/38 20/24/36
f 20/24/36 2/26/38 21/27/39
f 1/28/40 21/27/39 2/26/38
s off
f 3/29/41 17/20/42 16/16/43
f 3/29/44 18/12/45 15/19/46
f 3/29/47 21/27/48 1/28/49
f 3/29/50 4/21/51 17/20/52
f 3/29/53 16/16/54 14/15/55
f 3/29/56 14/15/57 13/13/58
f 3/29/59 13/13/60 18/12/61
f 3/29/62 15/19/63 19/23/64
f 3/29/65 19/23/66 20/24/67
f 3/29/68 20/24/69 21/27/70
