# This file uses centimeters as units for non-parametric coordinates.

mtllib Volt_RIGHT1.mtl
g default
v -0.058302 0.533504 0.654219
v 0.007683 0.538616 0.628928
v -0.050218 0.627831 0.653239
v 0.014521 0.634861 0.628492
v 0.170697 0.552263 0.705435
v -0.025784 0.907944 0.638348
v -0.004916 0.956112 0.532605
v -0.021422 0.954445 0.445858
v 0.181505 0.670194 0.704304
v 0.085935 0.954740 0.433950
v 0.099992 0.864790 0.612875
v 0.086990 0.934470 0.520631
v 0.162590 0.957409 0.418569
v 0.204125 0.952231 0.520684
v 0.210225 0.812189 0.654097
v 0.410181 0.565690 0.878932
v 0.215044 0.861813 0.617050
v 0.529144 0.997152 0.482669
v 0.429254 0.808790 0.844569
v 0.534840 0.919001 0.402127
v 0.418078 0.668633 0.877659
v 0.433773 0.913726 0.789273
v 0.491559 1.025955 0.628568
v 0.985323 0.614182 0.960957
v 1.025413 1.068688 0.551114
v 1.058605 0.888981 0.382154
v 0.988492 0.721967 0.963975
v 0.980796 0.909966 0.924423
v 0.971742 1.034777 0.872960
v 1.251405 0.877093 0.381995
v 1.261705 0.979138 0.504780
v 0.988881 1.136913 0.740744
v 1.235022 0.633956 0.838836
v 1.228488 0.722612 0.869408
v 1.468485 0.713704 0.702650
v 1.467663 0.656893 0.703731
v 1.469886 0.931885 0.514948
v 1.284671 1.063607 0.677502
v 1.226318 0.864943 0.840657
v 1.471839 0.819919 0.657612
v 1.472780 0.869133 0.620298
v 1.278140 0.992003 0.788631
v 1.252647 0.886436 0.386799
v 1.054604 0.897952 0.387151
v 0.534153 0.928422 0.412011
v 0.163467 0.950946 0.421256
v 0.085978 0.953915 0.437479
v -0.020750 0.954513 0.449390
v -0.012833 0.955313 0.490998
v 0.086484 0.944193 0.479055
v 0.183796 0.965286 0.470970
v 0.510351 1.048176 0.555618
v 1.007147 1.139423 0.645929
v 1.273188 1.057995 0.591141
v 1.316447 0.641984 0.791549
v 1.312487 0.719495 0.811043
v 1.312250 0.849185 0.776591
v 1.346264 0.948998 0.729714
v 1.349496 1.017504 0.620608
v 1.333045 1.006655 0.516115
v 1.325581 0.955398 0.459980
v 1.319693 0.895141 0.383293
v 1.318886 0.889069 0.380170
v 1.374607 0.647718 0.757773
v 1.372486 0.717268 0.769353
v 1.373631 0.837929 0.730830
v 1.394924 0.918281 0.687631
v 1.395800 0.984573 0.579969
v 1.375799 0.969983 0.462525
v 1.371206 0.938440 0.427980
v 1.367583 0.901359 0.380788
v 1.367086 0.897622 0.378866
v 1.432767 0.653453 0.723996
v 1.432485 0.715040 0.727664
v 1.435011 0.826673 0.685069
v 1.443584 0.887563 0.645548
v 1.442104 0.951643 0.539331
v 1.418554 0.933311 0.408934
v 1.416832 0.921483 0.395980
v 1.415473 0.907577 0.378283
v 1.415287 0.906176 0.377562
v -0.057874 0.510664 0.628647
v 0.006615 0.515718 0.603401
v 0.180488 0.528989 0.684457
v 0.416808 0.542539 0.856020
v 0.998334 0.591399 0.942275
v 1.260383 0.612327 0.815268
v 1.331938 0.619970 0.767492
v 0.534840 0.912662 0.396241
v 0.162590 0.973231 0.415928
v 1.058605 0.881729 0.376248
v 1.251405 0.869008 0.374894
v 1.318886 0.883813 0.375554
v -0.021220 0.962354 0.444004
v 0.086701 0.975605 0.433908
v 1.383049 0.625430 0.733366
v 1.367086 0.894388 0.376026
v 1.434159 0.630889 0.699241
v 1.415287 0.904963 0.376497
v 1.464826 0.634164 0.678765
v 1.444207 0.911308 0.376780
vt -0.028637 0.189282
vt -0.026225 0.183184
vt -0.022721 0.183120
vt -0.026089 0.191204
vt -0.015797 0.190934
vt -0.011948 0.183080
vt -0.020565 0.164476
vt -0.017298 0.164169
vt -0.004452 0.163010
vt 0.017155 0.190846
vt 0.019040 0.175039
vt 0.038899 0.185381
vt 0.041511 0.174502
vt 0.047609 0.173961
vt 0.044463 0.184980
vt 0.013861 0.161386
vt 0.051427 0.165661
vt 0.045305 0.163585
vt 0.033206 0.185863
vt 0.035318 0.175173
vt -0.023255 0.132488
vt -0.020002 0.132607
vt 0.038899 0.161803
vt 0.021743 0.161347
vt -0.009837 0.131581
vt 0.045655 0.128737
vt 0.055252 0.128466
vt 0.004457 0.131879
vt 0.065589 0.127488
vt 0.052372 0.165558
vt 0.016471 0.132374
vt 0.037415 0.129873
vt -0.012782 0.068152
vt -0.014996 0.065725
vt -0.002679 0.070933
vt 0.057955 0.079781
vt 0.078405 0.075212
vt 0.014131 0.077093
vt 0.048052 0.079946
vt 0.025508 0.080141
vt 0.039905 0.080931
vt 0.066550 0.055481
vt 0.079195 0.054792
vt 0.005758 0.038845
vt 0.006592 0.034246
vt 0.011007 0.046141
vt 0.015794 0.028042
vt 0.014944 0.032139
vt 0.056276 0.056388
vt 0.064434 0.048271
vt 0.071112 0.047681
vt 0.019472 0.038379
vt 0.022496 0.052767
vt 0.036277 0.054345
vt 0.030268 0.044938
vt 0.048351 0.055931
vt 0.041275 0.046821
vt 0.053615 0.048666
vt 0.079331 0.047234
vt 0.067936 0.127322
vt 0.054370 0.165745
vt 0.067036 0.127328
vt 0.080169 0.074567
vt 0.079352 0.074707
vt 0.080929 0.054717
vt 0.080051 0.054839
vt 0.079888 0.047265
vt 0.080459 0.047185
vt 0.048123 0.173905
vt 0.044928 0.184947
vt 0.050977 0.173876
vt 0.045969 0.184915
vt 0.022367 0.023610
vt 0.021505 0.027349
vt 0.025519 0.032834
vt 0.035820 0.039346
vt 0.044845 0.041446
vt 0.057374 0.043476
vt 0.070261 0.042474
vt 0.074371 0.042111
vt 0.079429 0.041835
vt 0.079771 0.041854
vt 0.080123 0.041805
vt 0.028939 0.019179
vt 0.028066 0.022558
vt 0.031565 0.027289
vt 0.041371 0.033753
vt 0.048415 0.036071
vt 0.061134 0.038287
vt 0.076089 0.036676
vt 0.077630 0.036540
vt 0.079527 0.036436
vt 0.079655 0.036444
vt 0.079787 0.036425
vt 0.032002 0.019684
vt 0.032883 0.016520
vt 0.035193 0.023963
vt 0.044702 0.030398
vt 0.050557 0.032846
vt 0.063390 0.035173
vt 0.079585 0.033197
vn 0.301046 -0.712421 0.633899
vn 0.301046 -0.712421 0.633899
vn 0.301046 -0.712421 0.633899
vn 0.301046 -0.712421 0.633899
vn 0.281143 -0.003085 0.959661
vn 0.359125 -0.021189 0.933049
vn 0.359125 -0.021189 0.933049
vn -0.079170 0.082772 0.993419
vn -0.250970 -0.710054 0.657904
vn -0.250970 -0.710054 0.657904
vn -0.333353 -0.707128 0.623575
vn -0.342674 -0.706429 0.619300
vn -0.423800 0.041535 0.904803
vn -0.523131 0.051820 0.850675
vn -0.517119 0.199735 0.832282
vn 0.255389 0.002799 0.966834
vn -0.067517 0.149291 0.986486
vn 0.119574 0.988374 0.093909
vn -0.017154 0.991858 0.126190
vn -0.016844 0.997910 0.062381
vn 0.063140 0.992970 0.100118
vn -0.360371 0.268736 0.893260
vn -0.023228 0.862361 -0.505761
vn -0.147452 0.967591 -0.205002
vn 0.325032 0.806906 0.493211
vn 0.325032 0.806906 0.493211
vn 0.103667 0.789511 0.604919
vn 0.103535 0.861584 0.496944
vn -0.177203 -0.700142 0.691665
vn -0.153249 -0.697667 0.699840
vn -0.230967 0.890236 0.392598
vn -0.050567 0.727233 0.684525
vn -0.326521 0.023048 0.944909
vn -0.307688 0.150391 0.939527
vn -0.013553 0.599018 0.800621
vn -0.150451 0.957485 -0.246144
vn -0.015428 0.763357 -0.645793
vn -0.309182 0.311007 0.898711
vn -0.598423 0.361685 0.714895
vn 0.007270 0.706628 -0.707548
vn 0.030296 0.762683 -0.646062
vn -0.521398 0.633462 0.571726
vn -0.504313 0.664420 0.551556
vn -0.458080 0.736792 0.497293
vn -0.458080 0.736792 0.497293
vn 0.034562 -0.647837 0.760994
vn 0.145117 -0.593448 0.791682
vn -0.145340 -0.000560 0.989382
vn 0.005936 0.118565 0.992929
vn 0.030239 0.748555 -0.662382
vn 0.036304 0.705551 -0.707729
vn -0.014081 0.297734 0.954545
vn -0.001728 0.958966 -0.283514
vn -0.216347 0.407908 0.887021
vn -0.023816 0.387203 0.921687
vn -0.279256 0.807529 0.519531
vn -0.279256 0.807529 0.519531
vn -0.127379 0.823346 0.553061
vn -0.086289 0.824169 0.559732
vn 0.065624 0.748724 -0.659626
vn 0.058295 0.730906 -0.679984
vn 0.433955 -0.399145 0.807692
vn 0.476006 -0.380686 0.792777
vn 0.425091 0.061947 0.903028
vn 0.405365 -0.147328 0.902205
vn 0.440707 -0.165919 0.882184
vn 0.501757 -0.462015 0.731288
vn 0.513806 -0.394539 0.761802
vn 0.239154 0.899647 -0.365295
vn 0.203873 0.881797 -0.425287
vn -0.151850 0.767262 -0.623098
vn 0.532532 -0.189111 0.825014
vn 0.578140 0.059454 0.813768
vn 0.397550 0.236387 0.886609
vn 0.426376 0.249495 0.869457
vn 0.615677 0.159299 0.771729
vn 0.364534 0.747304 0.555564
vn 0.406299 0.734779 0.543158
vn 0.721942 0.573003 0.387901
vn 0.721296 0.575721 0.385068
vn 0.646875 0.119663 0.753149
vn -0.132546 0.768858 -0.625530
vn 0.061142 0.908142 -0.414173
vn 0.124011 0.663459 0.737865
vn 0.124011 0.663458 0.737865
vn 0.073104 0.947790 -0.310402
vn 0.018245 0.652611 -0.757473
vn 0.017323 0.652895 -0.757250
vn -0.000770 0.649690 -0.760199
vn -0.004497 0.649962 -0.759953
vn -0.136139 0.653707 -0.744401
vn -0.136139 0.653708 -0.744400
vn 0.002281 0.473872 -0.880591
vn -0.106437 0.465916 -0.878404
vn 0.012075 0.574802 -0.818203
vn 0.013817 0.655305 -0.755238
vn 0.153450 0.652364 0.742209
vn 0.095591 0.870359 0.483049
vn 0.013124 0.994349 0.105342
vn 0.156443 0.064627 0.985570
vn 0.097616 0.062153 0.993282
vn 0.097616 0.062153 0.993282
vn 0.151231 0.064416 0.986397
vn 0.213044 0.066811 0.974756
vn 0.213044 0.066811 0.974756
vn 0.178793 0.980031 0.087018
vn -0.250017 0.956390 0.151026
vn -0.069752 0.995416 0.065430
vn 0.305089 0.951871 -0.029364
vn 0.500316 0.851637 -0.156200
vn 0.472721 -0.577610 0.665509
vn 0.482705 -0.542761 0.687319
vn 0.536807 -0.122118 0.834821
vn 0.577495 0.116431 0.808049
vn 0.615917 0.226075 0.754677
vn 0.658122 0.215682 0.721358
vn 0.717876 0.589242 0.370740
vn 0.717251 0.591572 0.368230
vn 0.476766 0.859500 -0.184265
vn 0.314305 0.886886 -0.338594
vn -0.152373 0.766765 -0.623581
vn -0.132535 0.768673 -0.625760
vn -0.106437 0.465917 -0.878403
vn -0.136138 0.653703 -0.744405
vn -0.136138 0.653702 -0.744406
vn 0.451831 -0.639864 0.621629
vn 0.457138 -0.625186 0.632588
vn 0.538491 -0.065255 0.840100
vn 0.575741 0.162092 0.801404
vn 0.615427 0.283672 0.735377
vn 0.662572 0.311390 0.681201
vn 0.714759 0.600495 0.358504
vn 0.714260 0.602217 0.356606
vn 0.463615 0.863287 -0.199491
vn 0.356897 0.883846 -0.302390
vn -0.149033 0.769922 -0.620491
vn -0.132611 0.769855 -0.624290
vn -0.106436 0.465915 -0.878404
vn -0.136139 0.653710 -0.744399
vn -0.136139 0.653709 -0.744399
vn 0.440056 -0.670167 0.597684
vn 0.440056 -0.670167 0.597684
vn 0.574361 0.200551 0.793655
vn 0.538587 -0.020856 0.842312
vn 0.615916 0.332963 0.713990
vn 0.660719 0.390336 0.641161
vn 0.712463 0.608246 0.349905
vn 0.712463 0.608246 0.349905
vn 0.455392 0.865445 -0.208859
vn 0.422013 0.874057 -0.240686
vn -0.136141 0.653716 -0.744393
s off
g polySurface24 polySurface10 polySurface5 polySurface4
usemtl lambert2SG
f 82/1/1 83/2/2 2/3/3 1/4/4
s 1
f 3/5/5 1/4/6 2/3/7 4/6/8
s 2
f 2/3/9 83/2/10 84/7/11 5/8/12
s 1
f 4/6/8 2/3/13 5/8/14 9/9/15
f 6/10/16 3/5/5 4/6/8 11/11/17
s 4
f 49/12/18 50/13/19 47/14/20 48/15/21
s 1
f 11/11/17 4/6/8 9/9/15 15/16/22
s 4
f 46/17/23 47/14/20 50/13/19 51/18/24
f 7/19/25 6/10/26 11/11/27 12/20/28
s 2
f 5/8/12 84/7/11 85/21/29 16/22/30
s 4
f 14/23/31 12/20/28 11/11/27 17/24/32
s 1
f 9/9/15 5/8/14 16/22/33 21/25/34
s 4
f 15/16/35 17/24/32 11/11/27
f 51/18/24 52/26/36 18/27/37 46/17/23
s 1
f 19/28/38 15/16/39 9/9/15 21/25/34
s 4
f 46/17/23 18/27/37 45/29/40 13/30/41
s 1
f 22/31/42 17/24/43 15/16/39 19/28/38
f 23/32/44 14/23/45 17/24/43 22/31/42
s 2
f 24/33/46 16/22/30 85/21/29 86/34/47
s 1
f 21/25/34 16/22/33 24/33/48 27/35/49
s 4
f 45/29/40 18/27/37 25/36/50 44/37/51
s 1
f 19/28/38 21/25/34 27/35/49 28/38/52
s 4
f 25/36/50 18/27/37 52/26/36 53/39/53
s 1
f 22/31/54 19/28/38 28/38/52 29/40/55
s 6
f 23/32/56 22/31/57 29/40/58 32/41/59
s 4
f 31/42/60 43/43/61 44/37/51 25/36/50
s 2
f 33/44/62 24/33/46 86/34/47 87/45/63
s 1
f 34/46/64 27/35/49 24/33/65 33/44/66
s 2
f 88/47/67 55/48/68 33/44/62 87/45/63
s 4
f 54/49/69 60/50/70 61/51/71 31/42/60
s 1
f 55/48/72 56/52/73 34/46/64 33/44/66
s 4
f 53/39/53 54/49/69 31/42/60 25/36/50
s 1
f 39/53/74 28/38/52 27/35/49 34/46/64
f 29/40/55 28/38/52 39/53/74 42/54/75
f 39/53/74 34/46/64 56/52/73 57/55/76
s 6
f 32/41/59 29/40/58 42/54/77 38/56/78
f 58/57/79 59/58/80 38/56/78 42/54/77
s 1
f 42/54/75 39/53/74 57/55/76 58/57/81
s 4
f 43/43/61 31/42/60 61/51/71 62/59/82
s 8
f 89/60/83 90/61/84 13/30/85 20/62/86
f 91/63/87 89/60/83 20/62/86 26/64/88
f 92/65/89 91/63/87 26/64/88 30/66/90
f 63/67/91 93/68/92 92/65/89 30/66/90
s 4
f 30/66/93 43/43/61 62/59/82 63/67/94
f 44/37/51 43/43/61 30/66/93 26/64/95
f 20/62/96 45/29/40 44/37/51 26/64/95
f 13/30/97 10/69/98 47/14/20 46/17/23
f 48/15/21 47/14/20 10/69/98 8/70/99
s 9
f 95/71/100 94/72/101 8/70/102 10/69/103
f 13/30/104 90/61/105 95/71/100 10/69/103
s 4
f 20/62/96 13/30/41 45/29/40
f 12/20/28 50/13/19 49/12/18 7/19/106
f 51/18/24 50/13/19 12/20/28 14/23/31
f 14/23/31 23/32/107 52/26/36 51/18/24
f 53/39/53 52/26/36 23/32/107 32/41/108
f 38/56/109 54/49/69 53/39/53 32/41/108
f 59/58/110 60/50/70 54/49/69 38/56/109
s 2
f 96/73/111 64/74/112 55/48/68 88/47/67
s 1
f 64/74/113 65/75/114 56/52/73 55/48/72
f 57/55/76 56/52/73 65/75/114 66/76/115
f 58/57/81 57/55/76 66/76/115 67/77/116
s 6
f 67/77/117 68/78/118 59/58/80 58/57/79
s 4
f 68/78/119 69/79/120 60/50/70 59/58/110
f 61/51/71 60/50/70 69/79/120 70/80/121
f 62/59/82 61/51/71 70/80/121 71/81/122
f 63/67/94 62/59/82 71/81/122 72/82/123
s 8
f 72/82/124 97/83/125 93/68/92 63/67/91
s 2
f 98/84/126 73/85/127 64/74/112 96/73/111
s 1
f 73/85/128 74/86/129 65/75/114 64/74/113
f 66/76/115 65/75/114 74/86/129 75/87/130
f 67/77/116 66/76/115 75/87/130 76/88/131
s 6
f 76/88/132 77/89/133 68/78/118 67/77/117
s 4
f 77/89/134 78/90/135 69/79/120 68/78/119
f 70/80/121 69/79/120 78/90/135 79/91/136
f 71/81/122 70/80/121 79/91/136 80/92/137
f 72/82/123 71/81/122 80/92/137 81/93/138
s 8
f 81/93/139 99/94/140 97/83/125 72/82/124
s 2
f 36/95/141 73/85/127 98/84/126 100/96/142
s 1
f 35/97/143 74/86/129 73/85/128 36/95/144
f 75/87/130 74/86/129 35/97/143 40/98/145
f 76/88/131 75/87/130 40/98/145 41/99/146
s 6
f 41/99/147 37/100/148 77/89/133 76/88/132
s 4
f 37/100/149 101/101/150 78/90/135 77/89/134
f 79/91/136 78/90/135 101/101/150
f 80/92/137 79/91/136 101/101/150
f 81/93/138 80/92/137 101/101/150
s 8
f 101/101/151 99/94/140 81/93/139
