# This file uses centimeters as units for non-parametric coordinates.

mtllib Volt_RIGHT2.mtl
g default
v -1.273433 0.430098 1.067669
v -1.243959 0.699271 1.070504
v -1.058513 0.450950 1.088587
v -1.057055 0.996891 0.499852
v -1.232664 1.282142 0.893419
v -1.061451 0.687400 1.088603
v -1.250633 1.111698 1.027527
v -0.762562 0.986112 0.500915
v -0.756951 0.475431 1.071122
v -1.014977 1.311423 0.896322
v -0.759812 0.673320 1.071279
v -1.034387 1.126842 1.050156
v -0.446072 0.500569 0.980037
v -0.449607 0.657854 0.980260
v -0.762302 1.064718 1.046965
v -0.444073 0.996891 0.499852
v -0.142485 0.513760 0.724933
v -0.440554 1.148470 0.758641
v -0.755745 1.289388 0.901982
v -0.137850 0.647977 0.722885
v -0.452335 0.999898 0.973943
v -0.190157 0.999122 0.485467
v -0.169618 0.998634 0.610953
v -0.135248 0.918531 0.714739
v -0.443985 1.001491 0.506029
v -0.762391 0.994518 0.510662
v -1.056000 1.005580 0.509483
v -0.189321 0.999102 0.490576
v -1.237507 1.257522 0.694394
v -1.035488 1.296307 0.696614
v -0.759068 1.279759 0.700034
v -0.442269 1.184965 0.621952
v -0.179469 1.019094 0.532147
v -1.459779 1.177586 0.581138
v -1.399354 1.208699 0.636679
v -1.586808 0.692818 1.049549
v -1.601717 0.383252 0.946924
v -1.236648 0.412067 1.049227
v -1.242351 0.957290 0.507946
v -1.466376 1.135766 0.517389
v -1.057944 0.427909 1.065421
v -1.579799 1.052941 0.962666
v -0.760498 0.452213 1.048351
v -1.556358 1.184496 0.777988
v -0.457111 0.477023 0.959672
v -0.142448 0.491698 0.695817
v -1.057114 1.004902 0.499134
v -0.762562 0.994401 0.500171
v -0.444478 1.004902 0.499134
v -0.188313 0.998280 0.477141
v -1.690402 1.070404 0.526832
v -1.677207 1.154045 0.654331
v -0.057874 0.510664 0.628647
v -0.058302 0.533504 0.654219
v -0.050218 0.627831 0.653239
v -0.025784 0.907944 0.638348
v -0.012833 0.955313 0.490998
v -0.020750 0.954513 0.449390
v -0.004916 0.956112 0.532605
v -0.021422 0.954445 0.445858
v -0.021220 0.962354 0.444004
vt 0.009981 0.376946
vt 0.000565 0.406293
vt -0.031020 0.367790
vt -0.014824 0.347343
vt -0.035994 0.366439
vt 0.069873 0.307618
vt 0.070881 0.334863
vt 0.063854 0.334554
vt 0.056775 0.329241
vt -0.044642 0.340870
vt -0.047502 0.342328
vt 0.030985 0.355566
vt 0.015970 0.328306
vt -0.025407 0.329181
vt 0.061566 0.289220
vt 0.046801 0.314547
vt 0.038440 0.296781
vt -0.056758 0.300541
vt -0.053710 0.299546
vt 0.047994 0.345489
vt 0.031369 0.318338
vt -0.035369 0.293843
vt 0.008627 0.309482
vt 0.052402 0.260306
vt 0.030064 0.271140
vt -0.053163 0.254063
vt -0.049941 0.254001
vt -0.034973 0.253012
vt 0.024501 0.299413
vt -0.003532 0.286343
vt -0.032570 0.203865
vt -0.034883 0.200982
vt -0.028637 0.189282
vt -0.026089 0.191204
vt 0.029280 0.237975
vt 0.047034 0.229383
vt -0.018417 0.204109
vt -0.015797 0.190934
vt -0.005538 0.253014
vt 0.042367 0.203617
vt 0.043072 0.203492
vt 0.047719 0.229276
vt 0.015721 0.278361
vt 0.009779 0.206465
vt 0.017155 0.190846
vt 0.036015 0.204894
vt 0.038899 0.185381
vt 0.044463 0.184980
vt 0.017256 0.242477
vt 0.025523 0.206237
vt 0.033206 0.185863
vt 0.062445 0.289092
vt 0.062949 0.288928
vt 0.053822 0.259997
vt 0.053274 0.260169
vt 0.048440 0.229176
vt 0.044928 0.184947
vt 0.045969 0.184915
vt 0.044149 0.202991
vt 0.073377 0.362883
vt 0.061450 0.355572
vn -0.165508 0.019491 0.986016
vn -0.191550 -0.161714 0.968069
vn -0.166227 -0.117615 0.979048
vn -0.138955 0.043332 0.989350
vn -0.100635 -0.804288 0.585657
vn -0.027630 -0.739440 0.672656
vn -0.075928 -0.783718 0.616459
vn -0.048274 0.544604 -0.837303
vn -0.029809 0.837179 -0.546117
vn -0.080011 0.907187 -0.413050
vn -0.112628 0.926552 -0.358910
vn 0.061726 -0.707885 0.703625
vn 0.058365 -0.708160 0.703636
vn -0.140612 0.164179 0.976357
vn -0.184111 0.361489 0.914018
vn -0.013636 -0.000019 0.999907
vn -0.015118 0.053436 0.998457
vn -0.032024 0.548349 -0.835636
vn -0.153402 0.845324 -0.511757
vn -0.029919 0.791469 -0.610477
vn 0.176281 -0.703121 0.688873
vn 0.180733 -0.702912 0.687932
vn -0.340721 0.704223 0.622880
vn -0.340721 0.704223 0.622880
vn -0.242847 0.679938 0.691888
vn 0.158472 0.002024 0.987361
vn 0.156889 0.038907 0.986850
vn -0.008430 0.303718 0.952725
vn 0.001538 0.554914 -0.831906
vn 0.116852 0.823436 -0.555246
vn 0.379468 -0.702603 0.601957
vn 0.385814 -0.702475 0.598061
vn 0.467584 0.021473 0.883688
vn 0.467752 0.003299 0.883854
vn 0.010585 0.606280 0.795181
vn 0.210180 0.287002 0.934588
vn 0.492737 -0.687557 0.533363
vn 0.512204 -0.674724 0.531408
vn 0.572343 -0.631382 0.523239
vn 0.572343 -0.631382 0.523239
vn 0.208616 0.825939 -0.523741
vn -0.014345 0.575482 -0.817689
vn 0.638836 -0.001770 0.769341
vn 0.630616 0.009953 0.776031
vn 0.632422 -0.024939 0.774223
vn 0.606758 -0.004281 0.794875
vn 0.485494 0.281980 0.827516
vn 0.075980 0.707734 -0.702382
vn 0.067514 0.959850 -0.272269
vn -0.025702 0.831745 -0.554563
vn 0.280410 0.611841 0.739608
vn 0.648221 0.322467 0.689800
vn 0.595764 0.004351 0.803148
vn 0.595764 0.004351 0.803148
vn 0.336176 0.882835 -0.328005
vn 0.297765 0.952493 -0.063979
vn 0.233498 0.936877 -0.260270
vn 0.507580 0.654028 0.560901
vn 0.547808 0.704670 0.450939
vn 0.410625 0.789196 0.456681
vn 0.410625 0.789196 0.456681
vn 0.024406 0.089317 0.995704
vn 0.024406 0.089317 0.995704
vn 0.024406 0.089317 0.995704
vn -0.000324 0.089326 0.996002
vn -0.000324 0.089326 0.996002
vn -0.000324 0.089326 0.996002
vn -0.000324 0.089326 0.996002
vn 0.000299 0.089333 0.996002
vn 0.000299 0.089333 0.996002
vn 0.000299 0.089333 0.996002
vn 0.000299 0.089333 0.996002
vn 0.003933 0.760912 -0.648843
vn -0.028407 0.749678 -0.661193
vn 0.244759 0.968391 -0.048094
vn 0.306866 0.751856 0.583563
vn 0.306866 0.751856 0.583563
vn 0.306866 0.751856 0.583563
vn 0.306866 0.751856 0.583563
vn 0.051305 0.778627 0.625387
vn 0.051305 0.778626 0.625387
vn 0.051305 0.778626 0.625387
vn 0.051305 0.778626 0.625387
vn -0.200798 0.974561 -0.099551
vn -0.020490 0.996965 -0.075105
vn 0.209415 0.977812 -0.005458
vn 0.430030 0.896835 0.103740
vn 0.521009 0.836567 0.169426
vn 0.337352 0.935728 0.102991
vn -0.260588 0.819397 -0.510570
vn -0.238435 0.906038 -0.349635
vn -0.226895 0.966297 -0.121609
s 1
g polySurface23 polySurface10 polySurface5 polySurface4
usemtl lambert2SG
f 36/1/1 37/2/2 1/3/3 2/4/4
s 2
f 37/2/5 38/5/6 1/3/7
s 3
f 39/6/8 40/7/9 34/8/10
f 34/8/10 35/9/11 39/6/8
s 2
f 3/10/12 1/3/7 38/5/6 41/11/13
s 1
f 42/12/14 36/1/1 2/4/4 7/13/15
f 2/4/4 1/3/3 3/10/16 6/14/17
s 3
f 27/15/18 39/6/8 29/16/19 30/17/20
f 35/9/11 29/16/19 39/6/8
s 2
f 3/10/12 41/11/13 43/18/21 9/19/22
s 1
f 44/20/23 42/12/24 7/13/15 5/21/25
f 6/14/17 3/10/16 9/19/26 11/22/27
f 7/13/15 2/4/4 6/14/17 12/23/28
s 3
f 26/24/29 27/15/18 30/17/20 31/25/30
s 2
f 9/19/22 43/18/21 45/26/31 13/27/32
s 1
f 14/28/33 11/22/27 9/19/26 13/27/34
f 5/21/25 7/13/15 12/23/28 10/29/35
f 6/14/17 11/22/27 15/30/36 12/23/28
s 2
f 17/31/37 13/27/32 45/26/31 46/32/38
f 46/32/38 53/33/39 54/34/40 17/31/37
s 3
f 31/25/30 32/35/41 25/36/42 26/24/29
s 1
f 14/28/33 13/27/34 17/31/43 20/37/44
f 20/37/44 17/31/43 54/34/45 55/38/46
f 11/22/27 14/28/33 21/39/47 15/30/36
s 3
f 25/36/42 28/40/48 22/41/49 16/42/50
s 1
f 19/43/51 10/29/35 12/23/28 15/30/36
f 14/28/33 20/37/44 24/44/52 21/39/47
f 20/37/44 55/38/46 56/45/53 24/44/54
s 3
f 33/46/55 57/47/56 58/48/57 28/40/48
s 1
f 19/43/51 15/30/36 21/39/47 18/49/58
f 24/44/52 23/50/59 18/49/58 21/39/47
f 56/45/60 59/51/61 23/50/59 24/44/52
s off
f 39/6/62 4/52/63 47/53/64
f 48/54/65 47/53/66 4/52/67 8/55/68
f 49/56/69 48/54/70 8/55/71 16/42/72
s 3
f 26/24/29 25/36/42 16/42/50 8/55/73
f 8/55/73 4/52/74 27/15/18 26/24/29
f 4/52/74 39/6/8 27/15/18
f 28/40/48 58/48/57 60/57/75 22/41/49
s off
f 61/58/76 50/59/77 22/41/78 60/57/79
f 22/41/80 50/59/81 49/56/82 16/42/83
s 3
f 25/36/42 32/35/41 33/46/55 28/40/48
f 30/17/20 29/16/19 5/21/84 10/29/85
f 31/25/30 30/17/20 10/29/85 19/43/86
f 18/49/87 32/35/41 31/25/30 19/43/86
f 33/46/55 32/35/41 18/49/87 23/50/88
f 59/51/89 57/47/56 33/46/55 23/50/88
f 34/8/10 40/7/9 51/60/90 52/61/91
f 44/20/92 35/9/11 34/8/10 52/61/91
f 5/21/84 29/16/19 35/9/11 44/20/92
