# This file uses centimeters as units for non-parametric coordinates.

mtllib Volt_BACK1.mtl
g default
v -1.703759 0.888356 0.604044
v -1.687717 0.715878 0.948011
v -1.686830 1.022100 0.877088
v -1.600165 0.692818 1.034003
v -1.690564 1.154045 0.638785
v -1.593156 1.052941 0.947120
v -1.569715 1.184496 0.762442
v -1.703759 0.686555 0.636007
v -1.727477 1.057067 0.261055
v -1.727477 1.142891 0.217326
v -1.727477 0.864968 0.262383
v -1.727477 1.211519 0.148198
v -1.727477 1.255249 0.062374
v -1.727477 0.961123 0.276932
v -1.726796 0.778121 0.218687
v -1.726769 0.709099 0.149483
v -1.726847 0.665229 0.061257
v -1.686999 0.378028 0.848397
v -1.615074 0.383252 0.931378
v -1.703759 1.070404 0.511287
v -1.703759 1.214878 0.366813
v -1.703759 1.307636 0.184765
v -1.679881 0.379907 0.634624
v -1.702679 1.333529 -0.048503
v -1.727375 1.266748 -0.048503
v -1.705627 0.405503 -0.048503
v -1.702454 0.382442 -0.048503
v -1.726848 0.651988 -0.048503
v -1.729301 0.957554 -0.048503
vt 0.078673 0.447027
vt 0.096100 0.426251
vt 0.117819 0.445027
vt 0.107477 0.462819
vt 0.118208 0.419775
vt 0.130134 0.427086
vt 0.066739 0.441148
vt 0.087743 0.419769
vt 0.104752 0.409692
vt 0.057323 0.470496
vt 0.070382 0.479589
vt 0.147774 0.421435
vt 0.153635 0.439340
vt 0.151038 0.447291
vt 0.159033 0.433641
vt 0.165001 0.421638
vt 0.166455 0.430266
vt 0.097335 0.492027
vt 0.150984 0.456507
vt 0.174498 0.428176
vt 0.184296 0.422597
vt 0.184260 0.428274
vt 0.154203 0.465929
vt 0.161350 0.473695
vt 0.183672 0.508834
vt 0.183690 0.506523
vt 0.171318 0.479147
vt 0.183886 0.481234
vt 0.184073 0.455203
vn -0.999235 -0.012736 0.036985
vn -0.998381 0.021871 0.052505
vn -0.998357 0.023015 0.052468
vn -0.999258 -0.015499 0.035246
vn -0.997740 0.042773 0.051823
vn -0.997740 0.042773 0.051823
vn -0.693610 0.017537 0.720137
vn -0.701166 -0.018282 0.712764
vn -0.645910 0.183167 0.741114
vn -0.645910 0.183167 0.741114
vn -0.574853 0.706268 0.413195
vn -0.574853 0.706268 0.413195
vn -0.574853 0.706268 0.413195
vn -0.574853 0.706268 0.413195
vn -0.723820 -0.191228 0.662960
vn -0.723820 -0.191228 0.662960
vn -0.995988 0.035650 0.082086
vn -0.991420 0.087791 0.096844
vn -0.993639 0.061055 0.094623
vn -0.996117 0.033631 0.081366
vn -0.984546 0.136351 0.109900
vn -0.975703 0.198912 0.091855
vn -0.980220 0.168533 0.103757
vn -0.998972 -0.041117 0.019101
vn -0.998972 -0.041117 0.019101
vn -0.997785 0.003999 0.066406
vn -0.997760 0.004543 0.066736
vn -0.943617 0.328251 0.042878
vn -0.937718 0.345697 0.034340
vn -0.937718 0.345697 0.034340
vn -0.998123 -0.004836 0.061053
vn -0.998123 -0.004836 0.061053
vn -0.996251 -0.077746 0.037937
vn -0.996595 -0.066508 0.048735
vn -0.995778 -0.084130 0.036728
vn -0.995581 -0.085510 0.038810
vn -0.990152 -0.136242 0.032212
vn -0.994864 -0.095642 0.033143
vn -0.994700 -0.096394 0.035789
vn -0.996261 -0.085773 0.010349
vn -0.999981 0.006228 -0.000272
vn -0.999981 0.006228 -0.000272
vn -0.999981 0.006228 -0.000272
vn -0.999990 -0.002243 0.003983
vn -0.999984 0.004587 0.003350
vn -0.999983 0.005148 0.002623
vn -0.999984 0.003310 0.004553
vn -0.999984 0.001744 0.005331
vn -0.999984 0.000043 0.005603
vn -0.999978 -0.005048 0.004363
vn -0.999968 -0.006305 0.004877
vn -0.999962 -0.007668 0.004224
vn -0.999969 -0.007408 0.002622
vn -0.999967 -0.008028 0.000971
s 1
g polySurface17 polySurface13 polySurface11 polySurface9 polySurface5 polySurface4
usemtl lambert2SG
f 2/1/1 3/2/2 1/3/3 8/4/4
f 1/3/3 3/2/2 5/5/5 20/6/6
s 2
f 2/1/7 4/7/8 6/8/9 3/2/10
s off
f 7/9/11 5/5/12 3/2/13 6/8/14
s 2
f 19/10/15 4/7/8 2/1/7 18/11/16
s 3
f 20/6/17 21/12/18 9/13/19 14/14/20
f 10/15/21 21/12/18 22/16/22 12/17/23
s 1
f 18/11/24 2/1/1 8/4/4 23/18/25
s 3
f 21/12/18 10/15/21 9/13/19
f 11/19/26 1/3/27 20/6/17 14/14/20
f 22/16/22 13/20/28 12/17/23
f 13/20/28 22/16/22 24/21/29 25/22/30
f 15/23/31 8/4/32 1/3/27 11/19/26
s 4
f 8/4/33 15/23/34 23/18/35
f 23/18/35 15/23/34 16/24/36
f 27/25/37 23/18/35 26/26/38
f 23/18/35 16/24/36 26/26/38
f 16/24/36 17/27/39 26/26/38
f 28/28/40 26/26/38 17/27/39
s off
f 29/29/41 13/20/42 25/22/43
s 5
f 29/29/44 12/17/45 13/20/46
f 29/29/44 10/15/47 12/17/45
f 29/29/44 9/13/48 10/15/47
f 29/29/44 14/14/49 9/13/48
f 29/29/44 11/19/50 14/14/49
f 29/29/44 16/24/51 15/23/52
f 29/29/44 15/23/52 11/19/50
f 29/29/44 17/27/53 16/24/51
f 29/29/44 28/28/54 17/27/53
