# This file uses centimeters as units for non-parametric coordinates.

mtllib Volt_FRONT1.mtl
g default
v 1.552611 0.702320 0.193170
v 1.535846 0.648735 0.201657
v 1.562131 0.844352 0.051256
v 1.562131 0.764070 0.160213
v 1.562131 0.813013 0.112761
v 1.538044 0.707018 0.207175
v 1.517859 0.634167 0.218713
v 1.547563 0.858379 0.055814
v 1.547563 0.772738 0.172099
v 1.462131 0.779869 0.431387
v 1.462131 0.779869 0.431387
v 1.468633 0.634166 0.218713
v 1.511357 0.634167 0.218713
v 1.462131 0.858379 0.055814
v 1.472098 0.858379 0.055814
v 1.462131 0.707018 0.207175
v 1.470987 0.707018 0.207175
v 1.529187 0.707018 0.207175
v 1.537596 0.858379 0.055814
v 1.462131 0.772737 0.172099
v 1.472098 0.772737 0.172099
v 1.462131 0.824893 0.121534
v 1.472098 0.824893 0.121534
v 1.537596 0.772738 0.172099
v 1.537596 0.824893 0.121534
v 1.547563 0.824893 0.121534
v 1.516374 0.634167 0.218713
v 1.536021 0.707018 0.207175
v 1.545287 0.772738 0.172099
v 1.545287 0.824893 0.121534
v 1.545287 0.858379 0.055814
v 1.550891 0.855175 0.054773
v 1.550891 0.822180 0.119530
v 1.550891 0.770758 0.169384
v 1.541370 0.705945 0.203976
v 1.521967 0.637494 0.214818
v 1.535240 0.648244 0.202231
v 1.552120 0.702478 0.193642
v 1.561639 0.764362 0.160613
v 1.561639 0.813414 0.113057
v 1.561639 0.844824 0.051410
v 1.560983 0.835810 0.047584
v 1.560983 0.805840 0.106403
v 1.560983 0.759033 0.151783
v 1.551879 0.699980 0.183301
v 1.535846 0.648735 0.191417
v 1.537163 0.652945 0.190751
v 1.535846 0.648735 0.192258
v 1.462131 0.708851 0.212816
v 1.462131 0.776224 0.176857
v 1.462131 0.829691 0.125020
v 1.462131 0.864020 0.057647
v 1.462381 0.858379 0.055814
v 1.462381 0.824893 0.121534
v 1.462381 0.772737 0.172099
v 1.462353 0.707018 0.207175
v 1.489763 0.819919 0.642067
v 1.486409 0.713704 0.687104
v 1.462131 0.911308 0.361235
v 1.487810 0.931885 0.499402
v 1.490704 0.869133 0.604753
v 1.462131 0.634166 0.218713
v 1.462131 1.082591 0.128665
v 1.462131 0.634166 0.454463
v 1.462131 0.634166 0.224644
v 1.462131 1.015619 0.260104
v 1.485587 0.656893 0.688185
v 1.482750 0.634164 0.663219
v 1.537749 0.661758 -0.048503
v 1.538038 0.662679 -0.048503
v 1.538288 0.664136 -0.048503
v 1.538438 0.666129 -0.048503
v 1.538833 0.669966 -0.048503
v 1.560970 0.853296 -0.048503
v 1.550208 0.864120 -0.048503
v 1.462131 0.634167 -0.048503
v 1.468632 0.634167 -0.048503
v 1.511356 0.634167 -0.048503
v 1.516374 0.634167 -0.048503
v 1.534737 0.647837 -0.048503
v 1.534737 0.647837 -0.048503
v 1.465549 0.872180 -0.048503
v 1.462262 0.868307 -0.048503
v 1.537596 0.866782 -0.048503
v 1.545287 0.866782 -0.048503
v 1.462104 0.885779 -0.048503
v 1.460564 1.101334 -0.048503
v 1.517858 0.634167 -0.048503
v 1.537724 0.661678 -0.048503
v 1.521967 0.637494 -0.048503
v 1.522342 0.637798 -0.048503
v 1.522360 0.637813 -0.048503
v 1.522375 0.637825 -0.048503
v 1.561150 0.844458 -0.048503
v 1.535816 0.648712 -0.048503
v 1.547008 0.866782 -0.048503
v 1.561153 0.853110 -0.048503
v 1.462124 0.876040 -0.048503
vt 0.355533 0.342085
vt 0.350890 0.297812
vt 0.500000 0.306108
vt 0.500000 0.306974
vt 0.375176 0.397670
vt 0.500000 0.308346
vt 0.440115 0.469937
vt 0.403457 0.441727
vt 0.500000 0.310222
vt 0.500000 0.313834
vt 0.342647 0.347699
vt 0.335890 0.283269
vt 0.343734 0.293388
vt 0.349088 0.344436
vt 0.437731 0.478422
vt 0.500000 0.486396
vt 0.500000 0.496584
vt 0.435635 0.488164
vt 0.364206 0.408705
vt 0.369672 0.402685
vt 0.186536 0.280136
vt 0.200918 0.417281
vt 0.200918 0.417281
vt 0.244639 0.541000
vt 0.041547 0.355003
vt 0.069616 0.454979
vt 0.158529 0.560369
vt 0.092871 0.501302
vt 0.333463 0.280136
vt 0.500000 0.280137
vt 0.500000 0.280137
vt 0.333463 0.280136
vt 0.500000 0.280137
vt 0.333463 0.280137
vt 0.500000 0.280137
vt 0.333463 0.280137
vt 0.349950 0.293850
vt 0.500000 0.293004
vt 0.500000 0.293004
vt 0.350474 0.293850
vt 0.434986 0.491180
vt 0.500000 0.504170
vt 0.500000 0.500526
vt 0.434986 0.491180
vt 0.340654 0.348709
vt 0.340654 0.348709
vt 0.340654 0.348709
vt 0.434986 0.491180
vt 0.500000 0.499090
vt 0.362514 0.410569
vt 0.362514 0.410569
vt 0.394028 0.459661
vt 0.394028 0.459661
vt 0.340654 0.348709
vt 0.434986 0.491180
vt 0.500000 0.499090
vt 0.362514 0.410569
vt 0.394028 0.459661
vt 0.362514 0.410569
vt 0.433844 0.496490
vt 0.500000 0.516971
vt 0.500000 0.719865
vt 0.389584 0.702223
vt 0.394028 0.459661
vt 0.395277 0.457107
vt 0.399311 0.448856
vt 0.329766 0.280136
vt 0.337138 0.350434
vt 0.359549 0.413850
vt 0.307666 0.639185
vt 0.391855 0.464178
vt 0.040874 0.301528
vt 0.056433 0.280135
vt 0.500000 0.280137
vt 0.333463 0.280137
vt 0.340654 0.348709
vt 0.362514 0.410569
vt 0.394028 0.459661
vt 0.434986 0.491180
vt 0.344093 0.293850
vt 0.349382 0.344287
vt 0.369922 0.402410
vt 0.399495 0.448479
vt 0.437827 0.477977
vt 0.500000 0.306033
vt 0.500000 0.283269
vt 0.500000 0.283555
vt 0.500000 0.283569
vt 0.500000 0.283580
vt 0.340654 0.348709
vt 0.362514 0.410569
vt 0.394028 0.459661
vt 0.434986 0.491180
vt 0.500000 0.478077
vt 0.500000 0.293828
vt 0.500000 0.499089
vt 0.500000 0.486221
vt 0.500000 0.507804
vn 0.972710 -0.231091 -0.020792
vn 0.953960 -0.299812 -0.008603
vn 0.953953 -0.299829 -0.008710
vn 0.972112 -0.233622 -0.020450
vn 0.990236 -0.129525 -0.051529
vn 0.989411 -0.137300 -0.047061
vn 0.993392 -0.110317 -0.031680
vn 0.993908 -0.087396 -0.067148
vn 0.994122 -0.081872 -0.070844
vn 0.993261 -0.107377 -0.043627
vn 0.714059 0.081079 0.695374
vn 0.701641 -0.089679 0.706865
vn 0.702219 -0.096083 0.705447
vn 0.714234 0.105008 0.691985
vn 0.712344 0.682056 0.165428
vn 0.704823 0.707177 0.055907
vn 0.697073 0.714782 0.056357
vn 0.707565 0.686147 0.168982
vn 0.713353 0.371044 0.594520
vn 0.713418 0.375905 0.591381
vn 0.993704 -0.039979 -0.104660
vn 0.000000 0.000000 0.000000
vn 0.991804 -0.058367 -0.113660
vn 0.000000 0.000000 0.000000
vn 0.000000 0.000000 0.000000
vn 0.000000 0.000000 0.000000
vn 0.993933 -0.036535 -0.103737
vn 0.993220 -0.048410 -0.105691
vn 0.981484 -0.090191 -0.168982
vn 0.985787 -0.109528 -0.127385
vn 0.988109 -0.112288 -0.105038
vn -0.000000 -1.000000 -0.000002
vn -0.000000 -1.000000 -0.000002
vn 0.000007 -1.000000 -0.000001
vn 0.000007 -1.000000 -0.000001
vn 0.000009 -1.000000 -0.000001
vn 0.000009 -1.000000 -0.000001
vn 0.000018 -1.000000 -0.000000
vn 0.000018 -1.000000 -0.000000
vn 0.629283 -0.777176 -0.000001
vn 0.629380 -0.777098 -0.000002
vn 0.629501 -0.777000 -0.000002
vn 0.985716 -0.168419 -0.000102
vn 0.007321 0.967981 0.250918
vn 0.009862 0.994301 0.106156
vn 0.282182 0.952166 0.117273
vn 0.140328 0.945685 0.293236
vn 0.000002 0.334773 0.942299
vn 0.000003 0.156432 0.987689
vn 0.000000 0.156432 0.987689
vn 0.000000 0.333104 0.942890
vn -0.000000 0.156432 0.987689
vn -0.000000 0.348968 0.937135
vn 0.021328 0.968598 0.247716
vn 0.035104 0.994152 0.102123
vn 0.000001 0.591030 0.806650
vn -0.000000 0.590645 0.806931
vn 0.000001 0.805195 0.593011
vn 0.000001 0.805196 0.593009
vn -0.000002 0.156434 0.987688
vn -0.000001 0.345490 0.938423
vn 0.000004 0.970317 0.241837
vn 0.000006 0.996771 0.080295
vn -0.000000 0.594338 0.804216
vn 0.000001 0.805196 0.593009
vn 0.000000 0.593523 0.804817
vn 0.999994 0.002361 -0.002686
vn 0.999979 0.004303 -0.004900
vn 0.999978 0.004364 -0.005001
vn 0.999993 0.002378 -0.002725
vn 0.000000 0.805198 0.593006
vn 0.711926 0.565410 0.416500
vn 0.711920 0.565401 0.416524
vn 1.000000 0.000000 0.000000
vn 1.000000 0.000000 0.000000
vn 1.000000 0.000000 0.000000
vn 1.000000 0.000000 0.000000
vn 1.000000 -0.000000 0.000000
vn 1.000000 0.000000 0.000000
vn 1.000000 0.000000 0.000000
vn 1.000000 0.000000 0.000000
vn 0.995026 -0.016257 -0.098280
vn 0.995026 -0.016257 -0.098280
vn 0.000020 -1.000000 0.000000
vn 0.000020 -1.000000 0.000000
vn 0.000000 0.156420 0.987691
vn 0.000000 0.355131 0.934817
vn 0.000000 0.595819 0.803119
vn 0.000000 0.805197 0.593008
vn 0.000017 0.967795 0.251739
vn 0.711903 0.565461 0.416471
vn 0.694597 0.697900 0.174560
vn 0.713269 0.370263 0.595107
vn 0.713053 0.071297 0.697475
vn 0.701129 -0.084294 0.708034
vn 0.703040 -0.108073 0.702891
vn 0.714679 0.109242 0.690869
vn 0.713106 0.375457 0.592040
vn 0.711535 0.565652 0.416840
vn 0.711965 0.676318 0.188946
vn 0.995827 -0.085698 -0.031394
vn 0.992859 -0.095294 -0.071762
vn 0.989847 -0.130202 -0.057005
vn 0.978027 -0.207155 -0.023437
vn 0.954381 -0.298590 -0.000004
vn 0.954382 -0.298590 -0.000003
vn 0.954001 -0.299691 -0.008253
vn 0.953978 -0.299751 -0.008708
vn 0.629378 -0.777100 -0.000001
vn 0.629375 -0.777102 -0.000001
vn 0.629378 -0.777100 -0.000000
vn 0.629374 -0.777102 -0.000001
vn 0.629412 -0.777072 0.000005
vn 0.629535 -0.776973 0.000008
vn 0.629378 -0.777099 -0.000002
vn 1.000000 0.000000 0.000000
vn 1.000000 -0.000004 0.000000
vn 1.000000 -0.000004 0.000000
vn 1.000000 0.000000 0.000000
vn 1.000000 0.000858 0.000057
vn 0.995534 0.090552 0.026693
vn 0.000000 0.805183 0.593027
vn 0.000000 0.591059 0.806628
vn 0.000000 0.375461 0.926838
vn 0.992664 -0.120516 -0.009711
vn 0.977499 -0.210939 -0.000101
vn 0.989352 -0.145541 -0.000109
vn 0.000030 0.996771 0.080296
vn 0.672347 0.737986 0.057664
vn 0.629382 -0.777096 -0.000002
vn 0.629382 -0.777096 -0.000002
vn 0.703451 0.708586 0.055346
vn 0.997857 -0.064690 -0.009878
vn 0.999999 0.001315 0.000087
vn 0.998726 0.050108 0.006022
s 1
g polySurface21 polySurface6 polySurface4
usemtl lambert2SG
f 45/1/1 47/2/2 69/3/3 70/4/4
f 44/5/5 45/1/1 70/4/4 71/6/6
f 42/7/7 43/8/8 72/9/9 73/10/10
f 43/8/8 44/5/5 71/6/6 72/9/9
s 3
f 35/11/11 36/12/12 37/13/13 38/14/14
f 41/15/15 74/16/16 75/17/17 32/18/18
f 34/19/19 35/11/11 38/14/14 39/20/20
s 5
f 64/21/21 10/22/22 11/23/23
s off
f 10/22/24 59/24/25 11/23/26
s 5
f 58/25/27 64/21/21 11/23/23 57/26/28
f 11/23/23 59/24/29 60/27/30
f 61/28/31 11/23/23 60/27/30
f 57/26/28 11/23/23 61/28/31
s 7
f 62/29/32 76/30/33 77/31/34 12/32/35
f 12/32/35 77/31/34 78/33/36 13/34/37
f 13/34/37 78/33/36 79/35/38 27/36/39
s 8
f 48/37/40 80/38/41 81/39/42 46/40/43
s 9
f 15/41/44 82/42/45 83/43/46 53/44/47
f 56/45/48 62/29/49 12/32/50 17/46/51
f 17/46/51 12/32/50 13/34/52 18/47/53
f 19/48/54 84/49/55 82/42/45 15/41/44
f 55/50/56 56/45/48 17/46/51 21/51/57
f 53/44/47 54/52/58 23/53/59 15/41/44
f 18/47/53 13/34/52 27/36/60 28/54/61
f 54/52/58 55/50/56 21/51/57 23/53/59
f 31/55/62 85/56/63 84/49/55 19/48/54
f 21/51/57 17/46/51 18/47/53 24/57/64
f 23/53/59 25/58/65 19/48/54 15/41/44
f 23/53/59 21/51/57 24/57/64 25/58/65
f 24/57/64 18/47/53 28/54/61 29/59/66
s 11
f 52/60/67 86/61/68 87/62/69 63/63/70
s 9
f 25/58/65 30/64/71 31/55/62 19/48/54
s 3
f 32/18/18 33/65/72 40/66/73 41/15/15
s 11
f 64/21/74 65/67/75 49/68/76 10/22/77
s 9
f 25/58/65 24/57/64 29/59/66 30/64/71
s 3
f 40/66/73 33/65/72 34/19/19 39/20/20
s 11
f 10/22/77 49/68/76 50/69/78 59/24/79
f 63/63/70 66/70/80 51/71/81 52/60/67
f 59/24/79 50/69/78 51/71/81 66/70/80
s 5
f 58/25/27 67/72/82 68/73/83 64/21/21
s 7
f 27/36/39 79/35/38 88/74/84 7/75/85
s 9
f 28/54/61 27/36/60 7/75/86 6/76/87
f 29/59/66 28/54/61 6/76/87 9/77/88
f 30/64/71 29/59/66 9/77/88 26/78/89
f 30/64/71 26/78/89 8/79/90 31/55/62
s 3
f 26/78/91 33/65/72 32/18/18 8/79/92
f 34/19/19 33/65/72 26/78/91 9/77/93
f 9/77/93 6/76/94 35/11/11 34/19/19
f 6/76/94 7/75/95 36/12/12 35/11/11
f 38/14/14 37/13/13 2/80/96 1/81/97
f 39/20/20 38/14/14 1/81/97 4/82/98
f 5/83/99 40/66/73 39/20/20 4/82/98
f 40/66/73 5/83/99 3/84/100 41/15/15
s 1
f 3/84/101 5/83/102 43/8/8 42/7/7
f 5/83/102 4/82/103 44/5/5 43/8/8
f 4/82/103 1/81/104 45/1/1 44/5/5
f 2/80/105 48/37/106 1/81/104
f 48/37/106 46/40/107 1/81/104
f 46/40/107 47/2/2 1/81/104
f 1/81/104 47/2/2 45/1/1
f 47/2/2 46/40/107 89/85/108 69/3/3
s 8
f 36/12/109 90/86/110 91/87/111 37/13/112
f 37/13/112 91/87/111 92/88/113 2/80/114
f 2/80/114 92/88/113 93/89/115 48/37/40
s 11
f 65/67/75 62/29/116 16/90/117 49/68/76
f 50/69/78 49/68/76 16/90/117 20/91/118
f 51/71/81 50/69/78 20/91/118 22/92/119
f 51/71/81 22/92/119 14/93/120 52/60/67
s 9
f 14/93/121 22/92/122 54/52/58 53/44/47
f 22/92/122 20/91/123 55/50/56 54/52/58
f 20/91/123 16/90/124 56/45/48 55/50/56
f 16/90/124 62/29/49 56/45/48
s 1
f 73/10/10 94/94/125 42/7/7
s 8
f 95/95/126 89/85/127 46/40/43
f 81/39/42 95/95/126 46/40/43
s 9
f 96/96/128 85/56/63 31/55/62 8/79/90
s 3
f 75/17/17 96/96/129 8/79/92 32/18/18
s 8
f 88/74/130 90/86/110 36/12/109 7/75/131
s 3
f 97/97/132 74/16/16 41/15/15 3/84/100
s 1
f 94/94/125 97/97/133 3/84/101 42/7/7
s 8
f 93/89/115 80/38/41 48/37/40
s 11
f 98/98/134 86/61/68 52/60/67 14/93/120
s 9
f 83/43/46 98/98/135 14/93/121 53/44/47
