# WaveFront *.obj file (generated by CINEMA 4D)

mtllib ./Small_Rock.mtl

v -70.58161163330078 -100 -100
v -85.32544708251953 -39.41204833984375 -100
v -40.06599044799805 20.01087188720703 -75.89513397216797
v 0 -100 -100
v 0 -37.39619827270508 -140.92559814453125
v 0 15.87208080291748 -86.10657501220703
v 65.16529083251953 -100 -64.14785003662109
v 100 -57.07753753662109 -82.18157196044922
v 53.19041442871094 12.08040618896484 -58.96564865112305
v 100 -100 0
v 130.64765930175781 0 0
v 105.37133026123047 30.6994457244873 0
v 69.76872253417969 -100 42.76958465576172
v 100 -28.13505744934082 71.73021697998047
v 71.53501129150391 28.04106140136719 47.00365829467773
v 0 -100 80.24685668945312
v 0 -56.4909782409668 118.37397003173828
v 0 -7.24565267562866 100
v -63.62691497802734 -100 54.78992462158203
v -100 -27.77785491943359 72.79621124267578
v -83.14469146728516 -7.26195287704468 68.76670074462891
v -109.20246124267578 -100 0
v -115.15815734863281 -58.95132827758789 0
v -60.01551818847656 1.18830931186676 0
v 0 28.8891658782959 0
v 0 -100 0
# 26 vertices

vn -0.22511094808578 -0.34249764680862 -0.91215151548386
vn 0.0777486115694 -0.47725686430931 -0.87531769275665
vn 0.37195935845375 -0.55892568826675 -0.74111288785934
vn -0.25410893559456 0.58562904596329 -0.76971900463104
vn 0.43923953175545 0.61405783891678 -0.65574508905411
vn 0.15208254754543 0.91455334424973 -0.37478405237198
vn 0.40689837932587 0.71856290102005 -0.56400448083878
vn 0.50772619247437 0.57940375804901 -0.6375777721405
vn 0.87208753824234 -0.45413160324097 -0.18228507041931
vn 0.88836097717285 -0.44509077072144 0.11273425072432
vn 0.65100634098053 -0.49352756142616 0.57673329114914
vn 0.23611091077328 0.92526322603226 -0.29688322544098
vn 0.57305401563644 0.54114502668381 -0.61544382572174
vn 0.66351741552353 0.55174148082733 0.50529789924622
vn 0.51124852895737 0.5043089389801 0.69591480493546
vn 0.42797458171844 -0.55424416065216 0.71389853954315
vn -0.41090169548988 -0.48960337042809 0.76905679702759
vn -0.62349075078964 -0.41194140911102 0.66450244188309
vn 0.01071927975863 0.41792118549347 0.90842002630234
vn -0.30708190798759 0.36642107367516 0.87831443548203
vn -0.79732549190521 -0.30867436528206 0.51864457130432
vn -0.92684930562973 -0.17922438681126 -0.32989233732224
vn -0.75443977117538 0.63626301288605 -0.16121424734592
vn -0.51116579771042 0.85944300889969 -0.00819855835289
vn -0.75517404079437 0.64554166793823 -0.11396566033363
vn -0.49667063355446 0.8667808175087 -0.04482507705688
vn -0.75415700674057 0.65332323312759 -0.06645277887583
vn -0.09356324374676 0.99558103084564 0.00802179332823
vn -0.2248287498951 0.95036321878433 0.21508541703224
vn -0.16977542638779 0.96423351764679 0.20354360342026
vn -0.11415228992701 0.97486740350723 0.19131863117218
vn 0 -1 0
# 32 normals

vt 0 0 0
vt 0 0.5 0
vt 0.5 0.5 0
vt 0.5 0 0
vt 1 0.5 0
vt 1 0 0
vt 0 1 0
vt 0.5 1 0
vt 1 1 0
# 9 texture coordinates

o Cube
usemtl default
f 1/1/1 2/2/1 5/3/2 4/4/2
f 4/4/2 5/3/2 8/5/3 7/6/3
f 2/2/4 3/7/4 6/8/4 5/3/4
f 5/3/5 6/8/6 9/9/7 8/5/8
f 7/1/9 8/2/9 11/3/10 10/4/10
f 10/4/10 11/3/10 14/5/11 13/6/11
f 8/2/8 9/7/7 12/8/12 11/3/13
f 11/3/14 12/8/14 15/9/15 14/5/15
f 13/1/11 14/2/11 17/3/16 16/4/16
f 16/4/17 17/3/17 20/5/18 19/6/18
f 14/2/15 15/7/15 18/8/19 17/3/19
f 17/3/19 18/8/19 21/9/20 20/5/20
f 19/1/18 20/2/18 23/3/21 22/4/21
f 22/4/22 23/3/22 2/5/22 1/6/22
f 20/2/23 21/7/23 24/8/24 23/3/25
f 23/3/25 24/8/24 3/9/26 2/5/27
f 3/1/26 24/2/24 25/3/28 6/4/6
f 6/4/6 25/3/28 12/5/12 9/6/7
f 24/2/24 21/7/29 18/8/30 25/3/28
f 25/3/28 18/8/30 15/9/31 12/5/12
f 19/1/32 22/2/32 26/3/32 16/4/32
f 16/4/32 26/3/32 10/5/32 13/6/32
f 22/2/32 1/7/32 4/8/32 26/3/32
f 26/3/32 4/8/32 7/9/32 10/5/32

